<?xml version="1.0" encoding="UTF-8"?>
<svg version="1.1" xmlns="http://www.w3.org/2000/svg" width="512" height="512">
<path d="M0 0 C11.53044941 9.69473934 21.95452843 20.7977829 32.59764159 31.43759882 C35.21270845 34.05078947 37.83061295 36.66113514 40.4480896 39.27191162 C46.14655545 44.95690591 51.84134207 50.64557585 57.53528666 56.33509803 C61.09596422 59.89299837 64.65737226 63.45016691 68.2189045 67.00721169 C78.09917235 76.87530963 87.97850924 86.7443375 97.85439205 96.61682415 C98.48396253 97.24617506 99.11353301 97.87552597 99.76218138 98.52394812 C100.39313714 99.1546856 101.0240929 99.78542309 101.67416853 100.43527383 C102.9524552 101.71311705 104.23074343 102.99095871 105.5090332 104.26879883 C106.14309 104.90263419 106.77714679 105.53646956 107.43041743 106.18951205 C117.72448531 116.47962437 128.02530143 126.76295322 138.32900756 137.04341366 C148.93234519 147.62302377 159.53003455 158.20826444 170.12209803 168.79916221 C176.05967766 174.73582675 181.99963277 180.67006968 187.94584465 186.59808922 C193.00262678 191.63945261 198.0542151 196.68594934 203.09916841 201.73915108 C205.67034683 204.31422746 208.2438533 206.88685402 210.82401085 209.45293617 C213.62544189 212.23922405 216.41506915 215.03714568 219.20372009 217.83622742 C220.01392937 218.63838029 220.82413865 219.44053316 221.65889972 220.2669937 C230.47131841 229.15654828 236.67109151 237.96829121 237.09375 250.859375 C236.50196473 261.3339743 232.45881369 270.58372707 225 278 C214.64165882 285.77708253 204.4589118 287.19966686 191.796875 285.59375 C184.74639692 283.99610472 180.2956381 280.89064538 175.24307251 275.9763031 C174.59944594 275.36258518 173.95581937 274.74886725 173.29268897 274.11655182 C164.88574705 266.05302505 156.6898941 257.77285845 148.48583984 249.50415039 C146.67922648 247.68740809 144.87233357 245.87094374 143.06518555 244.05473328 C139.70171519 240.67387598 136.33902462 237.29224994 132.97758158 233.90937709 C126.38568284 227.27554828 119.78670662 220.64879854 113.18521118 214.02452087 C112.14118603 212.97682701 111.0971636 211.92913042 110.05314386 210.88143116 C108.47239412 209.29512998 106.89163604 207.70883713 105.31085824 206.12256392 C99.38316664 200.17425216 93.45602777 194.22539016 87.52978516 188.27563477 C86.71906659 187.46170715 86.71906659 187.46170715 85.89196987 186.63133656 C77.09480645 177.7987751 68.30678861 168.95716177 59.52153628 160.11275501 C50.47951731 151.0103716 41.42613242 141.91940428 32.3624512 132.83859056 C26.78141774 127.24621648 21.20974187 121.64483831 15.64971884 116.03157353 C11.40184442 111.7448448 7.13848883 107.47386789 2.8690033 103.20865059 C1.11779204 101.45417961 -0.62823793 99.69452004 -2.3687706 97.9294548 C-4.73707701 95.52926801 -7.12294535 93.14806699 -9.51431274 90.77088928 C-10.20545123 90.06159163 -10.89658971 89.35229398 -11.60867178 88.62150246 C-12.25032133 87.99118251 -12.89197088 87.36086255 -13.55306435 86.71144199 C-14.10198298 86.15970296 -14.65090162 85.60796394 -15.21645415 85.03950554 C-17.01583349 83.77159664 -17.01583349 83.77159664 -19.49194533 84.13745952 C-22.24252279 85.08340557 -23.5359908 86.04013539 -25.57581043 88.08920574 C-26.24616064 88.75282515 -26.91651085 89.41644456 -27.60717469 90.10017365 C-28.33032465 90.83633922 -29.05347461 91.57250478 -29.79853821 92.33097839 C-30.96641736 93.49584769 -30.96641736 93.49584769 -32.15789002 94.6842497 C-34.7728212 97.29727079 -37.3731682 99.92434241 -39.97387695 102.55151367 C-41.84251608 104.42455392 -43.71193826 106.29677991 -45.58239746 108.16799927 C-49.61355151 112.20387912 -53.63741823 116.24690831 -57.65654945 120.29475975 C-63.47522806 126.15481759 -69.30589262 132.00283041 -75.13973501 137.84778801 C-84.61450899 147.34107967 -94.08104981 156.84253555 -103.54174805 166.34985352 C-104.10802948 166.91892157 -104.67431091 167.48798963 -105.25775238 168.07430217 C-105.82471997 168.64406082 -106.39168756 169.21381947 -106.97583598 169.80084354 C-115.00421258 177.86870999 -123.03449592 185.93467197 -131.06713867 193.99829102 C-131.63181798 194.56515203 -132.1964973 195.13201304 -132.7782881 195.71605166 C-142.20388383 205.17773198 -151.63357023 214.63532864 -161.06534928 224.09084493 C-166.8797143 229.92036805 -172.68989358 235.75400744 -178.49466493 241.5930839 C-182.47592662 245.59753917 -186.46061858 249.59855857 -190.44798509 253.59693506 C-192.74627408 255.90186576 -195.04227537 258.20899847 -197.33494377 260.51952171 C-199.82550276 263.02904474 -202.32222987 265.53227109 -204.82051086 268.03410339 C-205.53696866 268.75911535 -206.25342645 269.48412731 -206.99159509 270.23110932 C-216.30776776 279.52646606 -225.08781033 286.03211445 -238.6875 286.25 C-248.4767365 286.13003387 -256.48622759 283.36002616 -264 277 C-271.72617944 268.99850014 -274.63407257 259.87972936 -274.46826172 248.89794922 C-273.77688694 233.61168896 -263.07848091 223.77049429 -252.78443909 213.52374268 C-251.88965581 212.62513386 -250.99487254 211.72652503 -250.07297462 210.80068564 C-247.61592829 208.33344765 -245.15278757 205.87237756 -242.6884917 203.41238332 C-240.02159179 200.74796672 -237.36046695 198.07779204 -234.69854736 195.40840149 C-229.49387161 190.19102286 -224.28377908 184.97908683 -219.07157535 179.76922974 C-214.83397399 175.53341598 -210.5981521 171.29583056 -206.36356926 167.05699921 C-205.75944757 166.45228233 -205.15532589 165.84756546 -204.53289748 165.22452383 C-203.30541718 163.99583171 -202.07793804 162.76713843 -200.85046005 161.53844401 C-189.35868302 150.0358093 -177.86041612 138.53967915 -166.36015695 127.04552576 C-155.84862838 116.53916963 -145.34534445 106.02461516 -134.84590674 95.50617734 C-124.04953324 84.69041702 -113.24760048 73.88023785 -102.43965095 63.0760448 C-96.37800389 57.01630787 -90.31856551 50.95440171 -84.26495552 44.88663483 C-79.11379501 39.72354912 -73.95739396 34.56576771 -68.79422254 29.41469201 C-66.16248698 26.78883594 -63.53318235 24.16066549 -60.91039848 21.52586555 C-58.06256718 18.66513936 -55.20316556 15.8162597 -52.34254456 12.96832275 C-51.52209941 12.14050332 -50.70165426 11.31268389 -49.85634714 10.45977902 C-36.90599502 -2.37028266 -17.13710714 -10.87846361 0 0 Z " fill="#0B6762" transform="translate(275,115)"/>
</svg>
