<?xml version="1.0" encoding="UTF-8"?>
<svg version="1.1" xmlns="http://www.w3.org/2000/svg" width="512" height="512">
<path d="M0 0 C9.81218205 7.93471487 18.52032834 17.00398771 27.38890648 25.95849037 C29.25383453 27.83381821 31.1191839 29.70871713 32.9851284 31.58303261 C36.98485075 35.60206434 40.98118463 39.62443883 44.97549629 43.64884758 C51.28787914 50.00820544 57.61083497 56.35699394 63.93544579 62.70418739 C66.10343542 64.88017684 68.27135605 67.05623503 70.43925476 69.23231506 C70.98077474 69.7758735 71.52229471 70.31943193 72.08022439 70.87946183 C78.22525838 77.04791777 84.36810773 83.2185472 90.51000023 89.390131 C91.07068497 89.9535206 91.6313697 90.5169102 92.20904489 91.09737222 C101.32203607 100.25485436 110.42735498 109.41993644 119.53082077 118.58688636 C128.88918964 128.009956 138.25899791 137.42154801 147.63873637 146.8233465 C153.41944698 152.61851527 159.19048616 158.42299241 164.94950648 164.23971812 C169.35321248 168.68579059 173.77232845 173.11623886 178.19748116 177.54096031 C180.01319745 179.36153953 181.82372491 181.18731005 183.62875175 183.01848793 C186.08484834 185.50868863 188.55853287 187.97994702 191.03767967 190.44716835 C192.11349865 191.55124926 192.11349865 191.55124926 193.21105134 192.67763484 C194.20857642 193.65909057 194.20857642 193.65909057 195.22625351 194.66037369 C196.08022376 195.51938764 196.08022376 195.51938764 196.95144594 196.39575541 C198.78318307 197.71075083 198.78318307 197.71075083 201.2765668 197.34875637 C204.01762267 196.39624087 205.31850289 195.43488546 207.35387707 193.39028072 C208.02422727 192.72666131 208.69457748 192.0630419 209.38524133 191.37931281 C210.10839129 190.64314725 210.83154125 189.90698168 211.57660484 189.14850807 C212.35519094 188.37192854 213.13377704 187.59534901 213.93595666 186.79523677 C216.55088784 184.18221568 219.15123483 181.55514405 221.75194359 178.92797279 C223.62058272 177.05493255 225.4900049 175.18270655 227.3604641 173.3114872 C231.39161815 169.27560735 235.41548487 165.23257816 239.43461609 161.18472672 C245.25329469 155.32466888 251.08395926 149.47665606 256.91780164 143.63169845 C266.39257563 134.13840679 275.85911645 124.63695092 285.31981468 115.12963295 C285.88609611 114.56056489 286.45237754 113.99149684 287.03581902 113.40518429 C287.6027866 112.83542564 288.16975419 112.26566699 288.75390261 111.67864293 C296.78227921 103.61077648 304.81256256 95.5448145 312.84520531 87.48119545 C313.40988462 86.91433444 313.97456393 86.34747342 314.55635474 85.7634348 C323.98195046 76.30175449 333.41163687 66.84415782 342.84341592 57.38864154 C348.65778094 51.55911841 354.46796022 45.72547903 360.27273156 39.88640257 C364.25399325 35.88194729 368.23868521 31.8809279 372.22605173 27.88255141 C374.52434071 25.5776207 376.820342 23.270488 379.11301041 20.95996475 C381.60356939 18.45044173 384.1002965 15.94721538 386.5985775 13.44538307 C387.67326419 12.35786514 387.67326419 12.35786514 388.76966172 11.24837714 C398.45160741 1.58806467 407.01046158 -4.31769764 421.02806664 -4.77051353 C431.53058765 -4.62820295 440.38340443 -0.98850125 447.78978539 6.51854897 C455.05084024 15.13439184 456.39660039 23.77434316 456.11791039 34.86620522 C454.80232917 48.85370664 444.07965236 58.48235088 434.60046959 67.91777992 C433.70976987 68.81230519 432.81907015 69.70683046 431.90137953 70.62846255 C429.45573433 73.08429864 427.00399579 75.53396752 424.55110133 77.98256016 C421.89647138 80.63470664 419.24761677 83.29261141 416.59796715 85.94973183 C411.41735465 91.1430468 406.23132585 96.33091954 401.04318554 101.51671317 C396.8251303 105.73298076 392.60885464 109.95102009 388.3938179 114.17030525 C387.79247158 114.77224677 387.19112525 115.37418828 386.57155631 115.99437045 C385.34971301 117.21742556 384.12787087 118.44048184 382.90602987 119.66353926 C371.46718788 131.11323879 360.02185624 142.5564339 348.57453214 153.99765214 C338.11150248 164.45550936 327.65671759 174.92156484 317.20577879 185.39150372 C306.45912592 196.15754361 295.70691363 206.91800207 284.94868463 217.67247462 C278.91498323 223.70426593 272.88349039 229.73822616 266.85782623 235.77804756 C261.73045438 240.91734488 256.59784171 246.05133733 251.45845897 251.17862466 C248.83887501 253.79232933 246.22172178 256.40834763 243.61108971 259.03099632 C240.7763958 261.87858596 237.93013112 264.71432737 235.08264732 267.54912758 C234.26609313 268.37305606 233.44953893 269.19698454 232.60824066 270.04588056 C222.65191292 279.90931103 213.79056957 285.19946836 199.59056664 285.79198647 C190.12961376 285.59837897 183.14560325 283.16501805 176.2150631 276.61734962 C175.66696871 276.10061343 175.11887433 275.58387724 174.55417103 275.05148238 C165.94558351 266.87126687 157.57822564 258.43708661 149.18042505 250.04188764 C146.56535818 247.428697 143.94745369 244.81835133 141.32997704 242.20757484 C135.63151119 236.52258055 129.93672456 230.83391062 124.24277997 225.14438844 C120.68210241 221.58648809 117.12069437 218.02931955 113.55916214 214.47227478 C103.67889428 204.60417684 93.79955739 194.73514897 83.92367458 184.86266232 C82.97931887 183.91863595 82.97931887 183.91863595 82.01588526 182.95553834 C81.3849295 182.32480086 80.75397374 181.69406338 80.10389811 181.04421264 C78.82561144 179.76636942 77.54732321 178.48852775 76.26903343 177.21068764 C75.31794824 176.25993459 75.31794824 176.25993459 74.34764921 175.28997441 C64.05358133 164.99986209 53.7527652 154.71653325 43.44905908 144.4360728 C32.84572145 133.85646269 22.24803208 123.27122202 11.65596861 112.68032426 C5.71838897 106.74365972 -0.22156613 100.80941679 -6.16777802 94.88139725 C-11.22456014 89.84003385 -16.27614846 84.79353713 -21.32110178 79.74033538 C-23.8922802 77.16525901 -26.46578667 74.59263244 -29.04594421 72.02655029 C-31.84737525 69.24026242 -34.63700251 66.44234078 -37.42565346 63.64325905 C-38.23586274 62.84110617 -39.04607201 62.0389533 -39.88083309 61.21249276 C-48.68022011 52.33608392 -54.88834095 43.52895792 -55.31568336 30.65526772 C-54.66426156 19.23910056 -50.71046802 10.17802976 -42.22193336 2.47948647 C-30.99474987 -6.41957952 -12.12502128 -8.29739508 0 0 Z " fill="#0B6B64" transform="translate(55.221933364868164,115.5205135345459)"/>
</svg>
