<?xml version="1.0" encoding="UTF-8"?>
<svg version="1.1" xmlns="http://www.w3.org/2000/svg" width="500" height="500">
<path d="M0 0 C0.55196045 0.38873291 1.1039209 0.77746582 1.67260742 1.17797852 C3.24124143 2.28366125 4.80817375 3.39175704 6.375 4.5 C7.16261719 5.03496094 7.95023437 5.56992187 8.76171875 6.12109375 C10.33531654 7.19675796 11.86286346 8.33952312 13.375 9.5 C13.375 10.16 13.375 10.82 13.375 11.5 C13.973125 11.78875 14.57125 12.0775 15.1875 12.375 C17.375 13.5 17.375 13.5 20.375 15.5 C20.375 16.16 20.375 16.82 20.375 17.5 C20.91125 17.70625 21.4475 17.9125 22 18.125 C25.29478009 20.03250426 27.96863628 22.54819384 30.375 25.5 C30.375 26.16 30.375 26.82 30.375 27.5 C30.96667969 27.7475 31.55835938 27.995 32.16796875 28.25 C34.72247759 29.69680147 35.9334218 31.15564727 37.6875 33.5 C38.285625 34.29664063 38.88375 35.09328125 39.5 35.9140625 C50.375 50.9125 50.375 50.9125 50.375 54.5 C51.035 54.5 51.695 54.5 52.375 54.5 C72.20220516 88.95298766 80.70612704 130.33817776 70.44433594 169.27636719 C67.61702203 179.4510491 63.96581929 189.00307103 59.375 198.5 C59.05241211 199.17933594 58.72982422 199.85867187 58.39746094 200.55859375 C54.25789805 209.25046187 49.77885849 217.51105245 44.375 225.5 C43.715 226.49 43.055 227.48 42.375 228.5 C41.715 228.5 41.055 228.5 40.375 228.5 C40.21028198 229.35996582 40.21028198 229.35996582 40.04223633 230.23730469 C39.28913985 232.79116426 38.2087285 234.51352831 36.69921875 236.703125 C36.1582959 237.49138672 35.61737305 238.27964844 35.06005859 239.09179688 C34.50398926 239.88650391 33.94791992 240.68121094 33.375 241.5 C32.8692041 242.22767578 32.3634082 242.95535156 31.84228516 243.70507812 C25.56987565 252.65233669 19.08295544 261.31179049 11.91796875 269.5625 C9.53605357 272.31395963 7.22725668 275.10921886 4.9375 277.9375 C0.91423409 282.88140513 -3.21510357 287.72708932 -7.37670898 292.55444336 C-7.85567627 293.11010986 -8.33464355 293.66577637 -8.828125 294.23828125 C-9.29412109 294.77662598 -9.76011719 295.3149707 -10.24023438 295.86962891 C-11.18561925 296.98268958 -12.11342009 298.11086571 -13.02539062 299.25146484 C-14.18532509 300.70053378 -15.40078307 302.10481484 -16.625 303.5 C-17.285 303.5 -17.945 303.5 -18.625 303.5 C-18.84027344 304.03367187 -19.05554688 304.56734375 -19.27734375 305.1171875 C-21.1222735 308.37923721 -23.62252093 310.92669281 -26.1875 313.625 C-27.28307163 314.79378405 -28.37811974 315.96305903 -29.47265625 317.1328125 C-30.01164551 317.70676758 -30.55063477 318.28072266 -31.10595703 318.87207031 C-33.14254262 321.05464066 -35.13613902 323.27393541 -37.125 325.5 C-41.13569849 329.97739795 -45.21084124 334.39214952 -49.30224609 338.7956543 C-52.74701654 342.51384574 -56.08502721 346.30376417 -59.3203125 350.20703125 C-60.625 351.5 -60.625 351.5 -62.625 351.5 C-62.85832031 352.05558594 -63.09164062 352.61117188 -63.33203125 353.18359375 C-66.61601107 359.06697754 -72.29168344 363.97436994 -77.875 367.625 C-85.46615588 369.39626971 -94.65485262 370.27759375 -101.60546875 366.11328125 C-106.33117272 362.33820245 -110.67404327 358.07555651 -114.625 353.5 C-114.625 352.84 -114.625 352.18 -114.625 351.5 C-115.18703125 351.273125 -115.7490625 351.04625 -116.328125 350.8125 C-119.27126861 349.13070365 -121.12544732 347.0289089 -123.375 344.5 C-124.17421875 343.613125 -124.9734375 342.72625 -125.796875 341.8125 C-127.625 339.5 -127.625 339.5 -127.625 337.5 C-128.21925781 337.2421875 -128.81351562 336.984375 -129.42578125 336.71875 C-131.81802503 335.39303053 -133.07281639 334.09621136 -134.8125 332 C-137.53342568 328.78383089 -140.29653327 325.62239599 -143.125 322.5 C-146.49717838 318.76528367 -149.82683832 314.99835614 -153.1171875 311.19140625 C-154.60851619 309.46919436 -154.60851619 309.46919436 -156.3203125 307.90234375 C-157.625 306.5 -157.625 306.5 -157.625 304.5 C-158.615 304.17 -159.605 303.84 -160.625 303.5 C-162.08407021 301.88840371 -163.47042621 300.21025332 -164.8125 298.5 C-168.44880184 293.92779752 -172.21905882 289.55942587 -176.19140625 285.27734375 C-177.625 283.5 -177.625 283.5 -177.625 281.5 C-178.615 281.17 -179.605 280.84 -180.625 280.5 C-182.28125 278.70703125 -182.28125 278.70703125 -184.125 276.3125 C-184.82625 275.41015625 -185.5275 274.5078125 -186.25 273.578125 C-187.03375 272.56234375 -187.8175 271.5465625 -188.625 270.5 C-189.51911275 269.36843001 -190.41501043 268.23826858 -191.3125 267.109375 C-196.93282266 260.03116756 -202.36696238 252.85311645 -207.625 245.5 C-208.41194601 244.42258177 -209.19974661 243.34578735 -209.98828125 242.26953125 C-215.89904894 234.15975859 -221.32876698 225.82030378 -226.55126953 217.25244141 C-227.46720465 215.75753865 -228.40164384 214.27399958 -229.33984375 212.79296875 C-232.39149303 207.91194882 -235.01104056 202.87246728 -237.5 197.6875 C-237.81090576 197.05255615 -238.12181152 196.4176123 -238.44213867 195.76342773 C-240.10731634 192.20071106 -241.00029408 189.44058786 -240.625 185.5 C-241.285 185.5 -241.945 185.5 -242.625 185.5 C-249.47734155 166.40553047 -252.2597039 147.78595554 -251.625 127.5 C-251.60131348 126.6759668 -251.57762695 125.85193359 -251.55322266 125.00292969 C-250.39287464 93.96214775 -237.74974021 62.86041053 -218.625 38.5 C-217.42230469 36.95699219 -217.42230469 36.95699219 -216.1953125 35.3828125 C-211.62969571 29.6502649 -211.62969571 29.6502649 -209.625 27.5 C-208.965 27.5 -208.305 27.5 -207.625 27.5 C-207.356875 26.901875 -207.08875 26.30375 -206.8125 25.6875 C-205.62582594 23.50152146 -204.52900887 22.08667406 -202.625 20.5 C-201.965 20.5 -201.305 20.5 -200.625 20.5 C-200.295 19.51 -199.965 18.52 -199.625 17.5 C-198.965 17.5 -198.305 17.5 -197.625 17.5 C-197.38523438 16.91734375 -197.14546875 16.3346875 -196.8984375 15.734375 C-192.34604693 7.74674492 -181.17678779 2.33597106 -173.625 -2.5 C-172.82578125 -3.02464844 -172.0265625 -3.54929687 -171.203125 -4.08984375 C-121.47426553 -35.5458505 -48.03131983 -33.84837427 0 0 Z M-128.625 73.5 C-130.19001318 74.62998329 -131.77540392 75.73202749 -133.375 76.8125 C-140.01419849 81.41929079 -145.40093256 85.5038883 -149.625 92.5 C-150.1715625 93.32757813 -150.718125 94.15515625 -151.28125 95.0078125 C-158.22591749 105.57194652 -161.67777016 115.01044298 -163.625 127.5 C-163.81707031 128.66402344 -164.00914062 129.82804687 -164.20703125 131.02734375 C-166.34416535 149.10310413 -160.12429268 166.3779478 -150.625 181.5 C-149.86896484 182.74136719 -149.86896484 182.74136719 -149.09765625 184.0078125 C-141.22715757 195.64246272 -127.41266916 203.39865792 -114.625 208.5 C-113.97660156 208.77714844 -113.32820313 209.05429688 -112.66015625 209.33984375 C-94.64958043 216.28826168 -74.10356856 213.78043588 -56.625 206.5 C-52.45357673 204.40016391 -48.53184249 202.05353184 -44.625 199.5 C-43.98820312 199.11714844 -43.35140625 198.73429688 -42.6953125 198.33984375 C-39.22595838 196.20817592 -37.06464975 193.72663354 -34.625 190.5 C-33.861875 189.79875 -33.09875 189.0975 -32.3125 188.375 C-28.38216656 184.17045725 -25.54586435 179.44196819 -22.625 174.5 C-21.92310547 173.324375 -21.92310547 173.324375 -21.20703125 172.125 C-12.25611422 155.82056037 -10.87551825 135.21479086 -15.25 117.3125 C-21.72523387 96.94249346 -34.00862988 80.77745885 -52.75097656 70.45214844 C-72.28524608 60.52723297 -111.77458362 55.27216538 -128.625 73.5 Z " fill="#0C6561" transform="translate(341.625,40.5)"/>
<path d="M0 0 C2.82483963 1.50143787 4.4658665 3.19757563 6 6 C6.90262674 9.5530148 6.94085951 12.45144962 6 16 C3.00099594 20.34169542 -2.11213548 22.70189343 -6.5 25.4375 C-15.2544389 30.90902431 -20.33643469 36.08980562 -22.8125 46.375 C-23.04589173 50.88724006 -22.16847001 54.67025839 -21 59 C-20.81050781 60.09248047 -20.81050781 60.09248047 -20.6171875 61.20703125 C-20.41351563 61.79871094 -20.20984375 62.39039063 -20 63 C-18.515 63.495 -18.515 63.495 -17 64 C-15.31126121 65.64429829 -13.64694485 67.31384218 -12 69 C-8.10343243 72.41731059 -4.05996619 74.68938824 0.5625 76.9375 C1.27865479 77.2866748 1.99480957 77.63584961 2.73266602 77.99560547 C4.17028297 78.6910034 5.60994494 79.38219168 7.05175781 80.06884766 C8.65468593 80.83495892 10.24689879 81.6234494 11.8359375 82.41796875 C35.59735138 93.44240852 64.02139404 95.22298626 89.8125 95.25 C90.95578262 95.25200912 90.95578262 95.25200912 92.12216187 95.25405884 C105.58904519 95.24896021 118.71393481 94.31429408 132 92 C133.03108887 91.82380127 133.03108887 91.82380127 134.08300781 91.64404297 C138.10453131 90.93161733 142.04707489 90.02294666 146 89 C146.64420898 88.83806152 147.28841797 88.67612305 147.95214844 88.50927734 C164.73516355 84.22450474 186.82661167 76.9421641 197 62 C197.763125 60.948125 198.52625 59.89625 199.3125 58.8125 C201.86412442 54.10501331 201.74057015 49.19895203 201 44 C199.27034734 38.53355762 196.28587505 34.78751749 192 31 C191.49726563 30.52949219 190.99453125 30.05898438 190.4765625 29.57421875 C186.40050177 25.87131851 182.08491444 23.18834702 177.234375 20.58984375 C174.53924743 18.67215683 173.38952018 16.99039132 172 14 C171.52100092 10.16800735 172.00568283 6.5640149 174.09765625 3.2734375 C176.1474835 1.22932008 178.20173824 0.09585132 181.08203125 -0.25 C194.05170189 0.47684669 204.81158647 11.52117135 213.375 20.25 C218.37722409 25.88843701 220.88429566 31.82628621 223 39 C223.19851563 39.66128906 223.39703125 40.32257813 223.6015625 41.00390625 C225.89766078 52.50690842 223.2188508 63.53327832 216.8125 73.1875 C195.67766765 101.23265971 159.40338552 111.77102166 126.07714844 116.56420898 C113.687003 118.18352723 101.35596667 118.35807467 88.875 118.3125 C87.83885559 118.31067719 86.80271118 118.30885437 85.73516846 118.30697632 C58.96683337 118.22767307 33.27955642 115.34948033 8 106 C6.95972656 105.64421875 5.91945312 105.2884375 4.84765625 104.921875 C-13.15483278 98.50005965 -32.39602736 85.66472086 -41.81640625 68.55859375 C-47.33901787 56.62027489 -47.32226468 45.21152132 -43.14453125 32.85546875 C-41.76895035 29.42355872 -40.29559183 26.88800262 -38 24 C-37.46375 23.21625 -36.9275 22.4325 -36.375 21.625 C-35.694375 20.820625 -35.694375 20.820625 -35 20 C-34.34 20 -33.68 20 -33 20 C-32.34 18.68 -31.68 17.36 -31 16 C-30.34 16 -29.68 16 -29 16 C-28.76667969 15.4121875 -28.53335938 14.824375 -28.29296875 14.21875 C-26.68753445 11.46380534 -24.9497574 10.27701877 -22.3125 8.5 C-21.42175781 7.89929688 -20.53101563 7.29859375 -19.61328125 6.6796875 C-7.14249972 -1.33591199 -7.14249972 -1.33591199 0 0 Z " fill="#0A7367" transform="translate(164,364)"/>
<path d="" fill="#113E4E" transform="translate(0,0)"/>
</svg>
