<?xml version="1.0" encoding="UTF-8"?>
<svg version="1.1" xmlns="http://www.w3.org/2000/svg" width="444" height="91">
<path d="M0 0 C0.74894531 0.11472656 1.49789062 0.22945313 2.26953125 0.34765625 C2.26953125 2.98765625 2.26953125 5.62765625 2.26953125 8.34765625 C12.82953125 8.34765625 23.38953125 8.34765625 34.26953125 8.34765625 C34.26953125 34.74765625 34.26953125 61.14765625 34.26953125 88.34765625 C27.51953125 89.47265625 27.51953125 89.47265625 24.16921997 89.46791077 C23.41211227 89.46928543 22.65500458 89.4706601 21.87495422 89.47207642 C21.06431015 89.46848114 20.25366608 89.46488586 19.41845703 89.46118164 C18.11504112 89.46140068 18.11504112 89.46140068 16.78529358 89.46162415 C13.9284511 89.46093046 11.07167476 89.4531636 8.21484375 89.4453125 C6.22801753 89.44344639 4.24119086 89.4420234 2.25436401 89.44102478 C-2.96359538 89.43721482 -8.18152674 89.42739755 -13.3994751 89.4163208 C-19.6662437 89.40427093 -25.9330217 89.39969719 -32.19979858 89.39386749 C-41.71004144 89.38418497 -51.22022285 89.36501775 -60.73046875 89.34765625 C-60.73046875 62.61765625 -60.73046875 35.88765625 -60.73046875 8.34765625 C-37.73046875 8.34765625 -37.73046875 8.34765625 -30.60546875 14.97265625 C-28.03515625 18.69921875 -28.03515625 18.69921875 -26.89746094 20.54003906 C-25.07980532 23.35550396 -22.92027218 25.81496545 -20.73046875 28.34765625 C-19.22727548 26.12058917 -17.72781527 23.89115113 -16.23046875 21.66015625 C-15.77776611 20.98911865 -15.32506348 20.31808105 -14.85864258 19.62670898 C-12.62399522 16.28906512 -10.45847257 12.94266292 -8.4609375 9.45703125 C-7.94080078 8.5592395 -7.94080078 8.5592395 -7.41015625 7.64331055 C-6.46468823 5.9917659 -5.54035849 4.32817332 -4.6171875 2.6640625 C-2.73046875 0.34765625 -2.73046875 0.34765625 0 0 Z " fill="#126056" transform="translate(80.73046875,-0.34765625)"/>
<path d="M0 0 C1.14082031 0.13535156 1.14082031 0.13535156 2.3046875 0.2734375 C2.3046875 2.9134375 2.3046875 5.5534375 2.3046875 8.2734375 C12.8646875 8.2734375 23.4246875 8.2734375 34.3046875 8.2734375 C34.3046875 34.6734375 34.3046875 61.0734375 34.3046875 88.2734375 C29.92425228 89.00351004 26.38657471 89.39265476 22.03125 89.37109375 C20.87753906 89.36787109 19.72382812 89.36464844 18.53515625 89.36132812 C17.34535156 89.35294922 16.15554687 89.34457031 14.9296875 89.3359375 C13.71667969 89.33142578 12.50367188 89.32691406 11.25390625 89.32226562 C8.27078243 89.31052104 5.28776071 89.2940959 2.3046875 89.2734375 C2.33199951 88.37214111 2.35931152 87.47084473 2.38745117 86.54223633 C3.76150677 67.78607757 3.76150677 67.78607757 -2.24511719 50.93017578 C-4.60738811 48.53688514 -7.1016884 46.41848942 -9.6953125 44.2734375 C-11.48745143 42.32070347 -13.10325542 40.28787745 -14.7578125 38.2109375 C-15.47066406 37.35371094 -16.18351562 36.49648438 -16.91796875 35.61328125 C-18.5463669 33.46952193 -19.77592533 31.79369513 -20.6953125 29.2734375 C-20.02368164 27.34155273 -20.02368164 27.34155273 -18.73046875 25.33203125 C-18.02978271 24.21610596 -18.02978271 24.21610596 -17.31494141 23.07763672 C-16.80108887 22.29662598 -16.28723633 21.51561523 -15.7578125 20.7109375 C-15.24653809 19.91187988 -14.73526367 19.11282227 -14.20849609 18.28955078 C-13.18338844 16.6883656 -12.15285381 15.0906408 -11.11669922 13.49658203 C-9.884726 11.56969296 -8.71321101 9.62717966 -7.57421875 7.64453125 C-6.99542969 6.65582031 -6.41664062 5.66710937 -5.8203125 4.6484375 C-5.08167969 3.36066406 -5.08167969 3.36066406 -4.328125 2.046875 C-2.6953125 0.2734375 -2.6953125 0.2734375 0 0 Z " fill="#029BDB" transform="translate(80.6953125,-0.2734375)"/>
<path d="M0 0 C23 0 23 0 30.125 6.625 C32.6953125 10.3515625 32.6953125 10.3515625 33.82910156 12.21191406 C35.03079659 14.04702965 36.37271293 15.54728801 37.8671875 17.1484375 C40 20 40 20 39.81152344 22.36303711 C38.92178999 25.25413548 37.73600514 27.46868541 36.1484375 30.04296875 C35.5512793 31.02233398 34.95412109 32.00169922 34.33886719 33.01074219 C33.69079102 34.05907227 33.04271484 35.10740234 32.375 36.1875 C31.01103052 38.42456894 29.64911768 40.6628929 28.2890625 42.90234375 C27.93827637 43.47892731 27.58749023 44.05551086 27.22607422 44.64956665 C21.46604555 54.14217649 15.99352547 63.80570782 10.47949219 73.44238281 C9.99125977 74.28639648 9.50302734 75.13041016 9 76 C8.3488623 77.40137207 8.3488623 77.40137207 7.68457031 78.83105469 C7.12866211 79.54680664 6.57275391 80.26255859 6 81 C4.02 81 2.04 81 0 81 C0 54.27 0 27.54 0 0 Z " fill="#122C45" transform="translate(20,8)"/>
<path d="M0 0 C10.56 0 21.12 0 32 0 C32 19.8 32 39.6 32 60 C29.20531459 57.20531459 27.78048815 55.06894183 25.91796875 51.64453125 C25.32185791 50.55809326 24.72574707 49.47165527 24.11157227 48.35229492 C23.470081 47.17243604 22.82872669 45.99250269 22.1875 44.8125 C20.85041736 42.36494415 19.5088362 39.91990065 18.1640625 37.4765625 C17.82232498 36.85547104 17.48058746 36.23437958 17.12849426 35.59446716 C14.79474734 31.37645062 12.37549578 27.22151676 9.8984375 23.0859375 C9.25366455 22.00723389 8.6088916 20.92853027 7.94458008 19.81713867 C6.71296818 17.76913855 5.470992 15.72732684 4.2175293 13.69262695 C3.38475464 12.30370239 3.38475464 12.30370239 2.53515625 10.88671875 C2.044104 10.08451904 1.55305176 9.28231934 1.04711914 8.45581055 C0 6 0 6 0 0 Z " fill="#122B45" transform="translate(83,8)"/>
<path d="M0 0 C19.47 0 38.94 0 59 0 C59 2.31 59 4.62 59 7 C50.75 7 42.5 7 34 7 C34 26.8 34 46.6 34 67 C31.03 67 28.06 67 25 67 C25 47.2 25 27.4 25 7 C16.75 7 8.5 7 0 7 C0 4.69 0 2.38 0 0 Z " fill="#FFFFFF" transform="translate(162,9)"/>
<path d="M0 0 C5.9632019 4.11744893 9.76192503 8.99955632 12.375 15.75 C13.21375931 22.66976432 12.65355946 28.48886784 9.625 34.8125 C5.60836426 39.69759752 0.11933481 44.35958254 -6.390625 45.015625 C-14.72592197 45.19049137 -20.40613258 42.51005527 -26.375 36.8125 C-30.92913761 30.37389165 -31.20859385 23.51377049 -30.375 15.8125 C-28.27253399 9.24229371 -25.09360984 4.62490656 -19.375 0.8125 C-13.14380524 -2.1216566 -6.48147483 -2.28051892 0 0 Z M-18.375 8.8125 C-22.12425634 14.03467847 -22.80756473 18.43217028 -22.375 24.8125 C-20.69033501 29.95516155 -18.72357026 33.52691358 -14.375 36.8125 C-11.63809715 37.77946361 -9.26562937 38.10723084 -6.375 37.8125 C-1.2501338 35.2017191 1.80945712 32.25912865 3.625 26.8125 C4.13349203 20.58347262 4.35944209 15.09222848 0.625 9.8125 C-1.60759827 7.31724311 -3.18057666 6.00577941 -6.5234375 5.46484375 C-11.24115619 5.28459868 -14.66562921 5.64862492 -18.375 8.8125 Z " fill="#FEFEFE" transform="translate(318.375,32.1875)"/>
<path d="M0 0 C4.45532312 4.22684501 7.33787828 7.35534181 7.55102539 13.68237305 C7.5508675 15.06299841 7.54524417 16.44363024 7.53515625 17.82421875 C7.5337413 18.55244339 7.53232635 19.28066803 7.53086853 20.03096008 C7.52527659 22.35401539 7.51272562 24.67697388 7.5 27 C7.49498396 28.57617048 7.49042123 30.15234248 7.48632812 31.72851562 C7.4753098 35.58988098 7.45805074 39.45117408 7.4375 43.3125 C4.7975 43.3125 2.1575 43.3125 -0.5625 43.3125 C-0.8925 42.6525 -1.2225 41.9925 -1.5625 41.3125 C-2.10777344 41.5290625 -2.65304688 41.745625 -3.21484375 41.96875 C-9.7169797 44.36953866 -15.82822504 45.85491792 -22.4375 43.125 C-25.44587382 40.5590341 -27.22014815 38.37078614 -27.8828125 34.38671875 C-28.07810463 30.93004804 -27.75381168 28.71334352 -26.25 25.5625 C-19.59676385 19.9923488 -11.01159835 18.67905524 -2.5625 18.3125 C-2.02812599 12.4264934 -2.02812599 12.4264934 -4.5625 7.25 C-7.90540254 5.09104211 -9.68235132 4.95859109 -13.56640625 5.71484375 C-16.42258762 6.57002134 -18.95448183 7.88429957 -21.5625 9.3125 C-22.2225 9.3125 -22.8825 9.3125 -23.5625 9.3125 C-23.8925 7.0025 -24.2225 4.6925 -24.5625 2.3125 C-16.95072332 -2.46351674 -8.35861066 -3.95934189 0 0 Z M-17.75 28.4375 C-18.348125 29.05625 -18.94625 29.675 -19.5625 30.3125 C-19.37421228 32.75730079 -19.37421228 32.75730079 -18.5625 35.3125 C-15.26902625 37.97261341 -11.62825314 37.66914501 -7.5625 37.3125 C-5.24970389 36.15610194 -3.38840172 35.13840172 -1.5625 33.3125 C-1.49070036 31.79321962 -1.47857993 30.27082518 -1.5 28.75 C-1.50902344 27.92371094 -1.51804688 27.09742188 -1.52734375 26.24609375 C-1.53894531 25.60800781 -1.55054688 24.96992187 -1.5625 24.3125 C-7.28537613 24.3125 -12.98507725 25.26088483 -17.75 28.4375 Z " fill="#FEFEFE" transform="translate(248.5625,32.6875)"/>
<path d="M0 0 C5.38124163 8.07186245 4.24160601 18.25272055 4.125 27.5625 C4.11494735 28.96679047 4.10582555 30.37108793 4.09765625 31.77539062 C4.07423093 35.18377485 4.04142746 38.591795 4 42 C1.03 42 -1.94 42 -5 42 C-5.01981934 41.01604248 -5.03963867 40.03208496 -5.06005859 39.01831055 C-5.13613987 35.36717161 -5.224853 31.71642991 -5.31738281 28.06567383 C-5.35566221 26.48567549 -5.39051697 24.90559031 -5.421875 23.32543945 C-5.46754876 21.05388355 -5.52553784 18.78292491 -5.5859375 16.51171875 C-5.59748871 15.80536789 -5.60903992 15.09901703 -5.62094116 14.3712616 C-5.73071048 10.72258607 -5.92142364 9.11786454 -8 6 C-12.00206827 4.94795266 -12.00206827 4.94795266 -16 5 C-19.26120968 7.49794784 -20.70143247 9.10429741 -22 13 C-22.15109093 15.20959253 -22.24873801 17.42300047 -22.31640625 19.63671875 C-22.35830078 20.93544922 -22.40019531 22.23417969 -22.44335938 23.57226562 C-22.48316987 24.94400761 -22.52288216 26.31575244 -22.5625 27.6875 C-22.60570835 29.07097645 -22.64932339 30.45444027 -22.69335938 31.83789062 C-22.79958028 35.22515719 -22.90162358 38.61249799 -23 42 C-25.64 42 -28.28 42 -31 42 C-31 27.48 -31 12.96 -31 -2 C-28.69 -2 -26.38 -2 -24 -2 C-23.67 -0.68 -23.34 0.64 -23 2 C-22.0925 1.360625 -21.185 0.72125 -20.25 0.0625 C-13.89202148 -3.97237099 -6.38306261 -4.25537507 0 0 Z " fill="#FEFEFE" transform="translate(395,34)"/>
<path d="M0 0 C1.65 0 3.3 0 5 0 C5 18.81 5 37.62 5 57 C-0.62434964 51.37565036 -0.62434964 51.37565036 -2.90234375 48.6953125 C-3.40056641 48.11136719 -3.89878906 47.52742188 -4.41210938 46.92578125 C-4.91548828 46.33152344 -5.41886719 45.73726562 -5.9375 45.125 C-6.43701172 44.53847656 -6.93652344 43.95195313 -7.45117188 43.34765625 C-8.45779833 42.16568196 -9.45834393 40.978501 -10.45263672 39.78613281 C-11.5202378 38.55379304 -12.63540454 37.3616417 -13.78564453 36.20605469 C-14.3526709 35.61985352 -14.91969727 35.03365234 -15.50390625 34.4296875 C-16.29196655 33.6560083 -16.29196655 33.6560083 -17.09594727 32.86669922 C-18 31 -18 31 -17.37109375 28.13232422 C-15.99817078 24.99582106 -14.45367953 22.30211972 -12.55859375 19.453125 C-11.89279297 18.44378906 -11.22699219 17.43445313 -10.54101562 16.39453125 C-9.84685547 15.35683594 -9.15269531 14.31914062 -8.4375 13.25 C-7.06046147 11.17236292 -5.68412291 9.09426169 -4.30859375 7.015625 C-3.69814209 6.10071289 -3.08769043 5.18580078 -2.45874023 4.24316406 C-0.99626751 2.08645324 -0.99626751 2.08645324 0 0 Z " fill="#F8FBFC" transform="translate(78,0)"/>
<path d="M0 0 C3.24810038 2.97831426 5.32032567 5.97758452 7.453125 9.82421875 C8.071875 10.93474609 8.690625 12.04527344 9.328125 13.18945312 C9.96234375 14.34380859 10.5965625 15.49816406 11.25 16.6875 C11.90567927 17.86555221 12.56192388 19.04328996 13.21875 20.22070312 C18 28.84402902 18 28.84402902 18 30 C6.45 30 -5.1 30 -17 30 C-14.64501405 24.11253513 -11.62696622 18.81691017 -8.5 13.3125 C-7.90574219 12.25482422 -7.31148437 11.19714844 -6.69921875 10.10742188 C-6.12816406 9.09873047 -5.55710937 8.09003906 -4.96875 7.05078125 C-4.18661133 5.66886597 -4.18661133 5.66886597 -3.38867188 4.2590332 C-2 2 -2 2 0 0 Z " fill="#01C08C" transform="translate(43,59)"/>
<path d="M0 0 C2.64 0 5.28 0 8 0 C8 22.44 8 44.88 8 68 C5.36 68 2.72 68 0 68 C0 45.56 0 23.12 0 0 Z " fill="#FFFFFF" transform="translate(270,8)"/>
<path d="M0 0 C3.595636 2.696727 6.55077612 5.21286982 9 9 C9.34287211 11.8545025 9.46989493 14.3040575 9.390625 17.14453125 C9.38496521 17.91431808 9.37930542 18.68410492 9.37347412 19.47721863 C9.35117872 21.92295943 9.30099875 24.3672061 9.25 26.8125 C9.229926 28.47589022 9.2116768 30.13930353 9.1953125 31.80273438 C9.15133684 35.86906058 9.08235979 39.93427744 9 44 C4.64468106 40.43995281 0.82190344 36.86678297 -2.6875 32.4375 C-3.41324219 31.52871094 -4.13898437 30.61992188 -4.88671875 29.68359375 C-5.58410156 28.79800781 -6.28148437 27.91242187 -7 27 C-8.93370462 24.5520497 -10.79446079 22.20553921 -13 20 C-11.02295803 16.85282661 -9.04301224 13.7074905 -7.0625 10.5625 C-6.49853516 9.66466797 -5.93457031 8.76683594 -5.35351562 7.84179688 C-4.54624023 6.56079102 -4.54624023 6.56079102 -3.72265625 5.25390625 C-3.22515869 4.46314697 -2.72766113 3.6723877 -2.21508789 2.85766602 C-1 1 -1 1 0 0 Z " fill="#144C4B" transform="translate(60,31)"/>
<path d="M0 0 C5.63492063 5.63492063 5.63492063 5.63492063 8.05078125 8.41796875 C8.58098877 9.02817871 9.11119629 9.63838867 9.6574707 10.26708984 C10.20363037 10.9008252 10.74979004 11.53456055 11.3125 12.1875 C11.8799292 12.84443848 12.4473584 13.50137695 13.03198242 14.17822266 C26 29.25628431 26 29.25628431 26 31 C17.42 31 8.84 31 0 31 C0 20.77 0 10.54 0 0 Z " fill="#01C08C" transform="translate(83,58)"/>
<path d="M0 0 C2.64 0 5.28 0 8 0 C8 14.52 8 29.04 8 44 C5.36 44 2.72 44 0 44 C0 29.48 0 14.96 0 0 Z " fill="#FFFFFF" transform="translate(341,32)"/>
<path d="M0 0 C2.60422824 2.35540436 4.17051437 4.81663666 5.86328125 7.8828125 C6.68953003 9.36974609 6.68953003 9.36974609 7.5324707 10.88671875 C8.11988037 11.95535156 8.70729004 13.02398437 9.3125 14.125 C10.56241153 16.37765326 11.81241435 18.63025586 13.0625 20.8828125 C13.71369693 22.06013549 14.36473698 23.23754526 15.015625 24.41503906 C18.26321517 30.28676227 21.53812001 36.14318448 24.8125 42 C25.41682861 43.08555176 26.02115723 44.17110352 26.64379883 45.28955078 C27.47947388 46.78591064 27.47947388 46.78591064 28.33203125 48.3125 C28.82421143 49.19550781 29.3163916 50.07851562 29.82348633 50.98828125 C30.84433947 52.92881076 30.84433947 52.92881076 32 54 C32.04092937 56.33297433 32.04241723 58.66705225 32 61 C29.58585878 58.79129901 28.09936078 56.62521238 26.57421875 53.73828125 C26.11394287 52.87775146 25.65366699 52.01722168 25.17944336 51.13061523 C24.68710205 50.20063721 24.19476074 49.27065918 23.6875 48.3125 C16.63478163 35.17465174 9.45870915 21.93756403 1.32836914 9.42797852 C-0.43934129 6.19697682 -0.21301054 3.62117913 0 0 Z " fill="#0579B8" transform="translate(83,14)"/>
<path d="M0 0 C3.3 0 6.6 0 10 0 C10 3.3 10 6.6 10 10 C6.7 10 3.4 10 0 10 C0 6.7 0 3.4 0 0 Z " fill="#FEFEFE" transform="translate(340,12)"/>
</svg>
