<?xml version="1.0" encoding="UTF-8"?>
<svg version="1.1" xmlns="http://www.w3.org/2000/svg" width="1000" height="1000">
<path d="M0 0 C1.44407996 -0.00134962 2.88815957 -0.00313519 4.33223853 -0.00531223 C8.28126135 -0.01001044 12.23026092 -0.00855097 16.17928483 -0.00603446 C20.48286316 -0.00439392 24.78643668 -0.00854839 29.09001344 -0.01194364 C36.62628554 -0.01708692 44.16255121 -0.0185167 51.69882488 -0.01748753 C62.90556526 -0.01596084 74.11229855 -0.02012818 85.31903754 -0.02536215 C106.49823985 -0.0350275 127.67743973 -0.03784606 148.85664398 -0.03841921 C165.20920784 -0.03887885 181.56177075 -0.0409377 197.9143343 -0.04411983 C202.62225467 -0.04501738 207.33017504 -0.04590719 212.03809541 -0.04679471 C213.79370087 -0.04712628 213.79370087 -0.04712628 215.5847731 -0.04746456 C248.49933808 -0.05361751 281.41390274 -0.05756523 314.32846832 -0.05712128 C315.56911011 -0.0571057 316.8097519 -0.05709012 318.0879889 -0.05707407 C324.37603399 -0.05699096 330.66407909 -0.05689192 336.95212419 -0.05678936 C338.82536099 -0.05675944 338.82536099 -0.05675944 340.73644095 -0.05672892 C343.26186526 -0.05668848 345.78728956 -0.05664669 348.31271386 -0.05660353 C387.62095487 -0.05599051 426.92918726 -0.06350267 466.2374258 -0.07717609 C510.40071039 -0.09253203 554.56398932 -0.10114266 598.72727674 -0.10021287 C603.43488276 -0.10013824 608.14248878 -0.10008953 612.8500948 -0.10005856 C614.58879403 -0.10004107 614.58879403 -0.10004107 616.3626185 -0.10002324 C635.02407778 -0.09999245 653.68552958 -0.10638088 672.34698663 -0.11499082 C691.09452323 -0.12346174 709.84204887 -0.1244616 728.58958632 -0.1178815 C739.72939353 -0.1141825 750.86916748 -0.1160287 762.00897117 -0.12582384 C769.44930967 -0.13181386 776.88962403 -0.13053927 784.32996141 -0.12335334 C788.56949049 -0.11946367 792.80895509 -0.11871971 797.04847968 -0.12681069 C800.90925033 -0.13411433 804.76990306 -0.13212398 808.63066855 -0.12288683 C810.66493317 -0.12036785 812.69920283 -0.12760887 814.73345444 -0.13530961 C834.08688842 -0.06041835 848.16407225 4.89467575 861.94811916 18.7809782 C869.41844583 27.08753546 876.43963058 38.8881527 876.44065583 50.41980523 C876.44441111 51.74394589 876.44441111 51.74394589 876.44824225 53.09483686 C876.44590108 54.06745036 876.44355991 55.04006386 876.4411478 56.0421505 C876.44260125 57.07747993 876.44405469 58.11280936 876.44555217 59.17951241 C876.44923059 62.68353817 876.4457172 66.18752093 876.44229031 69.69154644 C876.44344141 72.21536018 876.44502887 74.73917374 876.44701755 77.26298696 C876.45033457 82.76846965 876.45051443 88.27393894 876.44797039 93.77942181 C876.44419734 101.96678346 876.44611683 110.15413681 876.4491787 118.34149841 C876.45445373 132.96542125 876.45398414 147.58933973 876.45109979 162.21326299 C876.44858646 175.01884314 876.44792647 187.82442168 876.44912243 200.63000202 C876.44923701 201.90303508 876.44923701 201.90303508 876.4493539 203.20178599 C876.44966523 206.64683787 876.44998363 210.09188976 876.45031366 213.53694164 C876.4533755 245.88381215 876.45059536 278.23067989 876.44521677 310.57754997 C876.44047643 339.30413366 876.44089079 368.03071291 876.44567776 396.75729656 C876.45103675 429.02453009 876.4531528 461.29176116 876.45006549 493.55899507 C876.44974478 497.00188402 876.44943194 500.44477298 876.44912243 503.88766193 C876.44904335 504.73539806 876.44896427 505.58313419 876.4488828 506.45655929 C876.44774657 519.24382443 876.4490734 532.0310878 876.45160198 544.8183527 C876.45446549 559.3720383 876.45373763 573.92571885 876.44832124 588.47940382 C876.44539168 596.61890051 876.44518348 604.75838626 876.44896741 612.89788266 C876.45148438 618.98525499 876.44874086 625.07261326 876.44399284 631.15998475 C876.44287937 633.61574878 876.44343599 636.07151429 876.44586863 638.52727737 C876.4892643 685.99194124 876.4892643 685.99194124 858.34655666 705.21457195 C842.65349521 719.91019306 826.37683751 721.29171896 805.7795496 721.25447559 C804.35172644 721.25552114 802.92390354 721.25700417 801.49608123 721.25887996 C797.59217418 721.26275232 793.68829206 721.26045551 789.78438544 721.25710201 C785.52967086 721.2545556 781.27495997 721.25782906 777.02024591 721.26034534 C769.5696756 721.2639513 762.11911255 721.26385098 754.66854191 721.26129818 C743.58907992 721.25751235 732.50962404 721.2594512 721.43016209 721.26250649 C701.64053574 721.26777062 681.85091262 721.26731645 662.06128596 721.26442757 C644.74176785 721.26191171 627.42225092 721.26125546 610.10273266 721.26245022 C608.37925713 721.2625648 608.37925713 721.2625648 606.62096391 721.26268169 C601.95680639 721.26299303 597.29264887 721.26331143 592.62849135 721.26364145 C548.87561557 721.26670039 505.12274185 721.26392717 461.36986638 721.25854455 C422.5046735 721.25379959 383.63948389 721.25422306 344.77429104 721.25900555 C301.10429534 721.26436133 257.43430146 721.26648281 213.76430547 721.26339328 C209.10804105 721.26307257 204.45177662 721.26275973 199.7955122 721.26245022 C198.64903 721.26237114 197.5025478 721.26229206 196.32132372 721.26221059 C179.01478898 721.26107353 161.70825556 721.26240264 144.401721 721.26492977 C124.72016569 721.26778939 105.0386141 721.26707346 85.35705926 721.26164903 C74.34453409 721.25871392 63.33201702 721.25851938 52.31949207 721.2622952 C44.96016667 721.26453998 37.60084775 721.26313766 30.24152331 721.25879043 C26.05073994 721.25641552 21.85997262 721.25559029 17.66918977 721.25919642 C13.84915245 721.26244991 10.02914527 721.26102115 6.20911011 721.25601576 C4.20386738 721.25454953 2.19862283 721.25793107 0.19338286 721.26157004 C-18.888934 721.22246152 -33.75923231 719.5539652 -49.68469334 708.12863445 C-50.39238865 707.65297039 -51.10008396 707.17730633 -51.82922459 706.6872282 C-58.93374585 701.32030188 -62.90027244 693.01172005 -66.68469334 685.12863445 C-66.97908298 684.52519207 -67.27347263 683.92174969 -67.57678318 683.30002117 C-73.15710546 670.42105596 -70.82540332 653.31720717 -70.81167698 639.60873699 C-70.81283006 637.10302823 -70.81441884 634.59731963 -70.81640422 632.09161139 C-70.81970302 626.6567516 -70.81991458 621.22190542 -70.81735706 615.78704548 C-70.81356425 607.70501965 -70.81551368 599.62300217 -70.81856537 591.54097639 C-70.82382398 577.10391106 -70.82337756 562.66685016 -70.82048646 548.22978441 C-70.81796886 535.59550678 -70.81731515 522.96123077 -70.8185091 510.32695293 C-70.81862368 509.06885455 -70.81862368 509.06885455 -70.81874057 507.78534003 C-70.81905192 504.38047623 -70.81937032 500.97561243 -70.81970034 497.57074864 C-70.82275792 465.64394618 -70.81998812 433.71714654 -70.81460344 401.79034451 C-70.80985799 373.43809981 -70.81028263 345.08585959 -70.81506443 316.73361492 C-70.82042145 284.86443402 -70.82254106 252.99525561 -70.81945217 221.12607431 C-70.81913146 217.7274882 -70.81881862 214.32890209 -70.8185091 210.93031597 C-70.81843002 210.09352463 -70.81835095 209.2567333 -70.81826947 208.39458464 C-70.81713299 195.76962306 -70.81846044 183.14466329 -70.82098866 170.51970196 C-70.82384964 156.16160523 -70.82312938 141.80351362 -70.81770791 127.44541752 C-70.81477523 119.41410622 -70.81457475 111.38280601 -70.81835409 103.351495 C-70.82086613 97.35040497 -70.81813445 91.34932925 -70.81337951 85.34824008 C-70.81226382 82.9237837 -70.81282768 80.49932583 -70.8152553 78.07487041 C-70.83768773 53.80732363 -70.7897974 33.5305435 -52.68469334 15.12863445 C-48.28469334 11.12863445 -48.28469334 11.12863445 -44.68469334 11.12863445 C-44.68469334 10.46863445 -44.68469334 9.80863445 -44.68469334 9.12863445 C-42.79014509 8.1677631 -40.89399752 7.21004477 -38.99719334 6.25363445 C-37.94145115 5.71996258 -36.88570896 5.1862907 -35.79797459 4.63644695 C-24.47890828 -0.84556007 -12.3703116 -0.01940733 0 0 Z M-8.68469334 38.12863445 C-7.10773251 45.58765914 -0.44638822 50.40372601 4.80358791 55.5466032 C11.17348208 61.81058071 17.31595275 68.01229216 22.75280666 75.1247282 C24.74198207 77.67584566 26.99971834 79.87398267 29.31530666 82.12863445 C30.32505453 83.28687465 31.32444986 84.4541925 32.31530666 85.62863445 C34.12917081 87.77736583 35.94581105 89.75913884 37.94030666 91.75363445 C40.31530666 94.12863445 40.31530666 94.12863445 42.12780666 96.50363445 C44.03647409 98.79403536 45.8544768 100.48127837 48.12780666 102.37863445 C51.84485759 105.54296405 54.71107849 108.97790888 57.57702541 112.91769695 C59.64114342 115.54306951 61.92242484 117.79900061 64.31530666 120.12863445 C65.2720354 121.07163182 66.22773374 122.01567552 67.18249416 122.9606657 C67.67177395 123.44470867 68.16105373 123.92875164 68.66516018 124.42746258 C73.10027433 128.82920865 77.42655518 133.25393077 81.48327541 138.01144695 C83.83167593 140.72537676 86.25912406 143.36414776 88.69030666 146.00363445 C92.21745664 149.83423418 95.7192783 153.68436773 99.19030666 157.56613445 C102.14510475 160.85504399 105.14857167 164.04106784 108.31530666 167.12863445 C113.1232011 171.84512405 117.79285328 176.59518062 122.17858791 181.70675945 C125.71414375 185.71415364 129.39307013 189.58790399 133.04919338 193.48507977 C136.45406879 197.11948714 139.8185269 200.78142171 143.12780666 204.50363445 C146.0208643 207.7529268 149.01638547 210.83792737 152.12780666 213.87863445 C154.65293511 216.35537194 156.86142777 218.69995375 158.75280666 221.69113445 C159.26843166 222.49550945 159.78405666 223.29988445 160.31530666 224.12863445 C160.97530666 224.12863445 161.63530666 224.12863445 162.31530666 224.12863445 C162.31530666 224.78863445 162.31530666 225.44863445 162.31530666 226.12863445 C163.93993102 227.85807329 165.60333853 229.48783358 167.31530666 231.12863445 C168.81802159 232.6259146 170.31780874 234.12613654 171.81530666 235.62863445 C174.14735545 237.96836709 176.48415004 240.28924157 178.87780666 242.56613445 C181.92274424 245.76722268 184.57143547 249.21780299 187.25280666 252.7262907 C189.40613911 255.23443361 191.73620761 257.07271238 194.31530666 259.12863445 C195.50575547 260.55078135 196.65064306 262.01202273 197.75280666 263.50363445 C201.3294579 268.10024327 205.23553538 272.17669009 209.37780666 276.25363445 C214.24850646 281.04760011 218.90677702 285.90168966 223.31530666 291.12863445 C228.31232558 297.04426967 228.31232558 297.04426967 234.00280666 302.25363445 C236.63874796 304.39088415 238.17825344 306.69283888 240.07311916 309.4762907 C241.81879573 311.7983699 244.03603292 313.33777651 246.31530666 315.12863445 C248.01229326 316.95512792 249.62421412 318.84359122 251.24499416 320.73800945 C253.63529936 323.49813545 256.09302526 326.19223891 258.56530666 328.87863445 C259.2662344 329.64119549 259.2662344 329.64119549 259.98132229 330.4191618 C260.94294263 331.46484214 261.90485955 332.51024981 262.86706448 333.55539227 C265.22722377 336.11926052 267.58432814 338.68592447 269.94030666 341.25363445 C270.39454006 341.74839275 270.84877346 342.24315105 271.31677151 342.75290203 C274.2972694 346.00401327 277.24924422 349.27935109 280.19030666 352.56613445 C282.37567217 355.00291369 284.56270065 357.37602844 286.87780666 359.69113445 C289.85801262 362.67134041 292.60842513 365.82608474 295.39343166 368.98800945 C296.89957697 370.66558594 298.47113971 372.2844675 300.06530666 373.87863445 C302.31530666 376.12863445 302.31530666 376.12863445 304.06530666 378.50363445 C307.35914517 382.34644605 311.2422273 385.14891858 315.31530666 388.12863445 C316.23054104 388.80925945 317.14577541 389.48988445 318.08874416 390.19113445 C333.19006601 401.06098051 349.14686387 409.75202234 367.31530666 414.12863445 C368.90895046 414.52707561 368.90895046 414.52707561 370.53478909 414.93356609 C381.07638587 417.33019049 391.23437232 417.64356159 402.00280666 417.56613445 C402.88515987 417.56342541 403.76751308 417.56071636 404.67660427 417.55792522 C417.60663328 417.4976628 429.86351036 416.88719765 442.31530666 413.12863445 C443.6199171 412.77418402 444.92460365 412.4200136 446.22936916 412.06613445 C468.04220338 405.56292922 486.64299433 392.30420451 502.74499416 376.59958172 C504.14448207 375.28864972 505.63561021 374.07714617 507.13561916 372.8825407 C509.35716763 371.09495063 510.53791207 369.28880917 512.03015041 366.8903532 C514.26978684 363.8202133 517.06703455 361.29125081 519.80358791 358.66769695 C522.46764948 355.97463316 524.92832528 353.15742083 527.40832424 350.29611492 C530.68367843 346.57334005 534.09589685 342.98068182 537.50280666 339.37863445 C538.54984768 338.26681805 538.54984768 338.26681805 539.61804104 337.1325407 C544.90113774 331.5327598 544.90113774 331.5327598 547.47985744 329.01657391 C549.38399807 327.25000834 549.38399807 327.25000834 550.32702541 325.0934782 C551.54907083 322.66387803 553.03948962 321.42008528 555.12780666 319.69113445 C561.38290553 314.76783051 561.38290553 314.76783051 565.31530666 308.12863445 C566.67077541 306.83175945 566.67077541 306.83175945 568.50280666 305.37863445 C572.78271151 301.74884174 576.61127319 297.78338556 580.44030666 293.69113445 C581.02578274 293.07077312 581.61125881 292.4504118 582.21447659 291.81125164 C585.76168681 287.99279297 588.96490684 284.05185348 592.00036526 279.81418133 C593.80035874 277.50687442 596.00910378 275.91594169 598.31530666 274.12863445 C599.90135197 272.38604442 601.40887681 270.5913345 602.91686916 268.7809782 C604.60916777 266.78141868 606.46323222 264.98070889 608.31530666 263.12863445 C610.02201849 261.21571323 611.70361152 259.28205419 613.38561916 257.34738445 C615.39483704 255.03719062 617.41336018 252.73579084 619.44030666 250.44113445 C620.06163479 249.73601727 620.68296291 249.03090008 621.32311916 248.3044157 C624.349806 244.99879891 627.5534572 241.87946037 630.74499416 238.7341032 C635.11076403 234.41715185 639.34033619 230.06336184 643.33093166 225.3981657 C646.46272336 221.81633307 649.71714809 218.34790519 652.96520901 214.87155437 C655.39359963 212.26045474 657.76393803 209.62590802 660.03796291 206.87863445 C662.33045141 204.11034646 664.74442664 201.63972657 667.31530666 199.12863445 C672.56793692 193.98705346 677.52087167 188.69771615 682.31530666 183.12863445 C686.52739375 178.31943157 690.79412257 173.64981855 695.31530666 169.12863445 C695.97530666 168.30363445 696.63530666 167.47863445 697.31530666 166.62863445 C699.48084993 163.92170537 701.86458428 161.57935683 704.31530666 159.12863445 C705.32450988 157.96991965 706.32412562 156.80280277 707.31530666 155.62863445 C709.84064627 152.6370783 712.5465382 149.89740292 715.31530666 147.12863445 C716.65825147 145.46970263 717.99275354 143.80386841 719.31530666 142.12863445 C721.32361451 140.02548984 723.44456316 138.16048941 725.69030666 136.31613445 C728.41830035 133.99334485 730.76076443 131.57528114 733.00280666 128.7653532 C737.13856196 123.60796788 741.58003533 118.73929339 746.31530666 114.12863445 C749.76912384 110.7267978 753.07469461 107.23381536 756.31530666 103.62863445 C759.55665224 100.02263749 762.88456303 96.55391512 766.31530666 93.12863445 C767.74414135 91.57725373 769.16086368 90.01463075 770.56530666 88.44113445 C771.35163479 87.56328289 772.13796291 86.68543133 772.94811916 85.7809782 C774.42313667 84.12827706 775.89725496 82.47477239 777.36999416 80.8200407 C782.21744016 75.39638886 787.15462638 70.06178959 792.12780666 64.75363445 C793.09774563 63.7179533 793.09774563 63.7179533 794.08727932 62.6613493 C796.54425063 60.04549171 799.0018257 57.44156545 801.54186916 54.9059782 C803.41416097 53.0295624 805.14819199 51.07434478 806.87780666 49.06613445 C808.50431989 47.17879951 810.09039328 45.34028513 811.90515041 43.6325407 C813.49881241 41.93292887 814.3146478 40.2202392 815.31530666 38.12863445 C807.79903727 37.11750095 800.42588208 36.98855584 792.84793282 37.00279331 C791.48768015 37.00174888 790.12742777 37.00026667 788.767176 36.99838895 C785.03219805 36.99450063 781.297246 36.99682189 777.56226848 37.0001669 C773.49755559 37.00270554 769.43284665 36.99944289 765.36813432 36.99692357 C758.24481044 36.99331187 751.12149413 36.99342147 743.9981699 36.99597073 C733.40498617 36.99975145 722.81180885 36.99782031 712.21862517 36.99476242 C693.29665684 36.98949375 674.37469188 36.98995438 655.45272323 36.99284133 C638.88697729 36.99535636 622.32123258 36.99601385 605.75548649 36.99481869 C604.65686195 36.9947423 603.55823741 36.99466592 602.42632122 36.99458722 C597.96658473 36.99427588 593.50684824 36.99395748 589.04711174 36.99362745 C547.1943296 36.99056725 505.34154961 36.9933434 463.4887678 36.99872435 C426.32262921 37.00346644 389.15649405 37.00304852 351.99035549 36.99826336 C310.23098409 36.99290479 268.4716146 36.99078791 226.7122429 36.99387562 C222.25719535 36.99419633 217.80214781 36.99450917 213.34710026 36.99481869 C212.25016259 36.99489776 211.15322492 36.99497684 210.02304672 36.99505832 C193.47722366 36.99619452 176.93140198 36.99486779 160.38557911 36.99233913 C141.55862842 36.9894762 122.73168162 36.99020237 103.90473142 36.99561988 C93.3754053 36.99855001 82.84608764 36.99875678 72.31676175 36.9949737 C65.27299954 36.99272276 58.22924408 36.99414229 51.18548286 36.99847847 C47.17896518 37.00084499 43.17246423 37.00169639 39.1659471 36.99807249 C23.19079273 36.98462802 7.26223021 37.07117427 -8.68469334 38.12863445 Z M-33.68469334 71.12863445 C-33.70180756 126.24402069 -33.71772871 181.35940717 -33.72703648 236.47479534 C-33.72717453 237.29020504 -33.72731259 238.10561473 -33.72745483 238.94573381 C-33.73044757 256.66574816 -33.73321778 274.38576255 -33.73575867 292.10577697 C-33.73700603 300.79536229 -33.73830258 309.48494759 -33.73962498 318.17453289 C-33.73975574 319.03926226 -33.7398865 319.90399162 -33.74002122 320.79492491 C-33.74428441 348.83553497 -33.75179709 376.87614301 -33.76099056 404.91675186 C-33.77041899 433.72628332 -33.77657781 462.53581366 -33.77860833 491.34534664 C-33.77889649 495.41222744 -33.77922213 499.47910824 -33.77957058 503.54598904 C-33.779638 504.34642863 -33.77970543 505.14686822 -33.77977489 505.97156355 C-33.78095772 518.8690254 -33.78559879 531.76648381 -33.79152537 544.66394425 C-33.79740655 557.62260864 -33.79966283 570.58126962 -33.79819471 583.53993531 C-33.79743274 591.24382887 -33.79947433 598.94770994 -33.80549088 606.65160125 C-33.80967235 612.39706584 -33.80866002 618.14252 -33.80559223 623.88798486 C-33.8051679 626.21782082 -33.80645204 628.54765782 -33.80957652 630.87749173 C-33.8135654 634.03431212 -33.81144102 637.19107054 -33.80774117 640.3478899 C-33.81036818 641.26104383 -33.81299519 642.17419776 -33.81570181 643.11502302 C-33.80383502 647.5687543 -33.58826993 651.7444483 -32.68469334 656.12863445 C-28.12230971 652.3266481 -23.88552436 648.36661795 -19.72375584 644.1325407 C-17.75732867 642.20001745 -15.72489764 640.41065606 -13.62219334 638.62863445 C-10.14315298 635.64757438 -7.22346867 632.38885905 -4.26672459 628.8981657 C-2.28480697 626.68135415 -0.00436019 624.98436794 2.31530666 623.12863445 C3.50050544 621.81174693 4.66557382 620.47659709 5.81530666 619.12863445 C8.44106362 616.05016078 11.15396324 613.65770919 14.31530666 611.12863445 C15.30956263 610.01395949 16.28358133 608.88113261 17.24499416 607.73800945 C21.72532853 602.56353878 26.54867055 597.74483346 31.39538479 592.91818523 C32.94799422 591.37097363 34.49513627 589.81843718 36.04186916 588.2653532 C37.04154842 587.26633423 38.04153755 586.26762521 39.04186916 585.26925945 C40.38112453 583.93169598 40.38112453 583.93169598 41.74743557 582.56711102 C44.17262965 580.264122 46.68816532 578.19445468 49.31530666 576.12863445 C50.32896459 575.03460979 51.30936724 573.90875973 52.25280666 572.75363445 C57.38493592 566.73782731 63.09204272 561.2678863 68.71423244 555.71579266 C70.17381164 554.26889965 71.62029024 552.80882152 73.06530666 551.34738445 C75.31530666 549.12863445 75.31530666 549.12863445 78.19030666 546.81613445 C81.41535439 544.19630134 83.97698674 541.12464714 86.66296291 537.9684782 C88.6746425 535.72852292 90.96657817 534.00761725 93.31530666 532.12863445 C94.25579997 531.06914216 95.17624745 529.99177266 96.08508205 528.90500164 C101.89633941 522.19856849 108.24319629 515.99432051 114.49890041 509.70675945 C115.17754713 509.02403721 115.85619385 508.34131496 116.55540562 507.63790417 C120.14079972 504.03176965 123.72937522 500.42883499 127.32043362 496.82834148 C131.01513307 493.12253797 134.69799546 489.40519472 138.3784008 485.6852026 C141.22599495 482.81142719 144.08247424 479.94660817 146.94139194 477.08410168 C148.30304454 475.71759562 149.66133329 474.34772863 151.0160799 472.97437572 C152.91302574 471.05298289 154.82232177 469.14471698 156.7349844 467.23898602 C157.2843214 466.67683895 157.83365841 466.11469189 158.39964199 465.53551006 C162.78222401 461.21024142 167.69260685 457.84639245 173.81921291 456.6325407 C180.35698234 456.81862522 185.08830296 458.24052262 190.19030666 462.56613445 C193.08900499 466.06162361 193.47022414 468.98017933 193.56530666 473.44113445 C193.60397854 474.51814617 193.60397854 474.51814617 193.64343166 475.6169157 C192.68639425 482.94280927 188.71523162 487.30231529 183.64822292 492.27673626 C182.96723423 492.96114265 182.28624554 493.64554904 181.58462083 494.35069501 C179.30713728 496.63475119 177.01568259 498.90424387 174.72399807 501.17404461 C173.08550962 502.81140441 171.44790218 504.44964623 169.8111105 506.0887022 C165.36752729 510.53343323 160.91171557 514.96571987 156.45362425 519.39589262 C151.78963531 524.03485958 147.13698732 528.68517255 142.48312283 533.33429241 C134.66668726 541.14037204 126.8426429 548.93876745 119.01354885 556.73215008 C110.96363523 564.74538349 102.91790404 572.76277795 94.87780666 580.78586102 C94.38259359 581.2800232 93.88738051 581.77418538 93.37716098 582.28332217 C90.89201917 584.7632424 88.4069605 587.24324593 85.9219439 589.72329164 C68.7909112 606.81988952 51.65109455 623.90765256 34.50212002 640.98625469 C33.77852712 641.70688921 33.05493422 642.42752373 32.30941427 643.16999567 C30.97888062 644.49504025 29.64829296 645.82003058 28.31763709 647.14495242 C25.7171195 649.73459412 23.11820657 652.32575582 20.52325916 654.92098331 C18.29737378 657.14656489 16.05623973 659.35577882 13.81140041 661.5622282 C12.12507402 663.23006707 10.43887964 664.89803941 8.75280666 666.56613445 C7.90266994 667.39951336 7.05253323 668.23289227 6.17663479 669.09152508 C0.10459908 675.10789965 0.10459908 675.10789965 -4.68469334 682.12863445 C-4.68469334 682.78863445 -4.68469334 683.44863445 -4.68469334 684.12863445 C67.65177764 684.14579921 139.98824887 684.16169515 212.32472134 684.17097759 C213.3978155 684.17111565 214.47090966 684.17125371 215.57652182 684.17139595 C238.90592271 684.17438987 262.23532362 684.17715991 285.56472456 684.17969978 C297.00787107 684.18094696 308.45101758 684.18224354 319.89416409 684.18356609 C321.03280639 684.18369685 322.1714487 684.18382761 323.34459533 684.18396233 C360.15448295 684.1882126 396.96436903 684.19571556 433.77425573 684.20493167 C471.64727873 684.2143966 509.52030088 684.22052735 547.39332505 684.22254944 C552.76051821 684.22283754 558.12771136 684.22316317 563.49490452 684.2235117 C564.55109406 684.22357912 565.6072836 684.22364654 566.69547888 684.22371601 C583.59760793 684.22489104 600.49973431 684.22951083 617.40186227 684.23546649 C634.45450847 684.24139993 651.50715206 684.24359102 668.55979925 684.24213583 C677.77475995 684.24144901 686.98971355 684.24230761 696.20467281 684.24783993 C734.25442954 684.26985801 772.27612708 684.16793071 810.31530666 683.12863445 C808.4699673 679.98569867 806.75688628 677.32816771 804.13561916 674.7887907 C803.5362051 674.20033367 802.93679104 673.61187664 802.31921291 673.00558758 C801.69917385 672.40681805 801.07913479 671.80804852 800.44030666 671.19113445 C793.51693465 664.46453196 793.51693465 664.46453196 790.62390041 660.90988445 C788.61744072 658.49262675 786.66525513 656.55652434 784.25280666 654.56613445 C781.20067065 651.97124728 778.7902881 649.28636939 776.31530666 646.12863445 C775.53155666 645.50988445 774.74780666 644.89113445 773.94030666 644.25363445 C771.76495788 642.49263782 770.25553406 640.94885695 768.50280666 638.81613445 C766.3375685 636.20901095 764.09568575 633.99744543 761.50280666 631.81613445 C758.34712231 629.1404021 755.60706072 626.30077235 752.87780666 623.19113445 C749.2876852 619.10582382 745.48509263 615.54135661 741.36999416 611.99582195 C738.94053272 609.78806041 736.92361119 607.3841433 734.84655666 604.8512907 C732.56117471 602.28023601 729.97495055 600.10911296 727.34265041 597.90207195 C724.88615043 595.75322611 722.6138174 593.44302485 720.31530666 591.12863445 C718.89813377 589.70588277 717.48079941 588.28329191 716.06335354 586.86081219 C715.25901882 586.05324978 714.4546841 585.24568737 713.62597561 584.41365337 C710.46092953 581.23699905 707.29402587 578.06220126 704.12650204 574.88801765 C701.72798533 572.48427172 699.33042002 570.07959199 696.93493557 567.67282391 C694.15826745 564.88316937 691.37751694 562.09760424 688.59655666 559.3122282 C687.74122341 558.45173367 686.88589016 557.59123913 686.00463772 556.704669 C685.200303 555.90025875 684.39596828 555.0958485 683.56725979 554.26706219 C682.86508327 553.56266506 682.16290676 552.85826794 681.43945217 552.13252544 C679.29263299 550.05018017 679.29263299 550.05018017 676.70580959 548.05748272 C673.80986444 545.72080339 671.69420303 542.98331009 669.31530666 540.12863445 C668.53155666 539.50988445 667.74780666 538.89113445 666.94030666 538.25363445 C664.69837144 536.43873451 663.08877649 534.77384353 661.24572659 532.58981609 C657.00178817 527.68854597 652.42535079 523.16708227 647.80358791 518.6247282 C645.97582638 516.81447164 644.1483612 515.00391582 642.32116604 513.19308758 C639.46724108 510.37017017 636.61155721 507.54915186 633.74963284 504.73434734 C630.96783629 501.99763256 628.19823784 499.24873618 625.42858791 496.4997282 C624.57436749 495.66412868 623.72014706 494.82852917 622.84004116 493.96760845 C616.66184702 487.81615923 611.8331832 482.3340539 611.22155666 473.3278532 C611.47767679 467.31970199 614.65678028 463.3427381 618.71765041 459.29269695 C621.98918577 456.9090355 625.68725751 456.92203323 629.62780666 456.81613445 C630.53143948 456.77875164 631.43507229 456.74136883 632.36608791 456.7028532 C640.12167149 457.82253348 645.29728854 463.68945756 650.55331326 469.01260662 C651.35488137 469.81231703 652.15644949 470.61202744 652.98230755 471.4359715 C655.6602186 474.11128757 658.32727469 476.79716605 660.99450588 479.48312664 C662.91358247 481.40636631 664.83493515 483.32732621 666.75620937 485.24837017 C670.88834822 489.38234339 675.0150238 493.52170537 679.13805676 497.66475964 C685.09980425 503.65535364 691.07033216 509.63713406 697.04311301 515.61672524 C706.73490355 525.31994969 716.420343 535.02948713 726.10143948 544.74338055 C735.50252591 554.17627459 744.90535491 563.60742341 754.31140041 573.03537273 C754.89146008 573.61678598 755.47151975 574.19819922 756.06915699 574.79723105 C762.39687342 581.13957702 768.72528844 587.48122528 775.05453587 593.82204342 C775.61010118 594.37862712 776.1656665 594.93521082 776.73806713 595.50866069 C778.95834873 597.73299341 781.17863779 599.95731869 783.39901651 602.18155447 C789.90761283 608.7014924 796.41400112 615.22361572 802.91647561 621.74965939 C806.99000326 625.83785181 811.06511906 629.9244561 815.14150696 634.00979653 C817.49635439 636.36998277 819.85003428 638.73130543 822.20210361 641.09426212 C824.7455508 643.64929856 827.29198409 646.20132039 829.83920193 648.75259686 C830.59024917 649.50860329 831.3412964 650.26460973 832.11510265 651.04352546 C832.79203894 651.7203208 833.46897524 652.39711614 834.16642475 653.09442043 C834.75461424 653.68461586 835.34280372 654.27481128 835.94881713 654.88289142 C837.13029051 656.2409182 837.13029051 656.2409182 838.31530666 656.12863445 C839.11822495 623.38585857 839.463985 590.66409732 839.44603133 557.91201317 C839.44371632 551.62685334 839.44728607 545.34169597 839.45001125 539.05653667 C839.45415047 527.52849734 839.45386435 516.00046476 839.45109979 504.47242528 C839.44856109 493.83170409 839.44793819 483.19098484 839.44912243 472.5502634 C839.44919881 471.83811626 839.4492752 471.12596912 839.4493539 470.39224176 C839.44966533 467.50007987 839.44998375 464.60791799 839.45031366 461.7157561 C839.45335327 434.74719638 839.45062843 407.77864002 839.44521677 380.81008081 C839.44045729 356.90950901 839.44091139 333.00894254 839.44567776 309.10837078 C839.45103919 282.1350636 839.45315333 255.16175935 839.45006549 228.18845171 C839.44974484 225.3118734 839.449432 222.43529509 839.44912243 219.55871677 C839.44904335 218.85063696 839.44896427 218.14255714 839.4488828 217.41302036 C839.44774972 206.76386799 839.44906703 196.11471776 839.45160198 185.46556568 C839.45446718 173.37022807 839.45363712 161.27489811 839.44832124 149.17956073 C839.44570189 143.01815088 839.44464933 136.85675183 839.44797039 130.69534206 C839.45096891 125.0470066 839.44928187 119.39869188 839.44399284 113.75035828 C839.44288394 111.71719599 839.44342553 109.68403193 839.44586863 107.65087081 C839.4594069 95.43985079 839.13594846 83.31322226 838.31530666 71.12863445 C833.74360633 74.0527619 830.69866246 76.87775152 827.31530666 81.12863445 C825.66402579 82.81054617 823.99536934 84.47547234 822.31530666 86.12863445 C815.0867197 93.26126672 808.14357901 100.4686366 801.69030666 108.31613445 C799.3532309 111.08372417 796.87648254 113.56745857 794.31530666 116.12863445 C791.98389251 118.56937758 789.68002889 121.03537467 787.37780666 123.50363445 C786.78290432 124.1378532 786.18800198 124.77207195 785.57507229 125.42550945 C782.70998612 128.49412633 779.89907499 131.5881495 777.18640041 134.79269695 C774.69736325 137.72330424 772.07469545 140.44734158 769.31530666 143.12863445 C762.57560699 149.69890034 756.16146138 156.23267958 750.35046291 163.6559782 C748.15024636 166.32917797 745.79669888 168.71501926 743.31530666 171.12863445 C738.00199018 176.29704231 732.82162688 181.34268411 728.25280666 187.19113445 C723.27358986 193.46259809 717.59044585 198.98766012 711.87365627 204.58395672 C707.11732546 209.25372448 702.6490503 214.06634962 698.31530666 219.12863445 C696.84050057 220.77837636 695.3619958 222.42482888 693.87780666 224.06613445 C686.7557796 231.95091243 686.7557796 231.95091243 679.75280666 239.94113445 C675.60903718 244.74790706 671.31840105 249.41394774 667.00280666 254.06613445 C666.06767239 255.07957928 666.06767239 255.07957928 665.11364651 256.11349773 C664.22926907 257.06265057 664.22926907 257.06265057 663.32702541 258.0309782 C662.79552883 258.60324139 662.26403225 259.17550457 661.71642971 259.76510906 C660.31530666 261.12863445 660.31530666 261.12863445 658.31530666 262.12863445 C658.31530666 262.78863445 658.31530666 263.44863445 658.31530666 264.12863445 C657.65530666 264.12863445 656.99530666 264.12863445 656.31530666 264.12863445 C655.41053373 265.51494524 654.50915566 266.90355929 653.62243557 268.30148602 C651.02802254 271.9280432 647.69488511 274.90882156 644.50280666 278.00363445 C639.8219475 282.56582394 635.31831537 287.17681602 631.05480862 292.13302898 C627.46935684 296.24635991 623.67271742 300.16782144 619.92077541 304.12863445 C615.60650667 308.70193797 611.42415256 313.37012177 607.31530666 318.12863445 C602.8038223 323.34017673 598.21976437 328.32869322 593.25280666 333.1169157 C588.71762024 337.55251188 584.73237233 342.0725469 580.92858791 347.14425945 C578.71418178 349.86803261 576.00762989 351.88503176 573.31530666 354.12863445 C571.536008 356.30848613 569.85746117 358.5513518 568.16686916 360.80050945 C565.75330485 363.83528653 563.05146213 366.47472262 560.27624416 369.17550945 C557.79438831 371.64747744 555.52267582 374.26526566 553.23718166 376.91769695 C550.92161496 379.58153995 548.5603591 382.20066238 546.19030666 384.81613445 C545.38335354 385.70687664 544.57640041 386.59761883 543.74499416 387.5153532 C540.15156365 391.38031303 536.48944424 395.0556522 532.44030666 398.44113445 C529.74115418 400.76540465 527.42981537 403.11318052 525.19030666 405.87863445 C520.06301648 411.88754014 513.65473114 416.48333819 507.31530666 421.12863445 C506.7271719 421.55966473 506.13903713 421.990695 505.5330801 422.4347868 C466.53481506 450.58333997 418.45223454 459.23132369 371.31530666 452.12863445 C365.87272598 451.18756161 360.59173586 449.74508036 355.31530666 448.12863445 C353.94753078 447.71436199 353.94753078 447.71436199 352.55212307 447.29172039 C339.563816 443.30280212 327.09806295 438.94677828 315.31530666 432.12863445 C314.56442776 431.69567059 313.81354885 431.26270672 313.03991604 430.81662273 C299.18215578 422.7046942 287.18515077 413.21043055 275.9693594 401.74142742 C274.26202741 400.07668423 272.47742923 398.56994466 270.62780666 397.06613445 C266.33723544 393.36850205 262.80743059 389.15209581 259.17785549 384.82590008 C254.64238312 379.44104837 249.88179827 374.29667705 245.03552151 369.19113445 C241.96368986 365.94435315 239.07609935 362.64973574 236.31530666 359.12863445 C234.67227713 357.43866122 233.00059354 355.77647051 231.31530666 354.12863445 C226.42306875 349.32852908 221.65970632 344.49380528 217.19421291 339.29269695 C214.94249785 336.69924551 212.63135949 334.1647647 210.31530666 331.62863445 C207.39773752 328.43341144 204.51248163 325.22078527 201.69030666 321.94113445 C198.78043361 318.58726669 195.6964811 315.46218218 192.50280666 312.37863445 C189.95042804 309.75333073 187.57206322 307.00206771 185.17126369 304.23849773 C182.27302271 300.94375969 179.26516976 297.75626446 176.25280666 294.56613445 C174.93767195 293.16642357 173.62256855 291.76668326 172.30749416 290.3669157 C169.71301494 287.61004457 167.1131748 284.85834834 164.51061916 282.1091032 C158.70954185 275.96202646 153.10039573 269.80666648 147.90515041 263.12863445 C145.88497563 260.58728435 143.66794782 258.36364356 141.31530666 256.12863445 C140.01893381 254.86260224 138.72775009 253.59124604 137.44030666 252.31613445 C136.82413479 251.71156414 136.20796291 251.10699383 135.57311916 250.4841032 C133.00702233 247.80701602 130.59051999 245.02132989 128.1580801 242.22311687 C125.30290415 238.97794537 122.34421328 235.8344 119.37780666 232.69113445 C118.7381094 232.01083172 118.09841213 231.33052898 117.4393301 230.62961102 C114.70965719 227.72759354 111.97608523 224.82926209 109.24255276 221.93088055 C101.82483728 214.06561966 94.42781621 206.18837959 87.13952541 198.2028532 C81.26278774 191.78514291 75.27465427 185.46947568 69.31530666 179.12863445 C41.00503401 148.99510902 41.00503401 148.99510902 32.69421291 139.22238445 C28.11729507 133.86618324 23.18757705 128.91220508 18.18249416 123.9606657 C17.45787991 123.24354412 17.45787991 123.24354412 16.71862698 122.51193523 C15.41476493 121.22667387 14.10360895 119.94882352 12.79186916 118.6716032 C9.46601615 115.25657116 6.45978385 111.61398366 3.42077541 107.9450407 C0.53793926 104.49375798 -2.45500234 101.26634058 -5.68469334 98.12863445 C-11.2487902 92.72102782 -16.29412534 87.52631924 -20.68469334 81.12863445 C-24.09395515 77.45712173 -27.7347627 74.20080272 -31.68469334 71.12863445 C-32.34469334 71.12863445 -33.00469334 71.12863445 -33.68469334 71.12863445 Z " fill="#0A7769" transform="translate(96.68469333648682,139.87136554718018)"/>
</svg>
