<?xml version="1.0" encoding="UTF-8"?>
<svg version="1.1" xmlns="http://www.w3.org/2000/svg" width="102" height="80">
<path d="M0 0 C1.04465927 -0.0159874 2.08931854 -0.03197479 3.16563416 -0.04844666 C4.85010399 -0.05649071 4.85010399 -0.05649071 6.56860352 -0.06469727 C7.72747574 -0.07372574 8.88634796 -0.08275421 10.08033752 -0.09205627 C12.53058284 -0.10656014 14.98086689 -0.11544584 17.43115234 -0.11914062 C21.18010551 -0.13104824 24.92741902 -0.18024567 28.67602539 -0.23071289 C31.05687673 -0.24017577 33.43773818 -0.24741145 35.81860352 -0.25219727 C36.93955917 -0.27172958 38.06051483 -0.2912619 39.21543884 -0.31138611 C47.87854808 -0.26113659 47.87854808 -0.26113659 51.00634766 2.64599609 C52.76000977 5.30639648 52.76000977 5.30639648 52.76000977 8.43139648 C51.24664078 12.78233231 51.24664078 12.78233231 48.76000977 14.30639648 C42.44952387 15.33290338 36.22249742 15.49626935 29.83813477 15.54467773 C28.81572693 15.55274948 27.79331909 15.56082123 26.7399292 15.56913757 C24.59185443 15.58289571 22.44375857 15.59365438 20.2956543 15.6015625 C18.09799805 15.61315661 15.90037153 15.63372334 13.70288086 15.66308594 C10.51860536 15.70557776 7.3351578 15.72189767 4.15063477 15.73217773 C3.16830872 15.74968582 2.18598267 15.76719391 1.17388916 15.78523254 C-5.60578454 15.7635521 -5.60578454 15.7635521 -8.8347168 13.43603516 C-10.47867324 10.94468143 -11.09076118 9.29097747 -11.23999023 6.30639648 C-10.42940738 3.72726923 -9.78496562 2.64624481 -7.48545837 1.21226501 C-4.84967672 0.1489359 -2.83980255 0.03292909 0 0 Z " fill="#088771" transform="translate(40.239990234375,33.693603515625)"/>
<path d="M0 0 C1.08792847 -0.01260864 2.17585693 -0.02521729 3.29675293 -0.03820801 C5.05154968 -0.02606262 5.05154968 -0.02606262 6.84179688 -0.01367188 C8.65025085 -0.01941223 8.65025085 -0.01941223 10.49523926 -0.02526855 C13.04387243 -0.02799013 15.59253341 -0.02061193 18.14111328 -0.00390625 C22.0458799 0.01749773 25.94880635 -0.00370191 29.85351562 -0.02929688 C32.32878011 -0.02665365 34.80404345 -0.02152877 37.27929688 -0.01367188 C38.44916138 -0.0217688 39.61902588 -0.02986572 40.82434082 -0.03820801 C41.91226929 -0.02559937 43.00019775 -0.01299072 44.12109375 0 C45.55527649 0.00477356 45.55527649 0.00477356 47.01843262 0.00964355 C50.31348921 0.66802197 51.50969173 1.90423654 53.56054688 4.51757812 C54.06054688 7.51757812 54.06054688 7.51757812 53.56054688 10.51757812 C51.50969173 13.13091971 50.31348921 14.36713428 47.01843262 15.0255127 C46.06231079 15.02869507 45.10618896 15.03187744 44.12109375 15.03515625 C43.03316528 15.04776489 41.94523682 15.06037354 40.82434082 15.07336426 C39.65447632 15.06526733 38.48461182 15.05717041 37.27929688 15.04882812 C35.4708429 15.05456848 35.4708429 15.05456848 33.62585449 15.0604248 C31.07722132 15.06314638 28.52856034 15.05576818 25.97998047 15.0390625 C22.07521385 15.01765852 18.1722874 15.03885816 14.26757812 15.06445312 C11.79231364 15.0618099 9.3170503 15.05668502 6.84179688 15.04882812 C5.08700012 15.06097351 5.08700012 15.06097351 3.29675293 15.07336426 C2.20882446 15.06075562 1.120896 15.04814697 0 15.03515625 C-1.43418274 15.03038269 -1.43418274 15.03038269 -2.89733887 15.0255127 C-6.19239546 14.36713428 -7.38859798 13.13091971 -9.43945312 10.51757812 C-9.93945312 7.51757812 -9.93945312 7.51757812 -9.43945312 4.51757812 C-6.53635016 0.81824339 -4.6507582 0.01547967 0 0 Z " fill="#097F6D" transform="translate(38.439453125,14.482421875)"/>
<path d="M0 0 C1.57183044 -0.01902626 1.57183044 -0.01902626 3.17541504 -0.03843689 C4.30153198 -0.03550125 5.42764893 -0.03256561 6.58789062 -0.02954102 C8.32975647 -0.03740379 8.32975647 -0.03740379 10.10681152 -0.04542542 C12.56127116 -0.05184709 15.01576157 -0.05050679 17.47021484 -0.04199219 C21.23004792 -0.03347917 24.98836379 -0.06224921 28.74804688 -0.09399414 C31.132161 -0.09560611 33.51627782 -0.0950287 35.90039062 -0.09204102 C37.02650757 -0.10327499 38.15262451 -0.11450897 39.31286621 -0.12608337 C40.36075317 -0.11670242 41.40864014 -0.10732147 42.48828125 -0.09765625 C43.86916931 -0.097407 43.86916931 -0.097407 45.2779541 -0.09715271 C48.53455646 0.5646897 49.72975039 1.80575059 51.74414062 4.40405273 C52.4766238 10.36855858 52.4766238 10.36855858 50.54966736 13.09265137 C48.09344813 14.87666774 46.44078225 14.79742086 43.41821289 14.82397461 C42.33020889 14.83988647 41.2422049 14.85579834 40.12123108 14.87219238 C38.94620529 14.8723938 37.7711795 14.87259521 36.56054688 14.87280273 C35.35349594 14.88041626 34.14644501 14.88802979 32.90281677 14.89587402 C30.3482368 14.90668737 27.79361258 14.90952316 25.23901367 14.9050293 C21.32526074 14.90405736 17.41346951 14.94566171 13.5 14.98999023 C11.02018639 14.99519721 8.54036595 14.99788543 6.06054688 14.99780273 C4.30104454 15.02239563 4.30104454 15.02239563 2.5059967 15.04748535 C-5.5763587 14.97855873 -5.5763587 14.97855873 -9.02563477 12.06225586 C-10.61546146 8.6270439 -10.49347822 6.96220691 -9.25585938 3.40405273 C-6.23948991 0.52610607 -4.11252541 0.02413655 0 0 Z " fill="#08836F" transform="translate(39.255859375,53.595947265625)"/>
<path d="M0 0 C2.375 1.5625 2.375 1.5625 4 4 C4.72003094 9.86310905 4.72003094 9.86310905 2.8125 12.875 C0.42957957 14.35405406 -1.18417448 14.86591307 -4 15 C-8.59701493 12.80597015 -8.59701493 12.80597015 -10 10 C-10.38932198 6.4182378 -10.43596718 4.63718279 -8.375 1.625 C-5.28813568 -0.48706506 -3.6717087 -0.61195145 0 0 Z " fill="#03A982" transform="translate(18,34)"/>
<path d="M0 0 C2 2 2 2 2.375 5.375 C2 9 2 9 0.4375 11.5 C-2 13 -2 13 -5.5625 12.9375 C-10.47761194 11.59701493 -10.47761194 11.59701493 -12 9 C-12.43490509 5.59324344 -12.39345822 3.6932359 -10.6875 0.6875 C-7.05393192 -2.94606808 -4.349819 -1.75843747 0 0 Z " fill="#01BA8A" transform="translate(20,16)"/>
<path d="M0 0 C2.375 1.625 2.375 1.625 4 4 C4.61195145 7.6717087 4.48706506 9.28813568 2.375 12.375 C-0.71186432 14.48706506 -2.3282913 14.61195145 -6 14 C-8.375 12.375 -8.375 12.375 -10 10 C-10.61195145 6.3282913 -10.48706506 4.71186432 -8.375 1.625 C-5.28813568 -0.48706506 -3.6717087 -0.61195145 0 0 Z " fill="#069477" transform="translate(18,54)"/>
<path d="M0 0 C5.875 0.875 5.875 0.875 7 2 C7.1875 5.4375 7.1875 5.4375 7 9 C5 11 5 11 2.375 11.125 C1.59125 11.08375 0.8075 11.0425 0 11 C-1.125 3.375 -1.125 3.375 0 0 Z " fill="#0A7267" transform="translate(15,36)"/>
<path d="M0 0 C2.20914 3.31371 2.22481553 4.3446021 2.125 8.1875 C2.10695313 9.08855469 2.08890625 9.98960938 2.0703125 10.91796875 C2.03550781 11.94857422 2.03550781 11.94857422 2 13 C3.32 13.33 4.64 13.66 6 14 C2.46322336 14.32152515 0.6037896 14.4131192 -2.375 12.375 C-4.48706506 9.28813568 -4.61195145 7.6717087 -4 4 C-2 1.625 -2 1.625 0 0 Z " fill="#03AE83" transform="translate(12,54)"/>
<path d="M0 0 C2.125 0.375 2.125 0.375 4 1 C4.36426713 7.43538595 4.36426713 7.43538595 2.75 9.9375 C1 11 1 11 -3 11 C-2.88590407 9.54077307 -2.75834456 8.08259402 -2.625 6.625 C-2.55539062 5.81289063 -2.48578125 5.00078125 -2.4140625 4.1640625 C-2 2 -2 2 0 0 Z " fill="#069779" transform="translate(18,17)"/>
<path d="M0 0 C1.32 0.33 2.64 0.66 4 1 C3.01 1.66 2.02 2.32 1 3 C0.20562077 5.18505129 0.20562077 5.18505129 -0.1875 7.625 C-0.34605469 8.44226562 -0.50460938 9.25953125 -0.66796875 10.1015625 C-0.77753906 10.72804688 -0.88710937 11.35453125 -1 12 C-0.01 12.33 0.98 12.66 2 13 C-0.31 12.67 -2.62 12.34 -5 12 C-5.875 9.9375 -5.875 9.9375 -6 7 C-4.26080867 4.40994275 -2.19602066 2.20875121 0 0 Z " fill="#03AB82" transform="translate(16,16)"/>
<path d="M0 0 C1.4540625 0.0309375 1.4540625 0.0309375 2.9375 0.0625 C2.9375 1.0525 2.9375 2.0425 2.9375 3.0625 C2.6075 2.4025 2.2775 1.7425 1.9375 1.0625 C0.9475 1.0625 -0.0425 1.0625 -1.0625 1.0625 C-1.3925 4.6925 -1.7225 8.3225 -2.0625 12.0625 C-2.7225 12.0625 -3.3825 12.0625 -4.0625 12.0625 C-4.08937279 10.25007948 -4.10883715 8.43754767 -4.125 6.625 C-4.13660156 5.61566406 -4.14820313 4.60632812 -4.16015625 3.56640625 C-4.01596662 -0.13061575 -3.76355726 0.07680729 0 0 Z " fill="#078A72" transform="translate(16.0625,34.9375)"/>
<path d="M0 0 C2.475 0.99 2.475 0.99 5 2 C5 3.98 5 5.96 5 8 C4.67 7.34 4.34 6.68 4 6 C2.68 6.99 1.36 7.98 0 9 C0 6.03 0 3.06 0 0 Z " fill="#0C605E" transform="translate(17,36)"/>
<path d="M0 0 C0.125 5.75 0.125 5.75 -1 8 C-2.32 8 -3.64 8 -5 8 C-3.91891892 0 -3.91891892 0 0 0 Z " fill="#078A72" transform="translate(22,19)"/>
<path d="M0 0 C1.98 0.99 1.98 0.99 4 2 C4 3.98 4 5.96 4 8 C3.01 8.33 2.02 8.66 1 9 C-0.4783226 6.04335481 -0.06032783 3.25770263 0 0 Z " fill="#09796A" transform="translate(18,56)"/>
</svg>
