<?xml version="1.0" encoding="UTF-8"?>
<svg version="1.1" xmlns="http://www.w3.org/2000/svg" width="1125" height="1125">
<path d="M0 0 C1.13469727 -0.0033284 2.26939453 -0.0066568 3.43847656 -0.01008606 C5.83902584 -0.01514143 8.23958212 -0.01749481 10.64013672 -0.01733398 C14.27193152 -0.01950698 17.90341567 -0.03764049 21.53515625 -0.05664062 C44.14189579 -0.10977113 44.14189579 -0.10977113 55.3125 2.16796875 C55.3125 2.82796875 55.3125 3.48796875 55.3125 4.16796875 C55.96340103 4.14798325 56.61430206 4.12799774 57.28492737 4.10740662 C64.57306672 3.98285718 71.46665285 4.72809776 78.65234375 5.890625 C79.80442322 6.07120453 80.95650269 6.25178406 82.14349365 6.43783569 C85.84764374 7.02371366 89.54901029 7.62496434 93.25 8.23046875 C95.14439316 8.53816696 95.14439316 8.53816696 97.07705688 8.8520813 C132.21119385 14.58853487 165.37399875 23.44024281 197.94970703 38.11083984 C200.26863466 39.14834311 202.59822788 40.15637332 204.93359375 41.15625 C215.25345341 45.60224126 225.18398401 50.62900466 235.07128906 55.96289062 C237.20569595 57.11054121 239.34699068 58.24376571 241.4921875 59.37109375 C248.56544898 63.09354079 255.52439488 66.94226093 262.3125 71.16796875 C263.51132813 71.895 263.51132813 71.895 264.734375 72.63671875 C281.21249258 82.82319143 297.54968112 94.67920934 311.77807617 107.8371582 C314.12304841 109.99373753 316.49846121 112.10985747 318.8828125 114.22265625 C324.26178116 119.05950047 329.40677461 124.11004263 334.5090332 129.23413086 C336.00554925 130.736038 337.507383 132.23247937 339.00976562 133.72851562 C344.3213751 139.03613408 349.48090869 144.41719256 354.3125 150.16796875 C355.02277344 151.0084375 355.73304688 151.84890625 356.46484375 152.71484375 C360.72713487 157.97508925 364.52955828 163.41667559 368.23828125 169.078125 C371.72231398 174.26808713 375.49561254 179.2204184 379.3125 184.16796875 C379.78945313 184.83699219 380.26640625 185.50601563 380.7578125 186.1953125 C389.40785228 197.61647281 406.0168983 202.98520813 418.57714844 208.87792969 C433.17436793 215.76223063 447.81456262 222.96645059 460.890625 232.48828125 C463.61772132 234.3796545 466.43081608 236.02233707 469.3125 237.66796875 C478.07317335 242.70283849 485.90250891 248.5427457 493.671875 254.98828125 C495.96278066 256.87929509 498.27621304 258.72483366 500.625 260.54296875 C501.33914063 261.09726562 502.05328125 261.6515625 502.7890625 262.22265625 C504.17918925 263.29430195 505.5706333 264.36427189 506.96777344 265.42675781 C513.74943567 270.58727634 520.00942545 275.43163081 525.3125 282.16796875 C526.3025 282.82796875 527.2925 283.48796875 528.3125 284.16796875 C528.3125 284.82796875 528.3125 285.48796875 528.3125 286.16796875 C528.89515625 286.42578125 529.4778125 286.68359375 530.078125 286.94921875 C532.4927903 288.26630892 534.12990177 289.71885259 536.0625 291.66796875 C536.67609375 292.27640625 537.2896875 292.88484375 537.921875 293.51171875 C539.3125 295.16796875 539.3125 295.16796875 539.3125 297.16796875 C539.91304199 297.4311792 540.51358398 297.69438965 541.13232422 297.96557617 C543.42963782 299.23257163 544.5715809 300.36933415 546.1953125 302.40625 C546.71762451 303.05480957 547.23993652 303.70336914 547.77807617 304.37158203 C548.32568604 305.06751465 548.8732959 305.76344727 549.4375 306.48046875 C550.01153564 307.19960449 550.58557129 307.91874023 551.17700195 308.65966797 C552.89779329 310.82219685 554.60688952 312.99345495 556.3125 315.16796875 C556.78059082 315.76174316 557.24868164 316.35551758 557.73095703 316.96728516 C566.64274637 328.29469991 575.10958387 339.86352992 582.5234375 352.23046875 C583.79332777 354.31552876 585.14102716 356.3540708 586.5390625 358.35546875 C588.3125 361.16796875 588.3125 361.16796875 588.3125 364.16796875 C588.9725 364.16796875 589.6325 364.16796875 590.3125 364.16796875 C597.35191656 376.27576524 602.87219846 388.89899027 608.125 401.85546875 C608.44469757 402.6384433 608.76439514 403.42141785 609.09378052 404.2281189 C614.94819845 418.60942377 619.91995227 432.99227589 623.0625 448.23046875 C623.37380859 449.67969727 623.37380859 449.67969727 623.69140625 451.15820312 C634.92212638 504.15995652 631.02648066 566.08699019 613.3125 617.16796875 C613.06000488 617.90354004 612.80750977 618.63911133 612.54736328 619.39697266 C607.21210933 634.74696516 600.58215376 649.48654856 592.390625 663.51953125 C590.18405156 667.31742373 588.24512426 671.2243706 586.3125 675.16796875 C585.6525 675.16796875 584.9925 675.16796875 584.3125 675.16796875 C584.3125 676.15796875 584.3125 677.14796875 584.3125 678.16796875 C583.6525 678.16796875 582.9925 678.16796875 582.3125 678.16796875 C582.21582031 678.90144531 582.11914062 679.63492188 582.01953125 680.390625 C581.21706287 683.54286269 580.06926008 685.11969807 578 687.60546875 C575.84448751 690.24685495 573.80833207 692.83987733 572 695.73046875 C571.443125 696.53484375 570.88625 697.33921875 570.3125 698.16796875 C569.6525 698.16796875 568.9925 698.16796875 568.3125 698.16796875 C568.09207031 698.83957031 567.87164063 699.51117187 567.64453125 700.203125 C565.90639977 704.07186926 563.53801528 707.22481892 561 710.60546875 C560.52626953 711.24806641 560.05253906 711.89066406 559.56445312 712.55273438 C556.60799756 716.53646725 553.62819982 720.47561457 550.3125 724.16796875 C549.6525 724.16796875 548.9925 724.16796875 548.3125 724.16796875 C548.044375 724.74546875 547.77625 725.32296875 547.5 725.91796875 C546.28320811 728.22346918 545.00916121 730.18853067 543.3125 732.16796875 C542.6525 732.16796875 541.9925 732.16796875 541.3125 732.16796875 C541.065 732.74546875 540.8175 733.32296875 540.5625 733.91796875 C539.12950012 736.49736854 537.52825324 738.22918467 535.3125 740.16796875 C534.6525 740.16796875 533.9925 740.16796875 533.3125 740.16796875 C533.085625 740.7196875 532.85875 741.27140625 532.625 741.83984375 C530.92524074 744.85489292 528.76445184 746.98027244 526.3125 749.41796875 C525.425625 750.31 524.53875 751.20203125 523.625 752.12109375 C521.3125 754.16796875 521.3125 754.16796875 519.3125 754.16796875 C518.9825 755.15796875 518.6525 756.14796875 518.3125 757.16796875 C516.97916667 757.50130208 515.64583333 757.83463542 514.3125 758.16796875 C513.9825 759.15796875 513.6525 760.14796875 513.3125 761.16796875 C511.78125 762.60546875 511.78125 762.60546875 509.8125 764.16796875 C496.97068645 775.24718044 487.06116532 791.39177606 485.6875 808.54296875 C484.19970585 831.65177146 492.00711395 850.75192454 502.88085938 870.67773438 C507.12804349 878.52373317 510.66478972 886.66848798 514.26464844 894.82568359 C515.80931404 898.27850788 517.4374106 901.69000383 519.0625 905.10546875 C524.90829193 917.58555478 528.95138481 928.28674422 528.3125 942.16796875 C528.28027344 942.95816406 528.24804688 943.74835937 528.21484375 944.5625 C527.42112605 950.94577896 523.94636518 954.28368134 519.09765625 958.28125 C511.86364788 963.18170728 503.75176812 964.20807106 495.23120117 962.83178711 C489.56268143 961.63454262 484.4771157 959.75616418 479.1875 957.41796875 C477.50829672 956.69288799 475.82860353 955.96894082 474.1484375 955.24609375 C473.32698242 954.89095703 472.50552734 954.53582031 471.65917969 954.16992188 C468.39843811 952.77769513 465.1103952 951.46995774 461.8125 950.16796875 C449.37113969 945.21532478 437.07417665 940.01654322 424.9375 934.35546875 C404.02357409 924.63036916 382.61048185 915.97337563 361.33056641 907.08740234 C351.35376085 902.91420169 341.44642273 898.60588437 331.57797241 894.18280029 C319.20218648 888.63899501 306.8229363 883.11036235 294.27246094 877.97070312 C292.92282821 877.41793875 291.57459575 876.86174713 290.22753906 876.30273438 C288.1959112 875.45977456 286.16115924 874.624915 284.125 873.79296875 C282.99707031 873.33148437 281.86914062 872.87 280.70703125 872.39453125 C272.16449833 869.30781625 264.65027997 868.86116821 255.60546875 868.82421875 C254.25467972 868.81140542 252.90390003 868.79757242 251.5531311 868.78279114 C248.68873049 868.75255449 245.82434708 868.72718317 242.95986938 868.70547485 C235.44942762 868.64605376 227.93958125 868.53625459 220.4296875 868.4296875 C219.68442873 868.41927114 218.93916996 868.40885479 218.17132759 868.39812279 C185.39475042 867.936382 153.57191284 866.24422222 121.3125 860.16796875 C120.55384644 860.02723938 119.79519287 859.88651001 119.0135498 859.74151611 C67.17597167 850.08805418 15.23143055 829.78258814 -29.6875 802.16796875 C-30.6470459 801.57870605 -30.6470459 801.57870605 -31.62597656 800.97753906 C-39.97354212 795.81041801 -47.97689251 790.20271966 -55.91992188 784.43847656 C-57.71096401 783.15110319 -59.51661084 781.88727892 -61.328125 780.62890625 C-67.83162696 776.09351181 -73.90886202 771.43021626 -79.69921875 765.98046875 C-81.75849988 764.01186554 -81.75849988 764.01186554 -84.6875 762.16796875 C-84.6875 761.50796875 -84.6875 760.84796875 -84.6875 760.16796875 C-85.21730469 759.9565625 -85.74710937 759.74515625 -86.29296875 759.52734375 C-89.6299441 757.63294339 -92.23870621 755.04659613 -95 752.41796875 C-96.1552275 751.33094357 -97.31146891 750.24499485 -98.46875 749.16015625 C-99.02175781 748.64163086 -99.57476562 748.12310547 -100.14453125 747.58886719 C-102.04313105 745.84047307 -104.00812749 744.18381455 -106 742.54296875 C-106.886875 741.75921875 -107.77375 740.97546875 -108.6875 740.16796875 C-108.6875 739.50796875 -108.6875 738.84796875 -108.6875 738.16796875 C-117.43470616 738.26409189 -124.40190467 741.26701992 -132.25 744.85546875 C-134.23627524 745.74378723 -136.22481972 746.62689784 -138.21339417 747.51005554 C-139.59568603 748.12450873 -140.97721934 748.74067101 -142.35801697 749.35847473 C-149.29388295 752.45817287 -156.28923123 755.4108195 -163.2923584 758.35458374 C-175.38389191 763.43985282 -187.3924089 768.67977829 -199.36010742 774.05102539 C-206.51840138 777.24794902 -213.72926587 780.23382889 -221.03198242 783.08251953 C-229.54816008 786.43834964 -237.88313694 790.19580737 -246.2265625 793.95703125 C-272.24205584 805.66400325 -272.24205584 805.66400325 -284.4140625 801.28125 C-291.34858798 797.88547721 -297.37585067 791.5349603 -300.4375 784.48046875 C-305.38180255 769.81146064 -297.37913395 754.79232744 -290.97265625 741.85546875 C-290.12786325 740.16783904 -289.2828103 738.48033942 -288.4375 736.79296875 C-287.60701241 735.11380534 -286.77758021 733.43411953 -285.94921875 731.75390625 C-282.79003624 725.35800858 -279.60019292 718.97768738 -276.39160156 712.60644531 C-275.84889618 711.52682022 -275.84889618 711.52682022 -275.29522705 710.42538452 C-274.62464037 709.09237568 -273.95223318 707.76028022 -273.27752686 706.42935181 C-270.86515792 701.63609923 -268.77276785 696.75191984 -266.77734375 691.7734375 C-265.79519204 689.42542607 -264.70186327 687.22130539 -263.5 684.98046875 C-259.19632547 676.42422945 -259.34368998 667.33952513 -259.37182617 657.99414062 C-259.37498384 655.80417939 -259.35146897 653.61557618 -259.32617188 651.42578125 C-259.27837045 640.75903942 -259.96238253 630.89244546 -266.6875 622.16796875 C-268.02272887 620.31516663 -269.35586889 618.4608583 -270.6875 616.60546875 C-274.60499899 611.21125628 -278.20336654 606.34298318 -283.51953125 602.2578125 C-290.2823509 596.82936086 -296.36125647 590.79584972 -302.46801758 584.64819336 C-304.3755669 582.72989866 -306.29361306 580.82256816 -308.21289062 578.91601562 C-314.20192526 572.93308572 -319.96844495 566.95568737 -325.11108398 560.2097168 C-326.67483207 558.18437605 -328.33102254 556.30065765 -330.0625 554.41796875 C-334.61444035 549.26736051 -338.50616668 543.6379292 -342.41552734 537.99609375 C-343.59272969 536.30417605 -344.78967746 534.62604307 -345.98828125 532.94921875 C-351.95572019 524.44814684 -356.99606905 515.4438195 -362 506.35546875 C-362.34452209 505.72986053 -362.68904419 505.10425232 -363.04400635 504.45968628 C-390.63268464 454.23163223 -404.15547225 402.45842187 -402.6875 345.16796875 C-402.67029907 344.47475525 -402.65309814 343.78154175 -402.63537598 343.06732178 C-402.07791741 321.82887587 -399.81649696 301.85680882 -394.6875 281.16796875 C-394.33945312 279.69481201 -394.33945312 279.69481201 -393.984375 278.19189453 C-383.74607515 235.02882954 -361.32431441 194.9391987 -334.23632812 160.16650391 C-332.79452491 158.30606868 -331.36992981 156.43419697 -329.953125 154.5546875 C-329.31213867 153.70801514 -329.31213867 153.70801514 -328.65820312 152.84423828 C-327.53616602 151.36090523 -326.41640994 149.87584745 -325.296875 148.390625 C-318.54785459 139.84158652 -310.81281623 132.11135182 -303.125 124.41796875 C-302.23103516 123.51175781 -301.33707031 122.60554688 -300.41601562 121.671875 C-295.43913256 116.68406974 -290.41683935 112.25567046 -284.6875 108.16796875 C-282.88502803 106.72301188 -281.09213578 105.2659596 -279.3125 103.79296875 C-274.14259829 99.53624856 -268.9479326 95.31255201 -263.6875 91.16796875 C-262.97464844 90.59820312 -262.26179687 90.0284375 -261.52734375 89.44140625 C-259.6875 88.16796875 -259.6875 88.16796875 -257.6875 88.16796875 C-257.3575 87.17796875 -257.0275 86.18796875 -256.6875 85.16796875 C-254.44116211 83.40966797 -254.44116211 83.40966797 -251.46484375 81.47265625 C-250.37598877 80.76061035 -249.28713379 80.04856445 -248.1652832 79.31494141 C-246.98559187 78.55698947 -245.80548958 77.79967682 -244.625 77.04296875 C-243.4324872 76.27139674 -242.24002311 75.49974943 -241.04760742 74.72802734 C-212.23874552 56.16796875 -212.23874552 56.16796875 -204.6875 56.16796875 C-204.6875 55.50796875 -204.6875 54.84796875 -204.6875 54.16796875 C-202.27608519 52.82429483 -199.85916012 51.4929436 -197.4375 50.16796875 C-196.75558594 49.78640625 -196.07367188 49.40484375 -195.37109375 49.01171875 C-194.70722656 48.65078125 -194.04335938 48.28984375 -193.359375 47.91796875 C-192.7519043 47.5828125 -192.14443359 47.24765625 -191.51855469 46.90234375 C-189.6875 46.16796875 -189.6875 46.16796875 -185.6875 46.16796875 C-185.6875 45.50796875 -185.6875 44.84796875 -185.6875 44.16796875 C-183.31281683 43.12557536 -180.93775545 42.08405677 -178.5625 41.04296875 C-177.59376953 40.61757812 -177.59376953 40.61757812 -176.60546875 40.18359375 C-175.16709992 39.55345121 -173.72763043 38.9258179 -172.28735352 38.30004883 C-170.35796583 37.45991636 -168.43187059 36.61221416 -166.50756836 35.76049805 C-158.29216282 32.16600655 -150.01315293 29.04338216 -141.5 26.23046875 C-140.86518707 26.0193042 -140.23037415 25.80813965 -139.57632446 25.59057617 C-123.83426638 20.37103039 -107.80349802 15.88689031 -91.52075195 12.6953125 C-89.37452827 12.17820294 -89.37452827 12.17820294 -86.6875 10.16796875 C-84.39887461 9.61717026 -82.08965786 9.15035968 -79.7734375 8.73046875 C-79.09106018 8.60536423 -78.40868286 8.4802597 -77.70562744 8.35136414 C-75.49263899 7.94869311 -73.27784814 7.55743365 -71.0625 7.16796875 C-70.30974792 7.03379547 -69.55699585 6.89962219 -68.78143311 6.76138306 C-53.89848581 4.11145558 -39.2229134 2.11972212 -24.10205078 1.50854492 C-23.35294434 1.47736572 -22.60383789 1.44618652 -21.83203125 1.4140625 C-21.17565674 1.39013428 -20.51928223 1.36620605 -19.84301758 1.34155273 C-17.61257973 1.20404474 -17.61257973 1.20404474 -15.15893555 0.66308594 C-10.10696429 -0.05745684 -5.09699428 0.00523048 0 0 Z M-42.6875 62.16796875 C-44.9955281 62.53410955 -47.30532397 62.8893825 -49.6171875 63.23046875 C-51.59910168 63.54205835 -53.5808787 63.85452195 -55.5625 64.16796875 C-56.54734375 64.32007813 -57.5321875 64.4721875 -58.546875 64.62890625 C-71.23119861 66.63863025 -83.63059876 69.54392388 -96 72.98046875 C-97.269646 73.33302734 -98.53929199 73.68558594 -99.84741211 74.04882812 C-109.29077164 76.70611053 -118.54537537 79.61402479 -127.6875 83.16796875 C-128.82711182 83.60810303 -128.82711182 83.60810303 -129.98974609 84.05712891 C-135.91757077 86.35888427 -141.80587224 88.75104488 -147.6875 91.16796875 C-148.94022705 91.67602051 -148.94022705 91.67602051 -150.21826172 92.19433594 C-170.21560037 100.3292394 -189.95180191 109.77520021 -207.6875 122.16796875 C-208.34621094 122.62526367 -209.00492188 123.08255859 -209.68359375 123.55371094 C-214.0055982 126.56127091 -218.29903369 129.60695888 -222.58154297 132.67041016 C-224.67115704 134.15634718 -226.77278982 135.62350817 -228.87890625 137.0859375 C-229.53246094 137.54299072 -230.18601562 138.00004395 -230.859375 138.47094727 C-232.09423386 139.3344236 -233.33239133 140.1932069 -234.57421875 141.04663086 C-235.9816463 142.03737481 -237.34058152 143.09641078 -238.6875 144.16796875 C-238.6875 144.82796875 -238.6875 145.48796875 -238.6875 146.16796875 C-239.3475 146.16796875 -240.0075 146.16796875 -240.6875 146.16796875 C-241.8190711 147.29953985 -242.94555293 148.43662395 -244.046875 149.59765625 C-246.77765481 152.21140264 -249.85339759 154.37974659 -252.89453125 156.6171875 C-253.48621094 157.12894531 -254.07789063 157.64070313 -254.6875 158.16796875 C-254.6875 158.82796875 -254.6875 159.48796875 -254.6875 160.16796875 C-255.3475 160.16796875 -256.0075 160.16796875 -256.6875 160.16796875 C-256.6875 160.82796875 -256.6875 161.48796875 -256.6875 162.16796875 C-257.3475 162.16796875 -258.0075 162.16796875 -258.6875 162.16796875 C-258.6875 162.82796875 -258.6875 163.48796875 -258.6875 164.16796875 C-259.3475 164.16796875 -260.0075 164.16796875 -260.6875 164.16796875 C-260.6875 164.82796875 -260.6875 165.48796875 -260.6875 166.16796875 C-261.3475 166.16796875 -262.0075 166.16796875 -262.6875 166.16796875 C-262.6875 166.82796875 -262.6875 167.48796875 -262.6875 168.16796875 C-263.3475 168.16796875 -264.0075 168.16796875 -264.6875 168.16796875 C-264.6875 168.82796875 -264.6875 169.48796875 -264.6875 170.16796875 C-265.3475 170.16796875 -266.0075 170.16796875 -266.6875 170.16796875 C-266.6875 170.82796875 -266.6875 171.48796875 -266.6875 172.16796875 C-267.3475 172.16796875 -268.0075 172.16796875 -268.6875 172.16796875 C-268.6875 172.82796875 -268.6875 173.48796875 -268.6875 174.16796875 C-269.3475 174.16796875 -270.0075 174.16796875 -270.6875 174.16796875 C-270.6875 174.82796875 -270.6875 175.48796875 -270.6875 176.16796875 C-271.3475 176.16796875 -272.0075 176.16796875 -272.6875 176.16796875 C-274.3282615 178.01743234 -274.3282615 178.01743234 -276 180.35546875 C-278.08007255 183.12309666 -280.11211132 185.72181434 -282.625 188.10546875 C-283.305625 188.78609375 -283.98625 189.46671875 -284.6875 190.16796875 C-284.6875 190.82796875 -284.6875 191.48796875 -284.6875 192.16796875 C-285.3475 192.16796875 -286.0075 192.16796875 -286.6875 192.16796875 C-287.60503238 193.47368791 -288.50815332 194.79073988 -289.359375 196.140625 C-290.99793189 198.6418339 -292.7788257 201.01817795 -294.5625 203.41796875 C-297.84096182 207.88303802 -300.73827551 212.44783376 -303.4609375 217.26953125 C-304.6875 219.16796875 -304.6875 219.16796875 -306.6875 220.16796875 C-307.62608211 221.82094935 -308.48739077 223.51802138 -309.3125 225.23046875 C-309.84617187 226.32875 -310.37984375 227.42703125 -310.9296875 228.55859375 C-311.21553711 229.14962891 -311.50138672 229.74066406 -311.79589844 230.34960938 C-312.98355614 232.77175466 -314.22531315 235.16564819 -315.45922852 237.56445312 C-319.17641304 244.84482851 -322.58543756 252.24775988 -325.875 259.73046875 C-326.27879883 260.63901611 -326.68259766 261.54756348 -327.09863281 262.48364258 C-332.64366173 275.25466482 -336.43571693 288.19056198 -339.3125 301.79296875 C-339.46091339 302.48463135 -339.60932678 303.17629395 -339.76223755 303.88891602 C-341.59360855 312.44473528 -343.32566449 321.01290454 -344.625 329.66796875 C-344.74117676 330.41127441 -344.85735352 331.15458008 -344.97705078 331.92041016 C-349.26914431 363.59815409 -343.9825985 399.19291062 -333.6875 429.16796875 C-333.2962956 430.48266664 -332.91104066 431.79914711 -332.53125 433.1171875 C-328.04753998 448.22030383 -320.75907045 462.14803334 -313.6875 476.16796875 C-313.25550293 477.02777344 -312.82350586 477.88757813 -312.37841797 478.7734375 C-305.93247037 491.51523301 -297.79410916 502.49230662 -288.92724609 513.61303711 C-287.77947813 515.05260665 -286.63752837 516.49680985 -285.49609375 517.94140625 C-283.38277817 520.54311226 -281.08549189 522.82447667 -278.6875 525.16796875 C-277.35281097 526.499945 -276.01958079 527.83338405 -274.6875 529.16796875 C-273.9965625 529.85890625 -273.305625 530.54984375 -272.59375 531.26171875 C-270.29166667 533.56380208 -267.98958333 535.86588542 -265.6875 538.16796875 C-265.04683594 538.79703125 -264.40617187 539.42609375 -263.74609375 540.07421875 C-258.07255185 545.67462107 -258.07255185 545.67462107 -255.6875 548.73046875 C-252.7417468 552.32060546 -249.21577649 555.1633234 -245.6875 558.16796875 C-239.85350165 563.15994672 -234.5867015 568.25513935 -229.6875 574.16796875 C-228.965625 575.01359375 -228.24375 575.85921875 -227.5 576.73046875 C-225.1703015 579.50092102 -222.91363268 582.31374863 -220.6875 585.16796875 C-220.089375 585.92851563 -219.49125 586.6890625 -218.875 587.47265625 C-209.09968699 601.27576027 -203.74416092 619.52247005 -201.6875 636.16796875 C-201.55988281 637.09867188 -201.43226563 638.029375 -201.30078125 638.98828125 C-198.84975161 660.31542228 -201.52841952 681.83161187 -207.88134766 702.25073242 C-208.14351074 703.11545166 -208.40567383 703.9801709 -208.67578125 704.87109375 C-208.91852783 705.63067383 -209.16127441 706.39025391 -209.41137695 707.17285156 C-209.95608922 709.48391 -209.95608922 709.48391 -207.6875 712.16796875 C-199.71530575 713.50456731 -193.30007499 709.69429455 -186.25 706.35546875 C-184.95448173 705.7561083 -183.65816213 705.15847719 -182.36108398 704.5625 C-179.72379529 703.34976926 -177.08945091 702.1309759 -174.45703125 700.90771484 C-169.08742608 698.4202541 -163.67137144 696.04003949 -158.25 693.66796875 C-156.74663086 693.00800903 -156.74663086 693.00800903 -155.21289062 692.3347168 C-136.54972009 684.14965932 -117.85085947 676.05208827 -99.06982422 668.14086914 C-90.67961922 664.60200566 -82.32308792 660.98920827 -73.98071289 657.33911133 C-73.09375732 656.95134521 -72.20680176 656.5635791 -71.29296875 656.1640625 C-70.52106201 655.82560303 -69.74915527 655.48714355 -68.95385742 655.13842773 C-68.20595947 654.81817627 -67.45806152 654.4979248 -66.6875 654.16796875 C-65.91188721 653.81742432 -65.13627441 653.46687988 -64.3371582 653.10571289 C-58.78258788 651.13988735 -53.03486528 651.03557647 -47.19287109 650.97851562 C-46.47765289 650.97022232 -45.76243469 650.96192902 -45.02554321 650.9533844 C-43.47988381 650.93607545 -41.93419951 650.92088427 -40.38850021 650.90760803 C-37.90994929 650.88627999 -35.43151362 650.85926652 -32.95303345 650.83093262 C-27.65623665 650.77147478 -22.35937846 650.71953898 -17.0625 650.66796875 C11.33602438 650.40552653 11.33602438 650.40552653 39.7265625 649.71875 C41.44560287 649.66666382 41.44560287 649.66666382 43.19937134 649.61352539 C51.89179881 649.30142775 60.27655009 648.22491472 68.81445312 646.61816406 C72.72057783 645.91420648 76.64464873 645.33225015 80.56762695 644.73071289 C92.24267847 642.93083474 103.78635015 640.75070555 115.3125 638.16796875 C115.3125 637.50796875 115.3125 636.84796875 115.3125 636.16796875 C115.85672607 636.14508789 116.40095215 636.12220703 116.96166992 636.09863281 C124.45482154 635.58202185 131.43204335 633.65972611 138.59741211 631.52197266 C140.60813982 630.92299128 142.62284753 630.33938065 144.63867188 629.7578125 C156.21234913 626.3806284 167.34398878 622.16640221 178.3125 617.16796875 C179.95120292 616.44780633 181.59055563 615.72912111 183.23046875 615.01171875 C209.51377231 603.38281988 233.83254047 589.20908718 256.62890625 571.7109375 C260.67783287 568.60963201 264.82739057 565.68115151 269.03564453 562.80053711 C274.60830825 558.80478306 279.533986 554.06900875 284.3125 549.16796875 C285.5386687 547.91502781 286.76800116 546.66517745 288 545.41796875 C288.58136719 544.825 289.16273438 544.23203125 289.76171875 543.62109375 C291.3125 542.16796875 291.3125 542.16796875 293.3125 541.16796875 C293.3125 540.50796875 293.3125 539.84796875 293.3125 539.16796875 C293.9725 539.16796875 294.6325 539.16796875 295.3125 539.16796875 C296.81523886 537.72113823 296.81523886 537.72113823 298.375 535.79296875 C301.05111285 532.63028993 303.79759295 529.57090112 306.625 526.54296875 C312.0872298 520.46462885 316.7094154 513.89887977 321.3125 507.16796875 C321.85600098 506.37922363 322.39950195 505.59047852 322.95947266 504.77783203 C331.10319974 492.92517085 338.73379081 480.96156458 345.3125 468.16796875 C345.79460938 467.23500977 346.27671875 466.30205078 346.7734375 465.34082031 C357.6108193 444.15428902 365.57362798 422.71512691 369.3125 399.16796875 C369.47806396 398.12624512 369.47806396 398.12624512 369.64697266 397.06347656 C380.14588111 328.91150703 363.58450894 260.55161363 323.953125 204.23632812 C321.90765797 201.45990744 319.78644374 198.76117387 317.62890625 196.0703125 C315.31308488 193.16870158 313.14990011 190.19390292 311 187.16796875 C308.33879454 183.48690012 305.65695198 180.26158683 302.3125 177.16796875 C300.93341789 175.79706302 299.55875513 174.42170345 298.1875 173.04296875 C297.19363281 172.04910156 297.19363281 172.04910156 296.1796875 171.03515625 C294.99721229 169.85268104 293.83300132 168.65140737 292.6953125 167.42578125 C291.37746547 165.94367515 291.37746547 165.94367515 289.3125 166.16796875 C289.3125 165.50796875 289.3125 164.84796875 289.3125 164.16796875 C288.6525 164.16796875 287.9925 164.16796875 287.3125 164.16796875 C287.3125 163.50796875 287.3125 162.84796875 287.3125 162.16796875 C285.6339487 160.67167696 283.89291102 159.24504214 282.125 157.85546875 C279.0958166 155.46699616 276.27722235 153.13198655 273.57421875 150.375 C271.60061781 147.93516839 271.60061781 147.93516839 269.3125 148.16796875 C269.3125 147.50796875 269.3125 146.84796875 269.3125 146.16796875 C267.76094594 144.78770027 267.76094594 144.78770027 265.75 143.41796875 C263.05668468 141.5069224 260.53460235 139.50452118 258.05859375 137.32421875 C254.22956363 134.01511713 250.1608609 131.19771484 245.9375 128.41796875 C245.15149414 127.89847656 244.36548828 127.37898438 243.55566406 126.84375 C235.63896311 121.6568366 227.54978598 116.82532267 219.3125 112.16796875 C218.46139648 111.68295898 217.61029297 111.19794922 216.73339844 110.69824219 C204.23233968 103.60304668 191.69279521 97.40589507 178.3125 92.16796875 C177.33829102 91.77899414 176.36408203 91.39001953 175.36035156 90.98925781 C155.60422762 83.10281507 135.57911853 75.80597857 114.8125 71.0546875 C112.16550329 70.38407561 109.71284741 69.62868473 107.1484375 68.72436523 C102.62440322 67.20467292 98.1302697 66.21319724 93.4375 65.37890625 C92.62812988 65.23015045 91.81875977 65.08139465 90.98486328 64.9281311 C89.28799719 64.61761852 87.59055731 64.31022635 85.89257812 64.00585938 C83.31759955 63.54388366 80.74467606 63.07159329 78.171875 62.59765625 C76.51052732 62.29496495 74.84907234 61.99286188 73.1875 61.69140625 C72.05272217 61.48359024 72.05272217 61.48359024 70.89501953 61.27157593 C68.70388079 60.88077979 66.51093676 60.51527343 64.3125 60.16796875 C63.66976639 60.06585083 63.02703278 59.96373291 62.36482239 59.85852051 C54.32356277 58.77662338 46.17217909 58.98366012 38.07421875 58.96484375 C37.24689554 58.96201637 36.41957233 58.959189 35.56717873 58.95627594 C31.18044347 58.94134142 26.79374055 58.9320783 22.40698242 58.92773438 C18.82191705 58.9233654 15.23709447 58.90952751 11.65209961 58.88671875 C-15.66135963 58.63882395 -15.66135963 58.63882395 -42.6875 62.16796875 Z M426.3125 283.16796875 C425.14165755 289.81322731 425.33198043 296.20408612 426.0546875 302.875 C426.18642868 304.20587898 426.18642868 304.20587898 426.3208313 305.56364441 C426.60049394 308.37027531 426.89349452 311.17530774 427.1875 313.98046875 C427.37724209 315.84821204 427.56605106 317.71605036 427.75390625 319.58398438 C427.84544983 320.4936496 427.93699341 321.40331482 428.03131104 322.34054565 C428.12152527 323.23879059 428.2117395 324.13703552 428.3046875 325.0625 C428.39441833 325.95583038 428.48414917 326.84916077 428.57659912 327.76956177 C428.82348737 330.23554277 429.06842813 332.70170761 429.3125 335.16796875 C429.43012695 336.35181152 429.54775391 337.5356543 429.66894531 338.75537109 C431.00892894 353.84320791 430.3538168 368.69970801 428.76831055 383.73681641 C428.49953089 386.29743792 428.24785372 388.85934025 427.99804688 391.421875 C426.52181098 406.14362465 424.29195481 420.33948406 419.5625 434.41796875 C419.21179443 435.48370117 418.86108887 436.54943359 418.49975586 437.64746094 C417.44875039 440.82490831 416.38194432 443.9966882 415.3125 447.16796875 C415.0129541 448.07160156 414.7134082 448.97523438 414.40478516 449.90625 C394.04021721 511.29104258 394.04021721 511.29104258 374.3125 530.16796875 C373.07896874 531.79500207 371.87356376 533.44351521 370.6875 535.10546875 C369.62402344 536.57886719 369.62402344 536.57886719 368.5390625 538.08203125 C367.80429687 539.10039063 367.06953125 540.11875 366.3125 541.16796875 C360.17587756 549.63148892 353.64842441 557.60907221 346.77856445 565.48046875 C344.71770407 567.85260314 342.68177939 570.24581158 340.64648438 572.63989258 C338.64489743 574.93270602 336.48949775 577.04159885 334.3125 579.16796875 C333.6421875 579.84859375 332.971875 580.52921875 332.28125 581.23046875 C320.875 592.79296875 320.875 592.79296875 314.3125 597.16796875 C314.3125 597.82796875 314.3125 598.48796875 314.3125 599.16796875 C313.6525 599.16796875 312.9925 599.16796875 312.3125 599.16796875 C311.28898055 600.14388265 310.29381323 601.14962483 309.3125 602.16796875 C307.0578708 603.96513696 304.7642298 605.7046541 302.46875 607.44921875 C300.60589494 608.93410322 298.96915132 610.46343734 297.3125 612.16796875 C295.6649116 613.52480626 293.99333079 614.85253596 292.3125 616.16796875 C291.673125 616.68488281 291.03375 617.20179688 290.375 617.734375 C285.5432554 621.59114256 280.56902555 625.01928755 275.32421875 628.2890625 C272.00561427 630.35942405 268.72066652 632.47963791 265.4375 634.60546875 C263.06943367 636.1386026 260.69618224 637.65949409 258.3125 639.16796875 C256.91547852 640.05621338 256.91547852 640.05621338 255.49023438 640.96240234 C247.97551092 645.67228622 240.32964258 649.92786789 232.43603516 653.96044922 C230.5466971 654.92604524 228.66179822 655.89991287 226.77734375 656.875 C220.37110949 660.17758924 213.94106313 663.33730692 207.3125 666.16796875 C205.98919678 666.74804688 205.98919678 666.74804688 204.63916016 667.33984375 C147.09887418 692.5312263 87.8225244 705.02790092 25.08089256 705.39776421 C22.34376945 705.41451663 19.60676558 705.43774528 16.8697052 705.46266174 C9.10289634 705.53260679 1.3360497 705.5939556 -6.4309082 705.64477539 C-11.21625379 705.67653231 -16.00144046 705.71775656 -20.78665733 705.76497078 C-22.60032004 705.78095917 -24.41401883 705.7932953 -26.2277317 705.80187798 C-28.74939922 705.81401216 -31.27068875 705.83814089 -33.79223633 705.86499023 C-34.90879608 705.86587395 -34.90879608 705.86587395 -36.0479126 705.86677551 C-41.19536055 705.92877754 -41.19536055 705.92877754 -45.6875 708.16796875 C-47.24872337 711.85813307 -47.8852044 714.21898762 -47.0625 718.16796875 C-45.36861486 721.86371814 -43.78307369 722.85930824 -40.3125 724.91796875 C-35.73139923 727.78184252 -31.59162283 730.76993835 -27.5 734.29296875 C-22.74442246 738.33153267 -17.94853582 741.83340046 -12.6875 745.16796875 C-11.40514725 746.00873713 -10.12401173 746.85136347 -8.84375 747.6953125 C18.96808868 765.97840159 50.13604995 782.22820583 82.3125 791.16796875 C83.72101137 791.58531773 85.12853649 792.00600685 86.53515625 792.4296875 C90.11720928 793.50705138 93.70605275 794.55777845 97.30126953 795.59033203 C99.14872827 796.12093259 100.99437884 796.65781829 102.83984375 797.1953125 C113.92843531 800.30111599 125.20458115 802.41469797 136.50292969 804.60253906 C139.01758033 805.10861578 141.51076133 805.66833855 144.0078125 806.25390625 C170.76830427 812.29474486 201.44874076 810.26763113 228.76171875 810.16015625 C229.70934586 810.15686813 230.65697296 810.15358002 231.63331604 810.15019226 C236.18760552 810.13139796 240.74117377 810.09833685 245.29516602 810.04321289 C276.16264188 809.76498938 276.16264188 809.76498938 290.1875 814.98046875 C291.02514893 815.27469727 291.86279785 815.56892578 292.72583008 815.87207031 C303.91877388 819.929826 314.78578137 824.86534579 325.6678772 829.68225098 C331.97988171 832.47272598 338.32837592 835.17419987 344.6875 837.85546875 C346.27908936 838.52787598 346.27908936 838.52787598 347.90283203 839.21386719 C353.05752011 841.3878456 358.21802524 843.54703119 363.38671875 845.6875 C373.62148067 849.92618921 383.81010416 854.24042489 393.9375 858.73046875 C402.08104333 862.32667481 410.23161972 865.9034592 418.4375 869.35546875 C419.77868896 869.93566772 419.77868896 869.93566772 421.14697266 870.52758789 C426.1337049 872.5986249 429.90879359 873.61461657 435.3125 873.16796875 C436.97697124 869.51506879 437.48624822 867.75871271 436.3359375 863.84765625 C435.79408666 862.57614917 435.24398194 861.30814084 434.6875 860.04296875 C427.94078432 842.88575801 426.09118814 823.38994981 428.3125 805.16796875 C428.44626946 803.65667257 428.57499256 802.14492303 428.69921875 800.6328125 C429.79551806 788.1302794 432.59786509 776.62812061 437.578125 765.05859375 C438.43319149 763.19529285 438.43319149 763.19529285 438.3125 761.16796875 C438.9725 761.16796875 439.6325 761.16796875 440.3125 761.16796875 C440.663125 760.26046875 441.01375 759.35296875 441.375 758.41796875 C448.92443609 741.30363626 461.73944421 729.14085564 475.44140625 716.78515625 C478.58603027 713.91862823 481.57136551 710.93016238 484.55078125 707.89453125 C486.26023177 706.21919393 488.02994524 704.691259 489.875 703.16796875 C492.97437304 700.56088986 495.55068282 697.71293166 498.16796875 694.62890625 C501.45218394 690.86013472 504.89706039 687.24079978 508.34228516 683.61914062 C515.79455175 675.68895942 522.2519316 667.17412801 528.0625 657.98046875 C528.66102783 657.03486084 529.25955566 656.08925293 529.8762207 655.11499023 C536.31594011 644.78231868 541.90647227 634.06888545 547.3125 623.16796875 C547.81475098 622.16459473 548.31700195 621.1612207 548.83447266 620.12744141 C550.34152228 617.10612218 551.83071241 614.07674832 553.3125 611.04296875 C553.75746826 610.14392822 554.20243652 609.2448877 554.66088867 608.31860352 C564.16568455 588.52557955 570.09279885 564.0741536 571.3125 542.16796875 C571.37131348 541.1742627 571.43012695 540.18055664 571.49072266 539.15673828 C573.13768924 509.5330676 573.11978404 479.5335545 563.89599609 451.08251953 C563.00189414 448.14881765 562.37203203 445.15653541 561.6875 442.16796875 C552.85892269 408.5404202 532.19092083 375.28518221 509.68725586 349.30102539 C506.15412727 345.2064372 502.8099154 341.01269132 499.6171875 336.64453125 C499.18664062 336.15726562 498.75609375 335.67 498.3125 335.16796875 C497.6525 335.16796875 496.9925 335.16796875 496.3125 335.16796875 C496.3125 334.50796875 496.3125 333.84796875 496.3125 333.16796875 C494.78629124 331.65950723 494.78629124 331.65950723 492.875 330.16796875 C489.41419492 327.37135858 489.41419492 327.37135858 488.3125 325.16796875 C487.6525 325.16796875 486.9925 325.16796875 486.3125 325.16796875 C486.3125 324.50796875 486.3125 323.84796875 486.3125 323.16796875 C484.54755506 321.77229565 482.72441783 320.44960353 480.875 319.16796875 C475.4162182 315.37540515 475.4162182 315.37540515 474.3125 313.16796875 C473.6525 313.16796875 472.9925 313.16796875 472.3125 313.16796875 C472.3125 312.50796875 472.3125 311.84796875 472.3125 311.16796875 C468.75794108 307.50261838 464.67087035 304.35005496 460.5 301.41796875 C457.3125 299.16796875 457.3125 299.16796875 455.75 297.5703125 C454.01617027 295.87888621 452.66668416 295.57386257 450.3125 295.16796875 C450.3125 294.50796875 450.3125 293.84796875 450.3125 293.16796875 C447.88492822 291.39306529 445.46078372 289.73317093 442.9375 288.10546875 C442.23882813 287.64591797 441.54015625 287.18636719 440.8203125 286.71289062 C433.80603997 281.65842322 433.80603997 281.65842322 426.3125 283.16796875 Z " fill="#0A7066" transform="translate(451.6875,75.83203125)"/>
<path d="M0 0 C4.95 0.33 9.9 0.66 15 1 C15 1.33 15 1.66 15 2 C7.08 2.495 7.08 2.495 -1 3 C-0.67 2.01 -0.34 1.02 0 0 Z " fill="#078C74" transform="translate(406,79)"/>
</svg>
