<?xml version="1.0" encoding="UTF-8"?>
<svg version="1.1" xmlns="http://www.w3.org/2000/svg" width="875" height="875">
<path d="M0 0 C0.72316406 0.06445312 1.44632812 0.12890625 2.19140625 0.1953125 C8.3356256 2.0546067 11.4137293 7.36398549 14.75 12.4375 C15.71365944 13.87189011 16.67851052 15.30548034 17.64453125 16.73828125 C18.11584473 17.44033691 18.5871582 18.14239258 19.07275391 18.86572266 C22.59066598 24.0450458 26.27099087 29.13732029 30.15625 34.046875 C31.4375 35.875 31.4375 35.875 31.4375 37.875 C32.9225 38.37 32.9225 38.37 34.4375 38.875 C35.62109375 40.59765625 35.62109375 40.59765625 36.875 42.9375 C39.69846001 47.86443772 42.93187164 52.31235457 46.375 56.8125 C50.44177189 62.14036818 54.21002921 67.51434013 57.7265625 73.2265625 C60.37343796 77.32378068 63.3570062 81.15464267 66.30859375 85.03515625 C72.18361382 92.87210962 77.2716246 101.2767909 82.49707031 109.55322266 C86.98882296 116.66019999 91.59840601 123.59621484 96.6015625 130.359375 C98.80931281 133.38446266 100.87609236 136.48629655 102.9296875 139.6171875 C104.61184843 142.13607096 106.36590272 144.59681971 108.125 147.0625 C112.38790793 153.18335674 115.71282308 158.12044935 114.4375 165.875 C112.88180114 170.81605612 110.16108924 174.28538975 106.625 178 C97.34941466 187.96908704 92.57641317 201.38498809 92.4375 214.875 C93.2449861 227.1026467 96.10432837 237.54594769 102.484375 248 C103.4375 249.875 103.4375 249.875 103.4375 252.875 C104.4275 253.205 105.4175 253.535 106.4375 253.875 C107.88867187 255.52636719 107.88867187 255.52636719 109.40625 257.671875 C109.97158447 258.45908936 110.53691895 259.24630371 111.11938477 260.05737305 C111.71936279 260.90468994 112.31934082 261.75200684 112.9375 262.625 C117.93287925 269.54539329 123.0777327 276.18637095 128.66015625 282.63671875 C131.83935023 286.31276912 134.88584251 290.09298542 137.9375 293.875 C146.64202003 304.63884756 155.48851303 315.32175329 164.86328125 325.51171875 C165.69214844 326.41535156 166.52101563 327.31898438 167.375 328.25 C168.14714844 329.08273437 168.91929687 329.91546875 169.71484375 330.7734375 C171.4375 332.875 171.4375 332.875 171.4375 334.875 C172.01540283 335.11532959 172.59330566 335.35565918 173.1887207 335.60327148 C175.88464071 337.12786678 177.40544081 338.86900566 179.41796875 341.22265625 C184.44707323 346.9500472 189.752985 352.34245666 195.15063477 357.71850586 C196.76893509 359.3313715 198.38172257 360.94961525 199.99414062 362.56835938 C201.03353313 363.60709218 202.07323519 364.64551533 203.11328125 365.68359375 C204.04052002 366.60970459 204.96775879 367.53581543 205.9230957 368.48999023 C208.31964817 370.86592942 208.31964817 370.86592942 210.77026367 372.57446289 C211.32045166 373.00364014 211.87063965 373.43281738 212.4375 373.875 C212.4375 374.535 212.4375 375.195 212.4375 375.875 C213.2728125 376.23271484 213.2728125 376.23271484 214.125 376.59765625 C216.96046753 378.16386889 219.06472978 380.10973009 221.4375 382.3125 C224.96631363 385.57933082 224.96631363 385.57933082 228.75 388.53515625 C229.5853125 389.19837891 229.5853125 389.19837891 230.4375 389.875 C230.4375 390.535 230.4375 391.195 230.4375 391.875 C231.02829346 392.14739502 231.61908691 392.41979004 232.2277832 392.70043945 C234.38415589 393.84664528 235.97461237 395.04984725 237.79296875 396.66796875 C238.41067139 397.21219482 239.02837402 397.7564209 239.66479492 398.31713867 C240.3116626 398.89310791 240.95853027 399.46907715 241.625 400.0625 C246.38409648 404.24646529 251.16509134 408.31628894 256.21484375 412.1484375 C258.93256186 414.25956475 261.55538628 416.47062195 264.1875 418.6875 C273.18696479 426.24561051 282.54887627 433.2907111 292.09765625 440.140625 C294.4375 441.875 294.4375 441.875 297.3125 444.4375 C311.33849239 455.37777406 326.2453697 457.05899773 343.4375 455.875 C356.30004914 454.23170104 367.12558478 447.83942251 376.21875 438.79296875 C379.54451077 435.91805936 382.41872942 434.99033252 386.75 434.5 C393.99303313 435.23657964 400.02554734 439.72666278 405.9375 443.75 C406.59548584 444.1927124 407.25347168 444.6354248 407.93139648 445.09155273 C411.8089282 447.7164395 415.56984044 450.44851977 419.27734375 453.30859375 C423.4120836 456.30684091 427.75865798 458.99185288 432.0703125 461.7265625 C433.18148438 462.43554688 434.29265625 463.14453125 435.4375 463.875 C436.01983398 464.23561523 436.60216797 464.59623047 437.20214844 464.96777344 C438.64835119 465.88469143 440.04808618 466.87411527 441.4375 467.875 C441.4375 468.535 441.4375 469.195 441.4375 469.875 C442.16195312 469.97425781 442.88640625 470.07351563 443.6328125 470.17578125 C446.79875747 470.9650628 448.67710358 472.15541601 451.3125 474.0625 C452.18261719 474.6915625 453.05273438 475.320625 453.94921875 475.96875 C456.60731742 478.00509561 459.12927352 480.1311871 461.57421875 482.41796875 C463.77332239 484.13760325 466.14675753 485.43028174 468.57983398 486.78833008 C471.57075354 488.53791385 474.33285518 490.57814645 477.125 492.625 C481.44705366 495.75403156 485.79228852 498.81503294 490.25 501.75 C495.15612093 504.9859521 499.96058977 508.34531788 504.75 511.75 C510.21343467 515.63318304 515.71816386 519.43286769 521.3125 523.125 C527.48332034 527.20548222 533.540362 531.4036503 539.4375 535.875 C540.13875 536.39707031 540.84 536.91914062 541.5625 537.45703125 C545.72457202 540.74333395 547.98588436 543.61289332 549.4375 548.875 C549.4375 555.51596897 547.30242292 560.4950273 543.4375 565.875 C541.54055431 567.74817444 539.5695494 569.2527885 537.4375 570.875 C536.43176222 572.20401064 535.42954592 573.53573801 534.4375 574.875 C533.7775 574.875 533.1175 574.875 532.4375 574.875 C532.17702881 575.46216797 531.91655762 576.04933594 531.64819336 576.65429688 C530.36019329 579.01679911 528.99128373 580.53549594 527.06640625 582.40625 C526.40962891 583.05207031 525.75285156 583.69789063 525.07617188 584.36328125 C524.39103516 585.02714844 523.70589844 585.69101562 523 586.375 C521.6448293 587.69555423 520.29188735 589.01840028 518.94140625 590.34375 C518.34142822 590.92576172 517.7414502 591.50777344 517.12329102 592.10742188 C515.3604519 593.8739699 515.3604519 593.8739699 513.84350586 596.09570312 C513.37952393 596.68287109 512.91554199 597.27003906 512.4375 597.875 C511.7775 597.875 511.1175 597.875 510.4375 597.875 C510.21449219 598.44347656 509.99148438 599.01195312 509.76171875 599.59765625 C506.96364862 604.40967656 501.77398127 607.50150828 497.4375 610.875 C496.82390625 611.37644531 496.2103125 611.87789062 495.578125 612.39453125 C484.43221892 621.08502733 467.42424071 625.54279564 453.4375 623.875 C427.41637967 619.9659684 401.99083121 609.06800257 378.4296875 597.71484375 C373.20743065 595.25205928 367.84128795 593.12579549 362.5 590.9375 C350.0606571 585.81860399 338.17163497 580.02824158 326.41015625 573.5 C324.07514547 572.22356835 321.73143373 570.97817966 319.37109375 569.75 C311.9856763 565.90248741 304.79362746 561.97923874 297.8203125 557.41015625 C294.9956606 555.59033953 292.08956588 553.98597295 289.140625 552.37890625 C276.13683725 545.14413994 263.39299208 537.44825842 251.25390625 528.8359375 C247.12000702 525.95768866 242.91425688 523.18877118 238.70214844 520.42651367 C233.93790357 517.28037365 229.39896783 514.01653455 225.4375 509.875 C224.6021875 509.1015625 224.6021875 509.1015625 223.75 508.3125 C222.4375 506.875 222.4375 506.875 222.4375 504.875 C221.64279297 505.26558594 221.64279297 505.26558594 220.83203125 505.6640625 C217.04100625 505.99801903 214.89031765 503.55449787 212.125 501.25 C210.96956469 500.31930018 209.81332117 499.38960279 208.65625 498.4609375 C208.10324219 498.01202148 207.55023438 497.56310547 206.98046875 497.10058594 C205.089383 495.59848935 203.12508752 494.2275182 201.125 492.875 C200.238125 492.215 199.35125 491.555 198.4375 490.875 C198.4375 490.215 198.4375 489.555 198.4375 488.875 C197.633125 488.50375 197.633125 488.50375 196.8125 488.125 C192.0010099 485.59263679 187.5136379 482.47159226 183.4375 478.875 C183.4375 478.215 183.4375 477.555 183.4375 476.875 C182.8487207 476.59720703 182.25994141 476.31941406 181.65332031 476.03320312 C178.18594629 474.22081635 175.25451451 471.78746873 172.1875 469.375 C171.5378125 468.87613281 170.888125 468.37726563 170.21875 467.86328125 C168.58513436 466.58315807 167.00615759 465.23394401 165.4375 463.875 C165.4375 463.215 165.4375 462.555 165.4375 461.875 C164.86515625 461.6171875 164.2928125 461.359375 163.703125 461.09375 C161.22621005 459.76134058 159.3033834 458.22443882 157.1875 456.375 C156.48109375 455.7665625 155.7746875 455.158125 155.046875 454.53125 C153.4375 452.875 153.4375 452.875 153.4375 450.875 C152.86 450.606875 152.2825 450.33875 151.6875 450.0625 C149.38199957 448.84570811 147.41693808 447.57166121 145.4375 445.875 C145.4375 445.215 145.4375 444.555 145.4375 443.875 C144.1175 443.215 142.7975 442.555 141.4375 441.875 C141.4375 441.215 141.4375 440.555 141.4375 439.875 C140.84046265 439.60295242 140.24342529 439.33090485 139.6282959 439.0506134 C137.48325067 437.89955048 136.09364588 436.77899299 134.38476562 435.06518555 C133.81737671 434.50087326 133.24998779 433.93656097 132.66540527 433.35514832 C132.06425903 432.74681656 131.46311279 432.1384848 130.84375 431.51171875 C130.21521118 430.88272171 129.58667236 430.25372467 128.93908691 429.60566711 C127.61212734 428.2756906 126.28759493 426.94328862 124.96533203 425.60864258 C122.95002517 423.57513827 120.92689073 421.54969137 118.90234375 419.52539062 C117.61150753 418.22963634 116.32112783 416.93342708 115.03125 415.63671875 C114.43010376 415.03445969 113.82895752 414.43220062 113.20959473 413.81169128 C110.07009938 410.63689473 107.18050479 407.40728788 104.4375 403.875 C103.839375 403.276875 103.24125 402.67875 102.625 402.0625 C100.04418949 399.48168949 97.69041315 396.74324898 95.31640625 393.97265625 C93.94434587 392.44085495 92.51326067 390.96134934 91.05078125 389.515625 C88.21713625 386.65233051 85.63771251 383.65594837 83.0625 380.5625 C79.31606165 376.08566784 75.52210458 371.6724481 71.58203125 367.36328125 C70.4375 365.875 70.4375 365.875 70.4375 363.875 C69.8496875 363.64425781 69.261875 363.41351562 68.65625 363.17578125 C65.87277925 361.54392252 64.70849365 359.74716538 62.9375 357.0625 C61.03263843 354.22364179 59.15856039 351.53168971 57 348.875 C55.4375 346.875 55.4375 346.875 55.4375 344.875 C54.86 344.66875 54.2825 344.4625 53.6875 344.25 C50.574373 342.3475335 49.23010061 340.01205107 47.4375 336.875 C47.4375 335.885 47.4375 334.895 47.4375 333.875 C46.4475 333.545 45.4575 333.215 44.4375 332.875 C42.77174624 330.94744383 41.25259268 329.04659354 39.75 327 C39.33427734 326.45730469 38.91855469 325.91460938 38.49023438 325.35546875 C35.4375 321.25508005 35.4375 321.25508005 35.4375 317.875 C34.4475 317.545 33.4575 317.215 32.4375 316.875 C30.9296875 314.828125 30.9296875 314.828125 29.3125 312.125 C26.64283785 307.77694265 23.86631936 303.55331567 20.9375 299.375 C16.93357883 293.64331903 13.13692635 287.80711979 9.4375 281.875 C8.70097434 280.71846107 7.96397293 279.56222501 7.2265625 278.40625 C6.48394868 277.22943558 5.74175423 276.05235641 5 274.875 C4.32066406 273.8025 3.64132813 272.73 2.94140625 271.625 C1.4375 268.875 1.4375 268.875 1.4375 265.875 C0.4475 265.545 -0.5425 265.215 -1.5625 264.875 C-2.84594727 263.02758789 -2.84594727 263.02758789 -4.12890625 260.59765625 C-4.84965332 259.25199585 -4.84965332 259.25199585 -5.58496094 257.87915039 C-6.09317383 256.90840576 -6.60138672 255.93766113 -7.125 254.9375 C-8.20372181 252.9162901 -9.28315909 250.8954619 -10.36328125 248.875 C-10.90162598 247.86179687 -11.4399707 246.84859375 -11.99462891 245.8046875 C-14.21625088 241.6534163 -16.51091599 237.54478909 -18.8125 233.4375 C-27.92026451 217.07842228 -36.78154334 200.71469053 -43.27661133 183.1105957 C-44.48452826 180.07119508 -45.85051268 177.23529011 -47.359375 174.3359375 C-50.66719769 167.79861667 -53.46112854 161.1091746 -56.1875 154.3125 C-56.6515625 153.17103516 -57.115625 152.02957031 -57.59375 150.85351562 C-61.64843044 140.82562656 -65.34579085 130.70318007 -68.75 120.4375 C-69.00974609 119.66212891 -69.26949219 118.88675781 -69.53710938 118.08789062 C-69.78654297 117.33830078 -70.03597656 116.58871094 -70.29296875 115.81640625 C-70.51364014 115.15326416 -70.73431152 114.49012207 -70.96166992 113.80688477 C-74.49589805 102.44307038 -74.84784345 88.55564431 -72.5625 76.875 C-72.0675 76.38 -72.0675 76.38 -71.5625 75.875 C-71.4696875 74.4828125 -71.4696875 74.4828125 -71.375 73.0625 C-69.99659041 62.98159401 -62.55219969 52.02779268 -55.5625 44.875 C-52.28125 43.5390625 -52.28125 43.5390625 -49.5625 42.875 C-49.5625 41.885 -49.5625 40.895 -49.5625 39.875 C-47.1875 36.6875 -47.1875 36.6875 -44.5625 33.875 C-43.9025 33.875 -43.2425 33.875 -42.5625 33.875 C-42.30855469 33.28203125 -42.05460937 32.6890625 -41.79296875 32.078125 C-40.42623626 29.63102301 -39.04507018 28.38152046 -36.875 26.625 C-33.25907377 23.57242459 -30.20201213 20.30313975 -27.1328125 16.7109375 C-20.46520832 8.91547987 -11.15928313 -1.23770224 0 0 Z " fill="#097E6D" transform="translate(134.5625,205.125)"/>
<path d="M0 0 C2.48697546 1.48929744 5.02576964 2.87246442 7.57861328 4.24511719 C21.68027411 11.86935851 34.45714484 20.62413823 47.08447266 30.4519043 C50.40221298 33.03062908 53.77379112 35.505667 57.20361328 37.93261719 C64.07447953 42.890458 70.42227571 48.45162475 76.76611328 54.05761719 C77.46325439 54.66573242 78.16039551 55.27384766 78.87866211 55.90039062 C86.28630122 62.44628234 93.28308992 69.38845714 100.27075195 76.37695312 C102.32304752 78.42705737 104.38323243 80.4690047 106.44384766 82.51074219 C112.98187248 89.02185832 119.27091266 95.52365395 124.94946289 102.81005859 C126.7380299 105.12565191 126.7380299 105.12565191 129.00268555 107.16845703 C130.76611328 109.05761719 130.76611328 109.05761719 130.76611328 112.05761719 C131.33587891 112.26128906 131.90564453 112.46496094 132.49267578 112.67480469 C135.59426366 114.56133752 137.20164379 117.20252835 139.14111328 120.18261719 C141.59993144 123.85532665 144.04640078 127.50811149 146.76611328 130.99511719 C159.76467546 148.19701877 170.54644082 167.75089201 179.84521484 187.16015625 C180.83442886 189.1983777 181.85486945 191.21860102 182.88330078 193.23730469 C186.1376772 199.6291161 189.30543648 205.96955876 191.85595703 212.68261719 C192.84223924 215.25626347 193.92652347 217.77602897 195.01611328 220.30761719 C202.69315272 238.80763884 208.59195562 257.71985625 213.76611328 277.05761719 C214.18787842 278.61754395 214.18787842 278.61754395 214.61816406 280.20898438 C223.40823316 313.1491708 237.27769508 367.81706648 223.37548828 400.30761719 C221.99638157 402.66414904 220.76124083 404.46824764 218.82861328 406.37011719 C218.34521484 406.86125 217.86181641 407.35238281 217.36376953 407.85839844 C213.26504033 410.93495067 207.64694965 410.48852294 202.76611328 410.05761719 C197.31498113 408.55385659 193.64041473 405.86969154 190.07470703 401.56542969 C187.98055083 397.55215124 188.29953053 393.83345959 188.61767578 389.40136719 C188.75684281 386.26644673 188.42713673 383.43541055 188.01855469 380.33627319 C187.56763086 376.26602062 187.49109651 372.18387639 187.37158203 368.09277344 C187.30565162 366.1501921 187.23863544 364.20764737 187.1706543 362.26513672 C187.13577911 361.26049377 187.10090393 360.25585083 187.06497192 359.22076416 C186.46046213 342.38891866 185.60944123 325.95992035 182.23779297 309.41796875 C181.80411962 307.24780625 181.43077798 305.07939648 181.08642578 302.89355469 C177.8935917 283.53946168 171.95431299 264.11888102 164.64111328 245.93261719 C164.38974609 245.28808594 164.13837891 244.64355469 163.87939453 243.97949219 C162.76527626 241.19127998 161.91227614 239.20378005 159.76611328 237.05761719 C159.11725597 235.12118647 158.5348392 233.16222508 157.98876953 231.19433594 C155.97125332 224.41931727 153.3074123 218.21042522 150.20361328 211.87011719 C149.68420166 210.79656982 149.16479004 209.72302246 148.62963867 208.61694336 C144.55639476 200.34164514 140.01415619 192.46562913 135.04345703 184.70214844 C133.61886846 182.47518554 132.40757302 180.33781358 131.22314453 177.95996094 C129.57741385 174.68173601 127.62808614 171.80573251 125.51611328 168.80761719 C124.92503784 167.96444946 124.92503784 167.96444946 124.32202148 167.10424805 C123.14022013 165.41954233 121.9534341 163.73843557 120.76611328 162.05761719 C119.49451602 160.24565306 118.223601 158.4332098 116.95361328 156.62011719 C116.43154297 155.87890625 115.90947266 155.13769531 115.37158203 154.37402344 C114.18397219 152.66051337 113.02550164 150.92672472 111.88330078 149.18261719 C109.62072166 145.84301701 107.2046606 142.65669982 104.70361328 139.49511719 C103.98842529 138.58874512 103.98842529 138.58874512 103.25878906 137.6640625 C90.4277496 120.90299629 90.4277496 120.90299629 75.45361328 106.24511719 C72.76544551 104.05707365 70.91381799 101.75956828 68.76611328 99.05761719 C67.116085 97.70374783 65.44867458 96.37083576 63.76611328 95.05761719 C62.09509313 93.3953154 60.42923763 91.72781866 58.76611328 90.05761719 C47.35457741 79.08631044 35.41361089 69.06964265 22.60595703 59.76074219 C21.49261875 58.9431115 20.37933749 58.12540318 19.26611328 57.30761719 C17.70376953 56.17066406 17.70376953 56.17066406 16.10986328 55.01074219 C15.33642578 54.36621094 14.56298828 53.72167969 13.76611328 53.05761719 C13.76611328 52.39761719 13.76611328 51.73761719 13.76611328 51.05761719 C13.05455078 50.79851562 12.34298828 50.53941406 11.60986328 50.27246094 C8.58760594 48.98135924 6.01615039 47.41613861 3.26611328 45.62011719 C-1.69122538 42.39645455 -6.69943208 39.32262099 -11.85888672 36.43261719 C-12.61427734 36.00722656 -13.36966797 35.58183594 -14.14794922 35.14355469 C-16.32954317 33.93818684 -16.32954317 33.93818684 -19.23388672 33.05761719 C-19.23388672 32.39761719 -19.23388672 31.73761719 -19.23388672 31.05761719 C-20.05244141 30.98800781 -20.87099609 30.91839844 -21.71435547 30.84667969 C-26.23508568 29.83315305 -29.59256443 27.78167296 -33.54638672 25.43261719 C-42.19441013 20.47869859 -50.93314884 16.59862101 -60.23388672 13.05761719 C-61.14976562 12.703125 -62.06564453 12.34863281 -63.00927734 11.98339844 C-75.55913141 7.12913145 -88.15317532 2.58792179 -101.04296875 -1.27929688 C-103.18439624 -1.92740442 -105.31670204 -2.60001554 -107.44873047 -3.27832031 C-115.04907763 -5.6587223 -122.66157289 -7.56202262 -130.48388672 -9.06738281 C-131.24362793 -9.21385254 -132.00336914 -9.36032227 -132.78613281 -9.51123047 C-135.59668722 -10.02509836 -138.41357837 -10.48487728 -141.23388672 -10.94238281 C-141.88373535 -11.0551355 -142.53358398 -11.16788818 -143.203125 -11.28405762 C-155.01234546 -13.31189684 -166.81228231 -14.35172805 -178.76513672 -15.00488281 C-179.49189354 -15.04468136 -180.21865036 -15.0844799 -180.96743011 -15.12548447 C-187.77221928 -15.49393247 -194.57829413 -15.83614497 -201.38476562 -16.171875 C-205.15083914 -16.35851556 -208.91603784 -16.55831172 -212.68101501 -16.76583862 C-214.78391877 -16.8775602 -216.88716678 -16.97374431 -218.99084473 -17.06958008 C-220.26407593 -17.13975342 -221.53730713 -17.20992676 -222.84912109 -17.28222656 C-223.96492554 -17.33757568 -225.08072998 -17.3929248 -226.23034668 -17.44995117 C-231.05999328 -18.24177374 -233.53500539 -20.02995441 -236.48388672 -23.87988281 C-239.83449437 -29.7434462 -240.42973915 -36.31006651 -239.23388672 -42.94238281 C-236.30539859 -47.38032919 -232.2553531 -51.06486805 -227.23388672 -52.94238281 C-224.64178423 -53.25355253 -222.14752066 -53.45787651 -219.54638672 -53.56738281 C-218.76312012 -53.60387939 -217.97985352 -53.64037598 -217.17285156 -53.67797852 C-142.14675948 -56.78045201 -64.44015857 -39.23889006 0 0 Z " fill="#0C605E" transform="translate(589.23388671875,131.9423828125)"/>
<path d="M0 0 C0.80614746 0.25668457 1.61229492 0.51336914 2.44287109 0.77783203 C23.5662142 7.67661181 43.89984415 17.71133063 63 29 C63.60618164 29.35545898 64.21236328 29.71091797 64.83691406 30.07714844 C80.57303903 39.35162164 94.53061434 50.59730386 107.828125 63.05859375 C109.86851058 64.96631689 111.93467423 66.8322902 114.046875 68.66015625 C115.41585937 69.84931641 115.41585937 69.84931641 116.8125 71.0625 C117.62332031 71.75472656 118.43414063 72.44695312 119.26953125 73.16015625 C121 75 121 75 121 78 C121.59425781 78.26941406 122.18851563 78.53882813 122.80078125 78.81640625 C142.73034479 89.54226371 159.4054436 122.45448714 170 142 C170.58394531 143.0725 171.16789063 144.145 171.76953125 145.25 C177.11014184 155.47311012 181.08336242 166.16835231 185 177 C185.37535889 178.02311279 185.37535889 178.02311279 185.75830078 179.06689453 C189.79365813 190.14033046 192.44886154 201.50993743 195 213 C195.20753906 213.9075 195.41507813 214.815 195.62890625 215.75 C196.76421192 222.63353755 196.87728372 230.59150443 194 237 C189.04652387 242.18935595 183.58482726 244.55189659 176.5 245.4375 C170.47846493 244.68480812 165.88940019 242.50660188 161.984375 237.7734375 C157.75672298 231.92415667 156.72979022 225.06845288 155.3125 218.125 C154.75281069 215.5011148 154.18261413 212.87963643 153.61328125 210.2578125 C153.34265869 209.00846924 153.07203613 207.75912598 152.79321289 206.47192383 C146.2916771 178.01444752 131.22306556 148.71011592 112.2109375 126.609375 C109.67794544 123.61990734 107.34760995 120.51010507 105 117.375 C101.24763424 112.39313255 97.17981188 107.96179689 92.6171875 103.70703125 C91 102 91 102 91 100 C90.01 99.67 89.02 99.34 88 99 C88 98.34 88 97.68 88 97 C87.44828125 96.7628125 86.8965625 96.525625 86.328125 96.28125 C83.43225289 94.68754857 81.20487963 92.71082727 78.75 90.5 C77.85796875 89.7059375 76.9659375 88.911875 76.046875 88.09375 C74 86 74 86 74 84 C73.41863281 83.90203125 72.83726562 83.8040625 72.23828125 83.703125 C69.55302374 82.85958861 68.23463196 81.66788331 66.1875 79.75 C63.55987022 77.34914502 60.9440251 75.18800387 58 73.1875 C57.01 72.465625 56.02 71.74375 55 71 C55 70.34 55 69.68 55 69 C54.44183594 68.89945312 53.88367188 68.79890625 53.30859375 68.6953125 C50.49711513 67.8485389 48.50131014 66.51065312 46.0625 64.875 C39.89199964 60.86743958 33.52957541 57.38462975 27 54 C26.37432129 53.67354492 25.74864258 53.34708984 25.10400391 53.01074219 C6.71196222 43.45036368 -11.668662 37.5507928 -31.8203125 32.875 C-32.54420166 32.70371582 -33.26809082 32.53243164 -34.01391602 32.35595703 C-35.91397659 31.90986964 -37.81817744 31.4815184 -39.72265625 31.0546875 C-46.06730448 29.01290559 -50.14541926 25.35358436 -54 20 C-56.27150837 15.25048251 -56.34556295 11.04098585 -55 6 C-46.26107349 -15.32817213 -16.54463309 -5.30778354 0 0 Z " fill="#088771" transform="translate(471,233)"/>
<path d="M0 0 C7.17818169 6.1090908 11.91577253 14.91114107 17.08056641 22.73291016 C19.98485233 27.11872567 22.98522691 31.42156288 26.0625 35.6875 C29.71842041 40.75904557 33.23923962 45.89846912 36.68359375 51.1171875 C40.06051673 56.2129596 43.54261821 61.23794088 47.00561523 66.27539062 C50.07135661 70.74338938 53.08981286 75.2364805 56.05688477 79.77050781 C59.57080921 85.13534054 63.17855496 90.15185138 67.546875 94.8671875 C69.51347849 97.17628935 70.66083406 99.76428728 71.9375 102.5 C73.26906367 104.16808085 74.60272666 105.83448636 75.9375 107.5 C77.5029529 109.77951914 79.04377892 112.06499468 80.5625 114.375 C81.44381516 115.7084624 82.32533155 117.04179183 83.20703125 118.375 C83.65643066 119.055625 84.10583008 119.73625 84.56884766 120.4375 C85.91456119 122.46543221 87.27309388 124.48407731 88.63671875 126.5 C100.83202899 144.55041294 108.15581271 161.12803203 104.25390625 183.40234375 C101.56554076 193.49765812 97.41863803 203.96245611 88.9375 210.5 C86.015625 210.9296875 86.015625 210.9296875 82.9375 210.5 C80.734375 208.62109375 80.734375 208.62109375 78.6875 205.9375 C77.53894531 204.43703125 77.53894531 204.43703125 76.3671875 202.90625 C72.86298239 198.05909891 69.55376917 193.0821756 66.28515625 188.07421875 C64.33493927 185.08713773 62.3167023 182.15817841 60.25 179.25 C57.91961301 175.95269254 55.71175418 172.60565024 53.5625 169.1875 C50.61489099 164.50561545 47.51577909 159.94938973 44.34863281 155.41357422 C41.78889135 151.74359654 39.28452645 148.04205634 36.8125 144.3125 C34.44097174 140.73653415 32.03786073 137.19233319 29.5625 133.6875 C26.6281889 129.53000227 23.80654304 125.30651483 21 121.0625 C18.05400458 116.60998558 15.05301794 112.22972343 11.875 107.9375 C7.6439534 102.19962192 3.85134429 96.21494647 0.02685547 90.20361328 C-4.91849851 82.4697092 -10.13604964 74.94607503 -15.49414062 67.49560547 C-18.20227707 63.72445244 -20.82349579 59.9131527 -23.375 56.03515625 C-25.7148301 52.51999482 -28.10703917 49.04163882 -30.5 45.5625 C-30.97679199 44.86882324 -31.45358398 44.17514648 -31.94482422 43.46044922 C-35.16460874 38.78385865 -38.42013905 34.13430431 -41.72265625 29.515625 C-44.53883574 25.27904011 -45.69225802 22.03869156 -45.56640625 16.9375 C-44.10083432 9.84822185 -37.66298086 4.67777238 -31.9765625 0.71484375 C-21.06909156 -6.20806128 -11.30471993 -5.53700568 0 0 Z " fill="#0F4E55" transform="translate(208.0625,144.5)"/>
<path d="M0 0 C0.98226562 -0.020625 1.96453125 -0.04125 2.9765625 -0.0625 C12.07609156 -0.11039226 20.53654076 1.47403063 28.5 6.0625 C29.40878906 6.58585938 30.31757812 7.10921875 31.25390625 7.6484375 C37.83364347 11.66884325 44.10865199 16.10196763 50.4140625 20.53515625 C52.67672229 22.11183506 54.95477892 23.65873361 57.25 25.1875 C57.96800781 25.66574219 58.68601562 26.14398437 59.42578125 26.63671875 C61.31201919 27.87916894 63.20694525 29.1084363 65.10546875 30.33203125 C66.20503906 31.04746094 67.30460938 31.76289062 68.4375 32.5 C69.47003906 33.16515625 70.50257813 33.8303125 71.56640625 34.515625 C72.32824219 35.08796875 73.09007812 35.6603125 73.875 36.25 C73.875 36.91 73.875 37.57 73.875 38.25 C74.535 38.29125 75.195 38.3325 75.875 38.375 C79.51195305 39.43577797 81.69265143 41.19119784 84.64453125 43.51171875 C87.78001333 45.95530811 91.04455929 48.19746103 94.30859375 50.46484375 C95.99360523 51.63691414 97.67349507 52.81638908 99.34765625 54.00390625 C103.51896279 56.95885716 107.7200571 59.80203252 112.0625 62.5 C116.59749717 65.3487447 120.89666697 68.42803806 125.1875 71.625 C130.6418554 75.68625164 136.19989354 79.47673124 141.9453125 83.11230469 C170.82845621 101.39507088 170.82845621 101.39507088 174.40234375 111.00390625 C175.93507175 118.28753106 176.30011025 126.77973842 172.3359375 133.31640625 C167.4314173 139.80768299 162.11752484 146.36049592 154.875 150.25 C149.08611727 150.02066851 145.30661246 148.14780828 140.5625 145.125 C139.58627686 144.52147705 139.58627686 144.52147705 138.59033203 143.90576172 C133.9570472 141.0141068 129.44293834 137.96776574 125.0234375 134.7578125 C122.82087869 133.16038926 122.82087869 133.16038926 120.1015625 131.6796875 C119.36679687 131.20789063 118.63203125 130.73609375 117.875 130.25 C117.875 129.59 117.875 128.93 117.875 128.25 C117.34132813 128.17007813 116.80765625 128.09015625 116.2578125 128.0078125 C112.95786178 126.95831998 110.56912393 125.12895557 107.75 123.125 C106.59772435 122.30849764 105.44537974 121.49209258 104.29296875 120.67578125 C103.7211084 120.2679541 103.14924805 119.86012695 102.56005859 119.43994141 C100.98747105 118.32942392 99.39478706 117.24751779 97.80078125 116.16796875 C96.89714844 115.55566406 95.99351562 114.94335938 95.0625 114.3125 C93.84626953 113.49458984 93.84626953 113.49458984 92.60546875 112.66015625 C92.03441406 112.19480469 91.46335937 111.72945312 90.875 111.25 C90.875 110.59 90.875 109.93 90.875 109.25 C90.33875 109.1675 89.8025 109.085 89.25 109 C86.73826307 108.20681992 84.88529731 107.02581599 82.73828125 105.5234375 C80.53783285 104.01956711 78.27061806 102.64573224 76 101.25 C71.070387 98.13620625 66.44431782 94.71924075 61.8125 91.1875 C56.71777102 87.30642591 51.63266502 83.70984724 46.0703125 80.515625 C36.91841106 75.23943983 28.43931953 68.73274155 19.828125 62.63183594 C16.60503187 60.35149755 13.36986733 58.08857685 10.1328125 55.828125 C8.54227115 54.71639714 6.95392876 53.60151994 5.3671875 52.484375 C0.67391437 49.18329604 -4.0540338 45.95037447 -8.83984375 42.78515625 C-12.16108164 40.55396567 -15.41723404 38.23235167 -18.68359375 35.921875 C-21.62195286 33.90968668 -24.64539713 32.07712182 -27.7265625 30.29296875 C-28.18804688 29.94878906 -28.64953125 29.60460937 -29.125 29.25 C-29.125 28.59 -29.125 27.93 -29.125 27.25 C-29.66125 27.188125 -30.1975 27.12625 -30.75 27.0625 C-34.34492584 25.83265695 -36.48414224 23.95087726 -39.125 21.25 C-39.62890625 18.39453125 -39.62890625 18.39453125 -39.125 15.25 C-28.85878684 3.17421 -15.19054125 0.07790021 0 0 Z " fill="#0F4652" transform="translate(574.125,576.75)"/>
</svg>
