<?xml version="1.0" encoding="UTF-8"?>
<svg version="1.1" xmlns="http://www.w3.org/2000/svg" width="1063" height="1063">
<path d="M0 0 C0 0.66 0 1.32 0 2 C0.71027344 2.10054687 1.42054688 2.20109375 2.15234375 2.3046875 C5.40937754 3.09995775 7.69835096 4.38702657 10.5625 6.125 C11.62082031 6.75921875 12.67914063 7.3934375 13.76953125 8.046875 C14.83558594 8.69140625 15.90164063 9.3359375 17 10 C18.91412992 11.12931075 20.83077888 12.25436339 22.75 13.375 C23.73613281 13.95121094 24.72226562 14.52742188 25.73828125 15.12109375 C28.77250874 16.86895414 31.82250106 18.5838913 34.88037109 20.28979492 C41.60379562 24.04090087 48.20361643 27.9289647 54.73828125 32.00390625 C60.41143309 35.47573929 66.20656073 38.73413318 72 42 C72 42.66 72 43.32 72 44 C72.72316406 44.10183594 73.44632813 44.20367187 74.19140625 44.30859375 C77.32847443 45.08086227 79.26744786 46.25640926 81.9375 48.0625 C86.43701624 51.02529621 91.00230964 53.78385113 95.6875 56.4375 C96.31197021 56.79142822 96.93644043 57.14535645 97.57983398 57.51000977 C99.05198377 58.34220192 100.52580432 59.17143747 102 60 C102 60.66 102 61.32 102 62 C102.515625 62.0825 103.03125 62.165 103.5625 62.25 C107.04455732 63.32140225 109.87200885 65.13523605 113 67 C113 67.66 113 68.32 113 69 C113.66 69.061875 114.32 69.12375 115 69.1875 C118.40647934 70.11008815 120.6718863 71.6028745 123.59765625 73.5234375 C128.21153128 76.35928264 133.13102636 78.63854779 138 81 C138 81.66 138 82.32 138 83 C138.64582031 83.05800781 139.29164063 83.11601562 139.95703125 83.17578125 C144.3705808 84.37123562 147.84707787 86.75350811 151.6875 89.1875 C153.30845883 90.19683129 154.92955144 91.20594777 156.55078125 92.21484375 C157.32373535 92.69937012 158.09668945 93.18389648 158.89306641 93.68310547 C168.3452182 99.59097416 177.97980629 105.26064235 187.75 110.625 C191.24880206 112.5505997 194.62208187 114.62461672 197.9921875 116.765625 C200.00298378 118.00183438 202.04720441 119.13059721 204.125 120.25 C208.20634118 122.48132148 212.10392137 124.963658 216 127.5 C220.53427524 130.45035156 225.09629029 133.25744532 229.859375 135.82421875 C233.04912244 137.57625156 236.14514344 139.47758766 239.25 141.375 C241.55364305 142.73624362 243.87504922 144.02998489 246.22265625 145.3125 C251.91846754 148.46151878 257.3511449 151.99501416 262.80664062 155.5390625 C267.6298711 158.6303688 272.50913185 161.30157637 277.65893555 163.80761719 C281.00185374 165.51027778 284.08424018 167.52477748 287.1875 169.625 C291.63964496 172.63719408 296.01390869 175.01063193 301 177 C301 177.66 301 178.32 301 179 C301.56976562 179.11214844 302.13953125 179.22429687 302.7265625 179.33984375 C305.27696853 180.08042557 307.12477287 181.15322806 309.375 182.5625 C313.38291985 185.02217093 317.41781167 187.41529136 321.5 189.75 C322.07242432 190.07838867 322.64484863 190.40677734 323.23461914 190.74511719 C326.75305527 192.75348062 330.29652067 194.70759073 333.86328125 196.62890625 C335.09498047 197.29744629 335.09498047 197.29744629 336.3515625 197.97949219 C337.97094054 198.85665529 339.59456505 199.72603115 341.22265625 200.58691406 C341.96 200.98749023 342.69734375 201.38806641 343.45703125 201.80078125 C344.11678955 202.15309814 344.77654785 202.50541504 345.45629883 202.8684082 C347 204 347 204 348 207 C348.680625 207.0825 349.36125 207.165 350.0625 207.25 C353.8746907 208.22332528 356.64070329 209.95807455 360 212 C360 212.66 360 213.32 360 214 C360.680625 214.0825 361.36125 214.165 362.0625 214.25 C365.8746907 215.22332528 368.64070329 216.95807455 372 219 C372 219.66 372 220.32 372 221 C372.71800781 221.10570312 373.43601562 221.21140625 374.17578125 221.3203125 C377.29828026 222.07178529 379.43948778 223.21746882 382.1875 224.875 C383.76144531 225.81859375 383.76144531 225.81859375 385.3671875 226.78125 C386.57868374 227.51991772 387.78958142 228.25956769 389 229 C389.68352539 229.41636719 390.36705078 229.83273437 391.07128906 230.26171875 C394.86869391 232.57509982 398.6620064 234.89508396 402.453125 237.21875 C406.64668919 239.786819 410.84925393 242.33935545 415.0625 244.875 C416.75052734 245.89207031 416.75052734 245.89207031 418.47265625 246.9296875 C421.09449481 248.48810984 423.74982437 249.97475338 426.421875 251.4453125 C430.75737485 253.84075283 434.97748438 256.39192689 439.1875 259 C453.92561887 268.06281083 468.87498074 276.77125496 483.8125 285.5 C484.79621582 286.07532471 485.77993164 286.65064941 486.79345703 287.2434082 C491.12823806 289.77159741 495.47157978 292.27419993 499.8671875 294.6953125 C503.09603144 296.47788469 506.22419922 298.35553697 509.3125 300.375 C514.20047172 303.52411343 519.18375387 306.46819811 524.21875 309.375 C526.57252958 310.750242 528.8865012 312.16404838 531.1875 313.625 C533.80887799 315.28484795 536.46349721 316.82712891 539.1875 318.3125 C542.89148626 320.34147541 546.47870103 322.5156562 550.0625 324.75 C554.75467273 327.65828218 559.48965033 330.44003857 564.3125 333.125 C579.17996659 341.41766922 593.88477401 350.0014894 608.375 358.9375 C609.19959717 359.44442383 610.02419434 359.95134766 610.8737793 360.47363281 C619.24492445 365.67568334 627.29140262 371.33373277 635.125 377.3125 C635.69992187 377.74111328 636.27484375 378.16972656 636.8671875 378.61132812 C638.28342493 379.69205217 639.64754452 380.84044961 641 382 C641 382.66 641 383.32 641 384 C641.8971875 384.4021875 641.8971875 384.4021875 642.8125 384.8125 C644.99847854 385.99917406 646.41332594 387.09599113 648 389 C648 389.66 648 390.32 648 391 C648.59425781 391.23976563 649.18851563 391.47953125 649.80078125 391.7265625 C652.45137018 393.26136177 653.53227968 394.81345082 655.1875 397.375 C655.69667969 398.14585937 656.20585938 398.91671875 656.73046875 399.7109375 C657.91507279 401.84686971 658.54793447 403.61440116 659 406 C659.66 406 660.32 406 661 406 C675.45951037 433.65556837 681.37768472 463.45740184 672 494 C670.90768034 497.16967758 669.55151882 500.03229734 668 503 C667.40164089 504.25624267 666.80695613 505.51423847 666.21484375 506.7734375 C658.79342422 522.36315481 658.79342422 522.36315481 653 528 C652.34 528 651.68 528 651 528 C650.731875 528.58265625 650.46375 529.1653125 650.1875 529.765625 C648.98519009 532.02786601 647.66174087 533.80576318 646 535.75 C645.484375 536.36359375 644.96875 536.9771875 644.4375 537.609375 C643 539 643 539 641 539 C640.75507812 539.5878125 640.51015625 540.175625 640.2578125 540.78125 C636.60428102 547.22598876 628.56724431 551.11962969 622 554 C621.34 554 620.68 554 620 554 C619.67 554.99 619.34 555.98 619 557 C617.1015625 558.140625 617.1015625 558.140625 614.625 559.25 C610.9679694 560.98875648 607.57042403 562.83788916 604.1875 565.0625 C598.8519211 568.53893951 593.35582662 571.67972404 587.8125 574.8125 C581.30718523 578.49394028 574.87598991 582.2478868 568.5625 586.25 C558.97696736 592.32151998 549.23386531 598.00291241 539.03125 602.98828125 C536.60149956 604.19848387 534.31129535 605.5776644 532 607 C530.66836257 607.73225922 529.33477549 608.46097663 528 609.1875 C522.92265118 611.98556995 518.02183813 615.05222857 513.11328125 618.1328125 C510.13252403 619.92051884 507.11451059 621.46046316 504 623 C501.39976804 624.40765492 498.82409369 625.85769804 496.25 627.3125 C495.54915283 627.70840332 494.84830566 628.10430664 494.1262207 628.51220703 C484.78891075 633.14632319 484.78891075 633.14632319 476.71386719 639.41235352 C474.54910977 641.41768364 472.32961157 642.43435877 469.66015625 643.69140625 C463.30100159 646.7920562 457.23086257 650.2700732 451.16333008 653.90405273 C449.43774075 654.93735583 447.70848282 655.96428096 445.97851562 656.99023438 C439.6720459 660.74674376 433.43613849 664.58965293 427.27563477 668.58129883 C424.60555945 670.24590645 421.81219417 671.59390292 419 673 C418.5875 673.45503906 418.175 673.91007813 417.75 674.37890625 C415.28634706 676.66108476 412.53909195 677.77217067 409.5 679.1875 C403.74347177 681.94394855 398.82665958 685.19560663 393.73828125 689.0703125 C388.72757167 692.60139742 382.77774013 696.21862127 376.71484375 697.47265625 C376.14894531 697.64667969 375.58304688 697.82070313 375 698 C374.67 698.99 374.34 699.98 374 701 C371.8203125 702.38671875 371.8203125 702.38671875 369.125 703.6875 C367.79855469 704.34298828 367.79855469 704.34298828 366.4453125 705.01171875 C364 706 364 706 361 706 C361 706.66 361 707.32 361 708 C359.86304688 708.6290625 358.72609375 709.258125 357.5546875 709.90625 C352.6985337 712.59594233 347.84812489 715.2958666 343 718 C342.38753418 718.34095703 341.77506836 718.68191406 341.14404297 719.03320312 C330.13706026 725.17754547 319.42138619 731.7996174 308.66748047 738.37255859 C302.80044378 741.95206313 296.90738034 745.48754553 291 749 C290.30680664 749.41233887 289.61361328 749.82467773 288.89941406 750.24951172 C274.99360112 758.50859114 274.99360112 758.50859114 268.125 762.1875 C263.57856365 764.62821846 259.27170836 767.34965889 254.94140625 770.15234375 C251.72058186 772.17551764 248.43661087 774.06880529 245.125 775.9375 C236.70688499 780.69576567 228.39819231 785.6269679 220.4375 791.125 C216.14653441 794.0327972 211.60618262 796.24755169 206.953125 798.515625 C203.49254963 800.25506765 200.21284806 802.19718043 196.9140625 804.22265625 C193.03205696 806.5903674 189.10972737 808.88721505 185.1875 811.1875 C174.43153919 817.49312143 174.43153919 817.49312143 164.0390625 824.37890625 C160.04509743 827.14007705 156.06756005 829.52454807 151.6875 831.625 C143.29494433 835.70352514 135.42040453 840.65993143 127.45800781 845.51025391 C125.16500774 846.89999233 122.86304914 848.27268687 120.5546875 849.63671875 C119.53725464 850.23939575 119.53725464 850.23939575 118.49926758 850.85424805 C117.25323669 851.59137435 116.00578696 852.32611026 114.7565918 853.05786133 C112.1789899 854.58997628 109.8050207 856.15930866 107.48046875 858.05859375 C104.70173122 860.23344816 101.95000493 861.58003326 98.75 863.0625 C92.21995924 866.19158749 86.23752139 869.94381742 80.20507812 873.93603516 C75.07826396 877.32615861 69.88341618 880.46654896 64.515625 883.46484375 C61.92750484 884.96676749 61.92750484 884.96676749 59.52734375 887.01171875 C56.88971825 889.08675952 54.34203379 890.44315092 51.3125 891.875 C45.66405807 894.6341783 40.3410838 897.6926095 35 901 C32.77619592 902.36841303 30.55098636 903.73449429 28.32470703 905.09887695 C26.77614386 906.04831817 25.22886222 906.99985398 23.68310547 907.95385742 C19.19147808 910.71280222 14.64535956 913.33057749 10.02514648 915.86791992 C7.48484253 917.28797893 5.03115957 918.83443619 2.5625 920.375 C-23.17090212 935.31276701 -51.75896425 937.18330698 -80.30078125 930.19140625 C-100.03880365 924.18185951 -117.83234276 912.78158424 -131 897 C-131.76376953 896.14341797 -131.76376953 896.14341797 -132.54296875 895.26953125 C-136 891.34768908 -136 891.34768908 -136 888 C-136.60972656 887.75934814 -137.21945313 887.51869629 -137.84765625 887.27075195 C-140.49520872 885.70762688 -141.13064178 884.42723709 -142.4375 881.66796875 C-143.06483032 880.35662964 -143.06483032 880.35662964 -143.70483398 879.01879883 C-144.13223877 878.08447021 -144.55964355 877.1501416 -145 876.1875 C-145.44351807 875.23061279 -145.88703613 874.27372559 -146.34399414 873.2878418 C-156.26435409 851.5094222 -157.45587113 830.41653162 -157.37299994 806.80421478 C-157.36348529 803.12807027 -157.37162248 799.45195437 -157.37739825 795.77580786 C-157.38511569 789.34848286 -157.38181232 782.92123897 -157.37107468 776.49391937 C-157.35515085 766.93552303 -157.35656736 757.37718265 -157.36136696 747.81877703 C-157.36894043 731.72933495 -157.36246759 715.63992728 -157.34775543 699.55049133 C-157.33319862 683.61151358 -157.32446736 667.67255091 -157.32357025 651.73356628 C-157.32350916 650.74040716 -157.32344806 649.74724803 -157.32338512 648.72399318 C-157.32315558 644.69196702 -157.32296841 640.65994086 -157.32283698 636.6279147 C-157.32162643 599.90297484 -157.30594642 563.17805599 -157.28125 526.453125 C-157.25797355 491.83202959 -157.2437852 457.21094693 -157.24023438 422.58984375 C-157.24012286 421.52385061 -157.24001134 420.45785747 -157.23989645 419.35956151 C-157.23944757 415.06164081 -157.23900559 410.76372011 -157.23856402 406.46579941 C-157.23834364 404.32365554 -157.23812234 402.18151167 -157.23790014 400.03936781 C-157.23767878 397.90227709 -157.23746001 395.76518637 -157.23724384 393.62809565 C-157.23372207 359.52984566 -157.22225985 325.43159804 -157.2094375 291.33335045 C-157.20572636 281.36637397 -157.20245956 271.39939765 -157.20018864 261.43242073 C-157.19536772 240.47412573 -157.18822027 219.51583833 -157.17204097 198.55754858 C-157.1654238 189.89416141 -157.16024807 181.23078031 -157.15958023 172.56739044 C-157.15902355 165.37416013 -157.15509943 158.18094159 -157.14680431 150.98771586 C-157.14273152 147.37587848 -157.1400899 143.76405827 -157.14191952 140.15221864 C-157.16191712 93.70167191 -157.16191712 93.70167191 -154.6875 75 C-154.58244141 74.05640625 -154.47738281 73.1128125 -154.36914062 72.140625 C-153.54185013 65.59463249 -151.68958424 60.00747028 -149 54 C-148.41550244 52.62549449 -147.83204155 51.25054732 -147.25 49.875 C-146.8375 48.92625 -146.425 47.9775 -146 47 C-145.34 47 -144.68 47 -144 47 C-143.88785156 46.27296875 -143.77570313 45.5459375 -143.66015625 44.796875 C-139.90248465 28.87679887 -121.03654744 13.52962675 -108 5 C-107.13890625 4.43023437 -106.2778125 3.86046875 -105.390625 3.2734375 C-100.61970271 0.26568215 -95.8017584 -2.07225709 -90.51953125 -4.04296875 C-88.51625187 -4.80390433 -86.54266087 -5.64289475 -84.58203125 -6.5078125 C-57.923046 -17.61330036 -25.24013 -11.78059283 0 0 Z M-81.5 60.5 C-84.14701141 63.14701141 -86.01922283 65.83075652 -88 69 C-88.65355469 69.7528125 -89.30710937 70.505625 -89.98046875 71.28125 C-92.23490117 74.31623059 -93.15054406 76.87700292 -94.1875 80.5 C-94.51105469 81.6034375 -94.83460938 82.706875 -95.16796875 83.84375 C-96.49891812 88.89260958 -97.15539242 93.52554339 -97.31185722 98.75621891 C-97.33232969 99.43679758 -97.35280216 100.11737624 -97.373895 100.8185785 C-97.44043923 103.14187318 -97.49834841 105.46526315 -97.55441284 107.78883362 C-97.57538437 108.62337641 -97.59635591 109.45791921 -97.61796294 110.31775118 C-98.25222092 136.35585048 -98.14308505 162.40461681 -98.13166858 188.44864942 C-98.12840053 196.3769095 -98.13110795 204.30516523 -98.13387203 212.23342509 C-98.13909519 227.76026854 -98.13869855 243.28710784 -98.13579312 258.81395167 C-98.13326313 272.40356692 -98.13262753 285.99318066 -98.13381577 299.5827961 C-98.13389215 300.48929914 -98.13396854 301.39580218 -98.13404724 302.329775 C-98.13435865 306.01090933 -98.13467706 309.69204366 -98.135007 313.37317799 C-98.1380562 347.80468591 -98.13530822 382.2361912 -98.1299101 416.66769871 C-98.125166 447.15924521 -98.12558993 477.65078752 -98.13037109 508.14233398 C-98.13574303 542.51517426 -98.13783942 576.88801223 -98.13475883 611.26085287 C-98.13443818 614.93503129 -98.13412534 618.60920972 -98.13381577 622.28338814 C-98.13373669 623.18785702 -98.13365761 624.0923259 -98.13357614 625.02420293 C-98.13244574 638.59398055 -98.13375563 652.16375648 -98.13629532 665.73353386 C-98.13917334 681.18669828 -98.13840024 696.63985796 -98.13301457 712.0930218 C-98.13036272 719.95831079 -98.12922107 727.82359203 -98.13266373 735.68888092 C-98.18342274 773.65881884 -98.18342274 773.65881884 -97.72782622 811.62483276 C-97.69643007 813.26678732 -97.66905709 814.90882567 -97.646446 816.55092471 C-97.42671128 831.48616927 -96.36560364 847.1583051 -85.59765625 858.5390625 C-74.68980985 868.6103673 -65.87402054 872.53020813 -51.125 872.4375 C-50.00480469 872.45748047 -48.88460937 872.47746094 -47.73046875 872.49804688 C-40.30102239 872.49371231 -34.62695568 871.35155553 -28 868 C-27.31873047 867.65573975 -26.63746094 867.31147949 -25.93554688 866.95678711 C-23.99312321 865.92857358 -22.08866905 864.85244442 -20.1875 863.75 C-19.50010742 863.35796387 -18.81271484 862.96592773 -18.10449219 862.56201172 C-13.93221588 860.16667291 -9.82910487 857.67640922 -5.75 855.125 C1.52797983 850.5808342 9.05764391 846.51496705 16.59375 842.41796875 C21.76394554 839.59571344 26.69123941 836.56378271 31.5625 833.25 C36.47138588 829.96349196 41.46390922 826.92770381 46.5859375 823.98828125 C50.84358746 821.50871165 55.04797133 818.94739851 59.25 816.375 C59.99459473 815.91955811 60.73918945 815.46411621 61.50634766 814.99487305 C65.08072139 812.80408941 68.63999402 810.59404859 72.1796875 808.34765625 C76.20751219 805.82530055 80.39402362 803.76998593 84.6796875 801.72265625 C89.24671956 799.35317256 93.60557141 796.67285332 98 794 C99.60737559 793.03399499 101.21543564 792.06912786 102.82421875 791.10546875 C103.61666992 790.62996582 104.40912109 790.15446289 105.22558594 789.66455078 C106.92794609 788.64320222 108.63042795 787.62205649 110.33300781 786.60107422 C114.15304395 784.31003311 117.97270099 782.0184828 121.78515625 779.71484375 C130.51613843 774.44498949 139.3191688 769.30312775 148.13525391 764.17700195 C155.12456306 760.1086892 162.07126607 755.97870378 168.9765625 751.76953125 C170.98573648 750.59361935 173.03758787 749.48769099 175.125 748.45703125 C177.78090884 747.11103397 179.9962238 745.65264142 182.375 743.875 C187.1076071 740.50756803 192.04155068 737.64397036 197.11499023 734.83618164 C203.60275082 731.24152053 210.02641742 727.5420759 216.4375 723.8125 C217.44377441 723.23040771 218.45004883 722.64831543 219.48681641 722.04858398 C224.74555361 718.98527153 229.85724184 715.79678107 234.89379883 712.38208008 C238.83729333 709.79437608 242.99404997 707.59400589 247.13671875 705.34570312 C250.44153052 703.52514635 253.57332358 701.64416181 256.6171875 699.41015625 C259.59996257 697.22163616 262.65431392 695.59590545 266 694 C274.16089398 689.4950267 282.12845201 684.72023028 290.046875 679.8046875 C293.21982359 677.86566336 296.43968891 676.05012868 299.703125 674.26953125 C303.47376408 672.18541952 307.18166554 669.99471691 310.8984375 667.81640625 C312.92149923 666.63161569 314.94742018 665.4516899 316.9765625 664.27734375 C323.49186 660.50397224 329.90952253 656.60468767 336.28515625 652.6015625 C339 651 339 651 342 650 C342.45117188 649.54367187 342.90234375 649.08734375 343.3671875 648.6171875 C345.41683996 646.58714894 347.57474622 645.46915085 350.125 644.125 C358.75594019 639.54684912 367.22267452 634.73476867 375.625 629.75 C376.59356934 629.17644775 377.56213867 628.60289551 378.56005859 628.01196289 C386.39114407 623.37066933 394.20116133 618.69519989 402 614 C422.13783748 601.88264113 422.13783748 601.88264113 431.41015625 596.51171875 C433.9775467 595.01310622 436.52114022 593.47976046 439.0625 591.9375 C442.43309032 589.903338 445.84295407 587.98511783 449.3125 586.125 C455.70384406 582.67656295 461.83462191 578.83315641 468 575 C472.99777394 571.93235021 478.02182503 568.96433559 483.1875 566.1875 C491.45716209 561.72024953 499.47836455 556.81420088 507.4609375 551.85546875 C512.49597523 548.7280047 517.52195068 545.67055415 522.75 542.875 C526.02441511 541.12269464 529.13130063 539.29621979 532.1875 537.1875 C536.69635666 534.10750636 541.42132326 531.46943791 546.19287109 528.8269043 C553.45907006 524.78555363 560.59468729 520.52870793 567.7253418 516.25366211 C568.62679932 515.71620361 569.52825684 515.17874512 570.45703125 514.625 C571.6632312 513.90183594 571.6632312 513.90183594 572.89379883 513.1640625 C575 512 575 512 578 511 C578.47050781 510.52949219 578.94101562 510.05898438 579.42578125 509.57421875 C581.2138024 507.7861976 582.91087609 506.8948294 585.1875 505.8125 C585.90292969 505.46832031 586.61835937 505.12414062 587.35546875 504.76953125 C587.89816406 504.51558594 588.44085937 504.26164062 589 504 C589 503.34 589 502.68 589 502 C589.87785156 501.75765625 590.75570312 501.5153125 591.66015625 501.265625 C601.80113648 497.42272723 607.3119906 488.7009766 611.7578125 479.39453125 C615.2112142 469.95740522 616.18392264 454.46496278 612 445 C608.13824481 437.07323934 603.91665772 431.40839976 597 426 C596.319375 425.278125 595.63875 424.55625 594.9375 423.8125 C592.81554486 421.82744519 590.53593238 420.54712955 588.01293945 419.13061523 C584.52537831 417.17174372 581.07649575 415.14655157 577.625 413.125 C576.87404053 412.68518799 576.12308105 412.24537598 575.34936523 411.79223633 C571.50774202 409.52758216 567.73702034 407.21825194 564.0625 404.6875 C560.30863029 402.10215005 556.38554504 400.10820227 552.26171875 398.17578125 C549.95821952 396.97827992 548.06771439 395.56280739 546 394 C544.36920989 393.07706536 542.72172433 392.18328089 541.0625 391.3125 C535.58305101 388.37159414 530.31879143 385.14611036 525.0390625 381.86328125 C521.94988461 379.96927373 518.81683097 378.20672853 515.63671875 376.47265625 C507.19354312 371.7569863 498.89363001 366.76409724 490.625 361.75 C487.31948204 359.7532658 483.96632723 357.88649181 480.5625 356.0625 C476.87387235 354.07393817 473.32623975 351.97037882 469.8125 349.6875 C464.64402938 346.33578017 459.32655256 343.32004741 453.92114258 340.37182617 C450.40446626 338.43344807 447.03565644 336.38445709 443.71484375 334.125 C438.5421405 330.62728314 433.14081618 327.5973302 427.6875 324.5625 C425.64029104 323.41465792 423.59341218 322.26622689 421.546875 321.1171875 C420.09764648 320.30459473 420.09764648 320.30459473 418.61914062 319.47558594 C414.632826 317.22975395 410.6855898 314.92188327 406.7421875 312.6015625 C404.12573381 311.07343428 401.49416793 309.57395992 398.85791016 308.08032227 C392.42759986 304.43496414 386.10986556 300.64400955 379.83203125 296.7421875 C377.65794068 295.40474696 375.4796128 294.11538229 373.25 292.875 C370.62509648 291.36063259 368.18059552 289.77514822 365.6875 288.0625 C357.90423125 282.47484542 357.90423125 282.47484542 349 280 C349 279.34 349 278.68 349 278 C347.43778119 277.14531917 345.87520012 276.29130049 344.3125 275.4375 C343.32121094 274.89480469 342.32992188 274.35210937 341.30859375 273.79296875 C339.01590637 272.5505325 336.71973106 271.32323664 334.41015625 270.11328125 C333.24355469 269.49839844 332.07695313 268.88351562 330.875 268.25 C329.77929688 267.67765625 328.68359375 267.1053125 327.5546875 266.515625 C325 265 325 265 324 263 C322.44825199 262.07013573 320.85674208 261.20623362 319.25 260.375 C315.00314057 258.1176603 310.89010508 255.73791216 306.8125 253.1875 C301.48979728 249.87642906 296.08737383 246.76739071 290.60620117 243.72753906 C283.37448566 239.69564426 276.27591369 235.4403227 269.18579102 231.1652832 C268.28143311 230.62476318 267.3770752 230.08424316 266.4453125 229.52734375 C265.63594238 229.03999756 264.82657227 228.55265137 263.99267578 228.05053711 C262.08057462 226.84454724 262.08057462 226.84454724 260 227 C260 226.34 260 225.68 260 225 C259.23816406 224.63648438 258.47632813 224.27296875 257.69140625 223.8984375 C251.8900152 221.07379017 246.44993233 218.11218233 241.1484375 214.4375 C238.25890889 212.50414268 235.23748714 210.87146183 232.18359375 209.21484375 C230.07381282 208.04106581 228.03720566 206.79493667 226 205.5 C222.56113545 203.32024727 219.0435251 201.33621655 215.4765625 199.375 C208.56499978 195.53766549 201.77141078 191.53043303 195.125 187.25 C189.00906176 182.88977299 189.00906176 182.88977299 182 181 C182 180.34 182 179.68 182 179 C181.38253906 178.70867187 180.76507813 178.41734375 180.12890625 178.1171875 C175.72094994 175.98365614 171.53351507 173.78521792 167.5 171 C163.65468591 168.34619168 159.69834195 166.31478088 155.4921875 164.296875 C152.1305304 162.54754874 149.08568418 160.43772225 146.0078125 158.234375 C143.98444163 156.99043493 142.32063906 156.43707103 140 156 C140 155.34 140 154.68 140 154 C139.42894531 153.731875 138.85789062 153.46375 138.26953125 153.1875 C130.00500968 149.19320023 122.24710789 144.43339697 114.5703125 139.41015625 C111.05785892 137.12374779 108.28534983 135.40175155 104 135 C104 134.34 104 133.68 104 133 C102.15964807 131.64074351 102.15964807 131.64074351 99.75 130.3125 C98.37328125 129.51392578 98.37328125 129.51392578 96.96875 128.69921875 C95.9890625 128.13847656 95.009375 127.57773438 94 127 C92.08298356 125.87559613 90.16632436 124.75058299 88.25 123.625 C84.37091436 121.36553259 80.47868037 119.13101293 76.57592773 116.9128418 C71.60500871 114.0874137 66.67880438 111.22361113 61.859375 108.14453125 C59.7575632 106.85076894 57.60729955 105.67591486 55.4375 104.5 C52.01735333 102.63126006 48.88749225 100.58778473 45.80078125 98.2109375 C43.88980719 96.87011375 43.88980719 96.87011375 41.1953125 95.59765625 C37.85087797 93.92543899 34.73204703 92.04489376 31.5625 90.0625 C26.4579052 86.88200217 26.4579052 86.88200217 21.25 83.875 C18.70046059 82.40411188 16.31078834 80.87978085 13.8828125 79.2265625 C9.23853839 76.11625484 4.47495873 73.27551602 -0.375 70.5 C-1.20572021 70.02224121 -2.03644043 69.54448242 -2.89233398 69.05224609 C-8.88281654 65.61658833 -14.88950525 62.21865607 -21 59 C-21.84691406 58.55011719 -22.69382812 58.10023438 -23.56640625 57.63671875 C-42.58861104 47.79163871 -63.76851523 46.83658655 -81.5 60.5 Z " fill="#0B7066" transform="translate(307,70)"/>
</svg>
