<?xml version="1.0" encoding="UTF-8"?>
<svg version="1.1" xmlns="http://www.w3.org/2000/svg" width="900" height="837">
<path d="M0 0 C1.63988255 -0.00067697 3.279765 -0.00165023 4.91964722 -0.00289917 C8.32290623 -0.00435687 11.72613866 -0.00228414 15.12939453 0.00244141 C19.44318311 0.00814667 23.75690954 0.0048422 28.07069588 -0.00113106 C31.44603933 -0.00478154 34.82136856 -0.00357787 38.19671249 -0.00100327 C39.78557213 -0.00034682 41.37443316 -0.00111626 42.96329117 -0.00348282 C48.03682439 -0.0093877 53.10715128 0.03081127 58.1796875 0.1328125 C58.92153038 0.14601784 59.66337326 0.15922318 60.42769623 0.17282867 C62.62890074 0.22236549 64.82694608 0.3016862 67.02685547 0.39111328 C68.94714066 0.45892502 68.94714066 0.45892502 70.90621948 0.52810669 C74.66352585 1.22219167 75.88022887 2.14418832 78.1796875 5.1328125 C79.603754 9.04704993 79.59078917 12.23230408 77.8671875 16.0078125 C74.64152635 20.06975616 74.64152635 20.06975616 71.23048401 20.53547668 C69.32504066 20.6355024 69.32504066 20.6355024 67.38110352 20.73754883 C66.67530686 20.77492314 65.96951021 20.81229746 65.24232578 20.85080433 C56.78342461 21.26118227 48.31628438 21.34035354 39.84913445 21.42554283 C34.82171692 21.48027996 29.79469369 21.56157297 24.76757812 21.63867188 C18.4145506 21.73536703 12.0617751 21.82384412 5.70825195 21.88061523 C0.52803359 21.92760693 -4.65107155 22.00324193 -9.83062553 22.09812355 C-11.79241899 22.12885676 -13.75440587 22.14915989 -15.71641731 22.15860558 C-18.4541454 22.17317136 -21.18895729 22.22437573 -23.92602539 22.28393555 C-24.72663895 22.27949432 -25.5272525 22.2750531 -26.35212708 22.27047729 C-31.77573396 22.44086816 -34.56334439 23.93885977 -38.50409603 27.65484333 C-41.23776285 30.7244564 -41.00708725 33.34552095 -41.12559509 37.35681152 C-41.1555203 38.36325132 -41.1555203 38.36325132 -41.18605006 39.39002323 C-41.2519989 41.73319392 -41.30838576 44.07646116 -41.36303711 46.41992188 C-41.38378796 47.26819644 -41.4045388 48.116471 -41.42591846 48.99045086 C-42.14676676 79.41984806 -42.04843435 109.86869346 -42.11739457 140.30488911 C-42.13857864 149.57779228 -42.16495911 158.85067881 -42.19155776 168.12356776 C-42.23883318 184.65072958 -42.28220141 201.17789913 -42.32299805 217.70507812 C-42.36255986 233.7285217 -42.40403303 249.75195851 -42.44799805 265.77539062 C-42.45072232 266.7685122 -42.45344659 267.76163377 -42.45625342 268.78484994 C-42.46993627 273.76867259 -42.48365588 278.75249514 -42.49739373 283.73631763 C-42.61072677 324.86846835 -42.71767082 366.0006338 -42.8203125 407.1328125 C-41.77854607 407.13189071 -40.73677963 407.13096891 -39.66344452 407.13001919 C-14.26338664 407.10777616 11.13666996 407.09136614 36.53673553 407.08100033 C48.82022956 407.0758537 61.10371714 407.06884224 73.38720703 407.05737305 C84.09897666 407.04737618 94.81074161 407.0409472 105.52251577 407.03872401 C111.18929721 407.03742537 116.85606528 407.03439348 122.52284241 407.02708244 C127.86778943 407.02024316 133.2127177 407.01821147 138.55766869 407.01970482 C140.50859365 407.01943202 142.4595193 407.01747418 144.41044044 407.01360703 C153.30908352 406.99684849 162.20427779 407.02550731 171.09436035 407.45240784 C172.32355446 407.50939126 173.55274857 407.56637468 174.81919098 407.62508488 C179.75076723 408.37018236 183.10134113 410.25052911 186.9296875 413.3828125 C189.1796875 417.1328125 189.1796875 417.1328125 191.1796875 432.1328125 C249.2596875 432.1328125 307.3396875 432.1328125 367.1796875 432.1328125 C367.5096875 428.5028125 367.8396875 424.8728125 368.1796875 421.1328125 C369.98506687 415.24157456 372.28740798 412.59817716 377.1796875 409.1328125 C389.06824108 405.16996131 404.38800546 406.99465517 416.81445312 407.01928711 C418.83649189 407.01956985 420.85853075 407.01940955 422.88056946 407.0188446 C428.31954034 407.01856003 433.75848875 407.02440144 439.19745445 407.03141856 C444.90023049 407.03770905 450.60300716 407.03826038 456.30578613 407.03944397 C467.08233705 407.0425406 477.85887772 407.05073131 488.63542414 407.06079346 C500.91367385 407.07200665 513.19192408 407.07747812 525.47017765 407.08248889 C550.7066866 407.09291547 575.94318647 407.11048232 601.1796875 407.1328125 C601.07457015 365.13664881 600.96468143 323.14049994 600.84857056 281.14436513 C600.83480427 276.16378909 600.82107668 271.18321294 600.80737305 266.20263672 C600.80328059 264.71559142 600.80328059 264.71559142 600.79910546 263.19850481 C600.75527022 247.23704665 600.71455543 231.27558202 600.67503489 215.31411266 C600.63428181 198.88352946 600.59008028 182.45295802 600.54280895 166.02239227 C600.51641674 156.8158154 600.49154711 147.60923996 600.47061348 138.40264893 C600.4196993 116.31234481 600.33876391 94.22262244 600.1796875 72.1328125 C600.17178491 70.9327784 600.16388232 69.73274429 600.15574026 68.49634552 C600.11387335 62.40519037 600.05391924 56.3150677 599.95008838 50.22463417 C599.92387795 48.56689565 599.90383352 46.90904479 599.89082253 45.25115013 C599.8720375 43.08496511 599.82901449 40.92075517 599.77793884 38.75512695 C599.74953871 37.02550468 599.74953871 37.02550468 599.72056484 35.26094055 C598.90193296 30.52643762 596.62642403 27.33725139 592.96565247 24.2895813 C589.19075937 22.72219671 585.62858819 22.6564896 581.60424805 22.62451172 C580.75139725 22.60617279 579.89854645 22.58783386 579.01985168 22.56893921 C576.2021112 22.51161572 573.38447896 22.47463649 570.56640625 22.4375 C568.5940344 22.40070393 566.62168791 22.36252478 564.64936829 22.32302856 C559.44920942 22.22215109 554.24891731 22.13801437 549.04840088 22.0579834 C540.76511298 21.92734771 532.48228585 21.76949608 524.19941139 21.61523819 C521.32836231 21.56383311 518.45727267 21.5183342 515.58610535 21.47409058 C511.25236567 21.4048379 506.91995393 21.31021828 502.58724594 21.19319916 C500.99166292 21.15317856 499.39586361 21.120964 497.79996109 21.0968399 C495.59029197 21.06078515 493.3836793 20.99381331 491.17504883 20.91845703 C489.31980339 20.87206589 489.31980339 20.87206589 487.42707825 20.82473755 C483.30598573 19.94665192 481.79369716 18.37311622 479.1796875 15.1328125 C477.87568748 11.30231245 477.97097036 9.67547706 479.4296875 5.8828125 C481.1796875 3.1328125 481.1796875 3.1328125 484.1796875 1.1328125 C487.35549927 0.72341919 487.35549927 0.72341919 491.27001953 0.51611328 C492.331216 0.45971522 492.331216 0.45971522 493.41385078 0.40217781 C501.51835349 0.00771243 509.62217386 -0.01208289 517.734375 0 C519.37232477 -0.00067673 521.01027444 -0.0016498 522.64822388 -0.00289917 C526.05504324 -0.00435965 529.4618361 -0.00227598 532.86865234 0.00244141 C537.18005939 0.00812847 541.49140401 0.00485548 545.80280876 -0.00113106 C549.17823739 -0.00478955 552.55365185 -0.00357401 555.92908096 -0.00100327 C557.51628757 -0.00034804 559.10349556 -0.00111166 560.69070053 -0.00348282 C569.12094855 -0.01331734 577.52900705 0.12134343 585.94970703 0.54345703 C586.69340986 0.5774655 587.43711269 0.61147396 588.20335197 0.64651299 C598.94609591 1.2503802 606.55284649 5.67691793 614.1796875 13.1328125 C619.95613042 20.18627896 622.40105925 26.9015989 622.79717159 36.02110958 C622.83480346 36.76587885 622.87243533 37.51064813 622.91120755 38.27798617 C623.26472146 45.82373985 623.31661683 53.36708807 623.29994202 60.9200592 C623.30037957 62.42790906 623.30125785 63.93575884 623.30253118 65.44360822 C623.30473998 69.532579 623.30080519 73.62152298 623.29575312 77.71049035 C623.29139613 82.14036241 623.29289874 86.57023321 623.2936554 91.00010681 C623.29417733 98.65712397 623.29106521 106.31413254 623.28541756 113.97114754 C623.27725756 125.04162659 623.27468274 136.11210153 623.27342957 147.18258327 C623.27124609 165.14784757 623.26460517 183.11310731 623.25512695 201.07836914 C623.24593457 218.52010068 623.23886268 235.96183098 623.23461914 253.40356445 C623.23435642 254.48039055 623.23409369 255.55721665 623.23382301 256.66667385 C623.23251788 262.06930685 623.23125419 267.47193986 623.23001111 272.87457287 C623.21966044 317.62732258 623.20206137 362.3800673 623.1796875 407.1328125 C623.96504883 407.12233887 624.75041016 407.11186523 625.55957031 407.10107422 C629.182909 407.05901666 632.80619604 407.03333005 636.4296875 407.0078125 C637.66460938 406.99105469 638.89953125 406.97429687 640.171875 406.95703125 C659.54949361 406.85504378 659.54949361 406.85504378 666.3671875 411.1328125 C672.52604922 417.92879785 670.33266683 431.43681115 670.3046875 440.0078125 C670.30855469 441.18472656 670.31242188 442.36164063 670.31640625 443.57421875 C670.29651595 461.65450585 669.18177706 474.53665762 656.37109375 488.0390625 C648.44417626 495.55397804 638.57856444 500.1094464 627.72667027 500.68737602 C626.54675984 500.75057532 626.54675984 500.75057532 625.34301284 500.81505137 C613.37997066 501.38454693 601.40124128 501.27059644 589.42796326 501.25979614 C586.63205343 501.26039589 583.83614516 501.26249836 581.04023606 501.26452339 C574.9866963 501.26811494 568.93316548 501.26803799 562.87962532 501.26547623 C553.87749705 501.26167711 544.87537624 501.26363608 535.87324801 501.26668453 C519.79112986 501.27193823 503.70901569 501.27149871 487.62689717 501.26860562 C473.55347548 501.26608643 459.48005525 501.26543506 445.40663338 501.26662827 C444.00435487 501.26674284 444.00435487 501.26674284 442.57374751 501.26685974 C438.77853894 501.26717109 434.98333037 501.26748949 431.1881218 501.2678195 C395.61390808 501.27087589 360.03969689 501.26810913 324.46548357 501.2627226 C292.88331907 501.2579769 261.3011586 501.25840226 229.71899414 501.26318359 C194.20680764 501.26854199 158.69462337 501.27065949 123.18243653 501.26757133 C119.39459964 501.26725063 115.60676275 501.26693779 111.81892586 501.26662827 C110.88631618 501.26654919 109.9537065 501.26647011 108.99283593 501.26638864 C94.93007784 501.26525276 80.86732138 501.26657846 66.80456352 501.26910782 C50.81004886 501.27197035 34.8155388 501.27124525 18.82102471 501.26582707 C9.87737565 501.26289706 0.93373654 501.26269004 -8.00991226 501.26647325 C-13.99255864 501.26872415 -19.97519708 501.26730474 -25.95784229 501.26296848 C-29.36060617 501.26060203 -32.76333428 501.26030782 -36.16609997 501.26337446 C-84.04383239 501.30320145 -84.04383239 501.30320145 -100.5078125 485.7578125 C-115.17490241 470.52274872 -113.26859463 449.82532212 -112.90478516 430.08496094 C-112.51201647 416.35849007 -112.51201647 416.35849007 -109.421875 412.29296875 C-101.1692934 405.02667129 -88.42221136 407.00185231 -78.1953125 407.0703125 C-76.25978516 407.07708008 -76.25978516 407.07708008 -74.28515625 407.08398438 C-71.13015875 407.09566955 -67.97526113 407.11205206 -64.8203125 407.1328125 C-64.82088208 405.98660635 -64.82088208 405.98660635 -64.82146317 404.81724453 C-64.84385974 359.49000142 -64.8610084 314.16275892 -64.87137783 268.83551139 C-64.87262848 263.38838779 -64.87392281 257.9412642 -64.87524414 252.49414062 C-64.87550645 251.40975381 -64.87576876 250.325367 -64.87603902 249.20811999 C-64.88038581 231.66877449 -64.88826791 214.12943228 -64.8974653 196.59008873 C-64.90682939 178.58213405 -64.91237395 160.5741811 -64.91440099 142.5662241 C-64.9157705 131.46172384 -64.92009005 120.35723289 -64.92822897 109.2527355 C-64.93353042 101.62949948 -64.93510908 94.00626825 -64.93381388 86.38303053 C-64.9331758 81.990264 -64.93412762 77.59751368 -64.93951797 73.20475006 C-64.94442952 69.17244952 -64.94460095 65.14017589 -64.94121139 61.10787404 C-64.94079325 59.65941537 -64.9420231 58.21095494 -64.94519568 56.76249969 C-64.96046119 49.35407177 -64.84723002 41.9581307 -64.47685909 34.55903625 C-64.4155858 33.29222676 -64.35431251 32.02541727 -64.29118246 30.72021961 C-63.22694396 22.61212803 -58.97566424 15.17347059 -52.953125 9.6640625 C-45.16953395 4.07584329 -37.23026405 1.05886345 -27.74658203 0.57861328 C-26.94587343 0.53650286 -26.14516483 0.49439243 -25.32019234 0.45100594 C-16.87937159 0.03854567 -8.44911675 -0.01262232 0 0 Z M-89.8203125 428.1328125 C-91.57071939 450.4788453 -91.57071939 450.4788453 -84.57421875 471.46875 C-78.74180417 477.00239947 -74.01282622 479.21667523 -65.9284668 479.44466972 C-65.21388369 479.46514219 -64.49930058 479.48561466 -63.76306343 479.5067075 C-61.32783902 479.57330264 -58.89251844 479.63108998 -56.45703125 479.68722534 C-55.15678292 479.71868264 -55.15678292 479.71868264 -53.83026695 479.75077544 C-28.61359605 480.34543799 -3.39014949 480.27620949 21.83190274 480.26448108 C29.31927332 480.26120742 36.80663932 480.26392289 44.29400969 480.26668453 C58.95639696 480.27190289 73.61877983 480.27151303 88.28116751 480.26860562 C101.113715 480.26607404 113.9462609 480.26544075 126.77880859 480.26662827 C127.63533441 480.26670465 128.49186023 480.26678104 129.37434137 480.26685974 C132.85265428 480.26717116 136.33096719 480.26748956 139.8092801 480.2678195 C172.33219957 480.27086753 204.85511626 480.26812254 237.37803531 480.2627226 C266.17129586 480.25797823 294.96455199 480.25840291 323.7578125 480.26318359 C356.22734139 480.26855686 388.69686783 480.27065122 421.16639709 480.26757133 C424.63778686 480.26725069 428.10917664 480.26693784 431.58056641 480.26662827 C432.43509537 480.26654919 433.28962434 480.26647011 434.17004812 480.26638864 C446.98364604 480.26525882 459.79724217 480.266567 472.61083984 480.26910782 C487.20393178 480.27198735 501.79701869 480.27120959 516.39011002 480.26582707 C523.81592329 480.26317729 531.24172833 480.26203974 538.6675415 480.26547623 C555.08371189 480.27226798 571.49914641 480.23982294 587.91510773 480.14773017 C591.11024283 480.13312983 594.30526197 480.12777366 597.50042725 480.12523413 C602.2691734 480.1197579 607.03675412 480.08529398 611.80512047 480.02543364 C613.48381285 480.008666 615.1626383 480.00158768 616.84140968 480.00557686 C626.14487646 480.0202626 633.81625493 479.55842629 641.1796875 473.1328125 C651.65455484 461.54634319 648.1796875 442.28402696 648.1796875 428.1328125 C563.0396875 428.1328125 477.8996875 428.1328125 390.1796875 428.1328125 C388.6946875 434.0728125 388.6946875 434.0728125 387.1796875 440.1328125 C384.47066851 445.65118452 380.87161484 448.94154818 375.1796875 451.1328125 C371.79033661 451.56063652 371.79033661 451.56063652 367.9041748 451.76144409 C367.20180049 451.7982138 366.49942618 451.83498352 365.7757678 451.87286747 C358.13261253 452.2409549 350.48811041 452.27361465 342.83789062 452.26220703 C341.27530375 452.26356677 339.71271719 452.26534989 338.15013123 452.26751709 C333.95798117 452.27202337 329.76585609 452.27033027 325.57370567 452.267138 C321.15432043 452.26457882 316.7349371 452.26696174 312.31555176 452.26852417 C304.8986778 452.27033558 297.48181384 452.26796667 290.06494141 452.26318359 C281.53072638 452.25774297 272.99653525 452.25950636 264.4623208 452.26501 C257.09110642 452.26957056 249.71989917 452.27017735 242.34868383 452.26757133 C237.96540785 452.26602467 233.58214304 452.26577001 229.1988678 452.26910782 C225.07501691 452.27202961 220.95119637 452.26993306 216.82734871 452.26421356 C215.32792778 452.26290879 213.82850423 452.26324037 212.3290844 452.26547623 C204.69882681 452.27579148 197.07684261 452.1672127 189.4552002 451.79269409 C188.1727668 451.73222837 186.8903334 451.67176266 185.56903839 451.60946465 C179.06379505 450.69461744 175.96638791 447.15460507 171.8046875 442.4453125 C170.1796875 439.1328125 170.1796875 439.1328125 168.1796875 428.1328125 C83.0396875 428.1328125 -2.1003125 428.1328125 -89.8203125 428.1328125 Z " fill="#FFFFFF" transform="translate(177.8203125,258.8671875)"/>
<path d="M0 0 C3.72473229 3.07032094 4.73389491 5.81282745 6.33203125 10.25 C9.59843333 18.44083428 13.19715366 23.00234895 21.15625 27.07421875 C25.33608661 28.79457494 29.28947472 28.97500789 33.76953125 28.9375 C34.95820801 28.92891968 34.95820801 28.92891968 36.17089844 28.92016602 C44.37460993 28.67062666 50.42663007 26.30968891 56.26953125 20.4375 C58.83349367 17.17688673 60.06629518 13.6995415 61.45703125 9.8125 C63.48248044 4.23610508 64.68195298 1.27792676 69.95703125 -1.5625 C82.07479696 -5.13823414 96.16418002 2.33895653 107.20703125 7 C108.54652832 7.56340088 108.54652832 7.56340088 109.91308594 8.13818359 C115.85527056 10.7283957 120.57834718 12.95586868 123.83203125 18.8125 C125.69358553 24.81084158 124.15276818 28.06247419 121.39453125 33.4375 C118.03455704 40.56648877 117.76911497 47.95555846 119.43359375 55.63671875 C122.21480123 63.0923653 127.99977342 68.08770919 134.95703125 71.4375 C143.57119492 74.23332505 153.04022278 73.12886676 161.26953125 69.875 C167.11496669 67.57905019 171.91628465 66.02120136 177.95703125 68.4375 C188.59459845 75.79349885 195.66050401 96.09448546 198.5859375 107.99609375 C199.42024223 113.20391172 198.82984412 116.85895448 195.95703125 121.4375 C191.98618485 124.33290883 188.1625266 125.71736076 183.51953125 127.25 C176.61201576 129.68850478 171.4033842 133.64608751 167.45703125 139.875 C164.49385728 146.63474063 164.82559031 155.97868543 166.6171875 163.0390625 C170.88484215 172.60895475 179.75676405 175.88517461 188.95703125 179.4375 C195.93377544 182.49747552 195.93377544 182.49747552 197.95703125 186.4375 C199.18581496 192.63484393 198.753209 196.84158588 196.64453125 202.75 C196.24717773 203.89601685 196.24717773 203.89601685 195.84179688 205.06518555 C193.6256878 211.16630241 190.92386838 216.98055837 187.95703125 222.75 C187.35314575 223.9407312 187.35314575 223.9407312 186.73706055 225.15551758 C183.80603881 230.62084165 180.73943817 234.89727664 174.7890625 237.3203125 C170.03658638 237.89024194 167.3470718 237.31205601 163.14453125 235 C157.65833237 232.21804646 152.8079079 231.90535469 146.76953125 231.875 C145.92608154 231.86090088 145.08263184 231.84680176 144.21362305 231.83227539 C136.93013473 231.94595701 131.71077241 234.059269 126.20703125 238.8125 C120.37637995 245.61492651 117.50060633 251.98098909 118.14453125 261.08984375 C119.00696752 266.08735391 120.68172628 270.18288768 123.05859375 274.6328125 C124.38295001 277.29304117 124.89248225 279.46824584 124.95703125 282.4375 C122.93899559 288.25419101 119.09670327 291.7624697 113.7746582 294.60180664 C111.25343375 295.77533415 108.71306426 296.87148862 106.14453125 297.9375 C105.2225293 298.32333252 104.30052734 298.70916504 103.35058594 299.10668945 C78.63518044 309.24443286 78.63518044 309.24443286 70.7421875 306.4765625 C65.05164437 303.16434265 62.85126452 298.43368593 60.58203125 292.4375 C57.78446691 285.25018841 53.71243813 281.79645188 47.3203125 277.78125 C42.82020912 275.98329929 38.88261203 275.96076791 34.08203125 276 C33.22222656 275.98001953 32.36242187 275.96003906 31.4765625 275.93945312 C24.02398662 275.94510758 18.84028586 277.94741647 13.20703125 282.8125 C9.49687684 287.14101348 6.96539323 291.24073149 4.95703125 296.5625 C3.51449115 300.3244183 2.27853175 302.97316092 -1.04296875 305.4375 C-15.19681604 310.1554491 -31.40783474 301.46063183 -43.98046875 295.3125 C-44.62395264 295.00054687 -45.26743652 294.68859375 -45.93041992 294.3671875 C-50.55198009 291.99620673 -54.85517933 289.2703252 -56.92578125 284.33203125 C-57.61257356 278.42783283 -56.1170856 275.10035968 -53.26171875 269.9765625 C-51.2890728 265.86688343 -51.04296875 261.94607316 -51.04296875 257.4375 C-51.04296875 256.66277344 -51.04296875 255.88804687 -51.04296875 255.08984375 C-51.40439857 248.50504425 -53.93278386 243.65637415 -58.49609375 238.93359375 C-64.87516454 233.30993923 -70.49479483 231.88273435 -78.73046875 231.9375 C-79.62096924 231.93741943 -80.51146973 231.93733887 -81.42895508 231.93725586 C-87.71573229 232.0754583 -92.18254999 233.31838965 -97.72265625 236.375 C-101.56412473 238.13405627 -105.12008841 237.85821883 -109.04296875 236.4375 C-114.60637073 233.48444915 -116.83795158 230.13251302 -119.54296875 224.6875 C-119.92388672 223.94105225 -120.30480469 223.19460449 -120.69726562 222.42553711 C-133.02582379 197.72943925 -133.02582379 197.72943925 -130.35546875 186.5625 C-127.47396508 181.89720835 -124.60029695 180.00225676 -119.35546875 178.5625 C-110.74363186 175.85292205 -104.5071365 172.30262339 -99.91796875 164.3671875 C-96.68118289 157.22891868 -97.00599363 148.42299452 -99.54296875 141.125 C-102.38678369 134.95184073 -106.58083451 130.9598569 -112.796875 128.2265625 C-115.52932614 127.23767542 -118.2789788 126.33347228 -121.04296875 125.4375 C-125.29240152 123.61631453 -127.53502143 122.29320848 -130.04296875 118.4375 C-133.64070518 108.57775747 -127.97615875 97.75421376 -123.85351562 88.87597656 C-122.5971979 86.27304934 -121.30248763 83.69513916 -119.98046875 81.125 C-119.56949951 80.31877197 -119.15853027 79.51254395 -118.73510742 78.68188477 C-116.03532977 73.63302666 -113.49667893 69.67935286 -107.859375 67.65234375 C-102.30477196 66.9688484 -98.50569895 67.8156498 -93.29296875 69.875 C-84.11142522 73.46169655 -74.32097483 74.18260837 -65.00390625 70.4765625 C-59.00302414 67.29681222 -54.5818065 62.81830918 -52.04296875 56.4375 C-51.46829935 53.14874209 -51.42555334 49.95758072 -51.48046875 46.625 C-51.4848999 45.7371582 -51.48933105 44.84931641 -51.49389648 43.93457031 C-51.65915773 37.87832978 -52.76270032 33.66952983 -55.9765625 28.46875 C-57.9283499 24.75105972 -57.23256716 22.40282803 -56.04296875 18.4375 C-52.19294454 12.7155152 -47.93543533 10.51343468 -41.66796875 7.875 C-40.78616943 7.49150391 -39.90437012 7.10800781 -38.99584961 6.71289062 C-10.58784975 -5.43663659 -10.58784975 -5.43663659 0 0 Z M-16.04296875 20.4375 C-18.19002856 21.24675342 -20.33558705 22.05999113 -22.48046875 22.875 C-23.67542969 23.32746094 -24.87039063 23.77992188 -26.1015625 24.24609375 C-28.88742598 25.1519826 -28.88742598 25.1519826 -30.04296875 26.4375 C-29.97808124 28.00364842 -29.84030245 29.56701016 -29.66796875 31.125 C-29.51908203 32.48818359 -29.51908203 32.48818359 -29.3671875 33.87890625 C-29.12614058 35.78114398 -28.82015065 37.67537833 -28.48046875 39.5625 C-26.31868157 53.76853005 -31.31252046 66.16018581 -39.29296875 77.6875 C-49.94829551 88.34282676 -64.01780746 94.16833792 -79.04296875 94.6875 C-83.24583885 94.58393852 -87.29665482 93.69634621 -91.41015625 92.8828125 C-94.69807199 92.32669619 -97.71888828 92.28976309 -101.04296875 92.4375 C-101.91390665 94.15828041 -102.76411433 95.88956323 -103.60546875 97.625 C-104.08113281 98.58792969 -104.55679687 99.55085938 -105.046875 100.54296875 C-106.17065309 103.80853567 -106.37412801 105.25452644 -105.04296875 108.4375 C-102.8025323 110.10077325 -102.8025323 110.10077325 -99.98046875 111.3125 C-88.85019753 117.0000254 -81.33998147 125.29829207 -77.16796875 137.25 C-73.39716975 150.3436947 -74.52150831 162.90037312 -80.66796875 175.125 C-86.41329319 184.98022237 -95.19815001 192.70959356 -106.04296875 196.4375 C-105.55251381 202.20034555 -104.12863105 207.47915988 -101.04296875 212.4375 C-97.20055698 213.71830392 -95.82179672 212.74555584 -92.04296875 211.4375 C-76.91269006 208.41144426 -61.40697207 210.8476713 -48.33984375 219.15625 C-37.52264008 227.25256195 -31.41443455 237.55639251 -28.29296875 250.5625 C-27.72863629 257.05232324 -27.86493398 262.79212397 -29.60546875 269.1015625 C-30.19146036 272.23033916 -30.10446337 275.26284002 -30.04296875 278.4375 C-27.7758855 279.3030047 -25.50521796 280.15509315 -23.23046875 281 C-22.58787109 281.24685547 -21.94527344 281.49371094 -21.28320312 281.74804688 C-17.22782146 283.28538661 -17.22782146 283.28538661 -13.04296875 282.4375 C-11.64060538 280.38376985 -11.64060538 280.38376985 -10.35546875 277.875 C-3.38425785 266.00874996 7.00928282 259.51202761 20.015625 255.4921875 C22.68396949 254.94225293 25.23963521 254.6191981 27.95703125 254.4375 C28.89675781 254.36917969 29.83648437 254.30085937 30.8046875 254.23046875 C46.61378375 253.66808983 60.35776134 258.43472296 71.9453125 269.2109375 C75.77693342 273.45176065 78.41439731 278.35223212 80.95703125 283.4375 C87.33966463 283.0212413 92.51507224 280.78399204 97.95703125 277.4375 C99.39303765 274.56548721 98.41137383 273.04811975 97.51953125 270 C94.31319253 257.60314198 95.84672174 246.12514056 101.64453125 234.6875 C108.18095369 223.60261815 118.40297714 216.19063475 130.5859375 212.26953125 C143.41059873 209.27101002 154.34700026 210.57854561 166.95703125 213.4375 C170.87122859 207.95463579 172.92390763 203.0988344 173.95703125 196.4375 C173.18359375 196.08558594 172.41015625 195.73367188 171.61328125 195.37109375 C158.78811082 189.29183598 150.47257325 181.59875184 145.08203125 168.1875 C141.24848579 155.40901512 141.99261288 141.7005171 148.14453125 129.75 C154.12944447 119.88829224 162.11992215 112.51802269 172.95703125 108.4375 C172.66590956 102.01826669 171.50488096 97.81649794 167.95703125 92.4375 C160.8366108 93.00286099 160.8366108 93.00286099 153.76953125 94 C140.03996711 96.13570998 126.35747684 91.72253767 114.89453125 84.3125 C104.81904378 76.9436264 98.86220875 66.93752271 96.14453125 54.8125 C95.69051769 46.64025598 96.1169969 39.42889006 97.95703125 31.4375 C98.29484365 29.77173541 98.62937647 28.10529232 98.95703125 26.4375 C96.89878696 25.59371025 94.83523339 24.76286378 92.76953125 23.9375 C91.04669922 23.24140625 91.04669922 23.24140625 89.2890625 22.53125 C85.17119789 21.1557789 85.17119789 21.1557789 80.95703125 21.4375 C79.21268677 23.41974941 79.21268677 23.41974941 77.95703125 26.0625 C77.44527344 26.97902344 76.93351563 27.89554688 76.40625 28.83984375 C75.92800781 29.69707031 75.44976562 30.55429688 74.95703125 31.4375 C68.27991877 41.16700675 55.92362382 47.36829464 44.51953125 49.6875 C29.42930607 52.00746537 15.08537405 49.28138774 2.3671875 40.6875 C-3.03238542 36.66014937 -6.86960862 32.41958583 -10.47265625 26.734375 C-12.11350382 24.3343293 -13.93270155 22.42900757 -16.04296875 20.4375 Z " fill="#FFFFFF" transform="translate(423.04296875,158.5625)"/>
<path d="M0 0 C2.72849794 2.63487301 3.55822568 4.61586494 4.765625 8.18359375 C7.20053204 14.51435205 10.3212524 18.27390745 16.390625 21.30859375 C28.09634704 22.46712326 28.09634704 22.46712326 38.65625 18.40625 C41.5904352 14.85747195 43.63492097 10.8033751 45.60351562 6.65405273 C48.76193722 0.0255232 48.76193722 0.0255232 52.390625 -1.69140625 C59.4263897 -3.55314711 65.01472265 -2.05692574 71.703125 0.37109375 C73.0797229 0.85328369 73.0797229 0.85328369 74.48413086 1.34521484 C93.78041023 8.2570607 93.78041023 8.2570607 98.390625 15.30859375 C99.61311074 21.38251898 98.2991762 25.95685955 95.390625 31.30859375 C93.81582098 38.69805879 94.54764558 45.67728716 98.390625 52.30859375 C99.71470169 52.993461 101.04971741 53.65729578 102.390625 54.30859375 C105.72647541 57.02382083 107.19918901 58.63856777 108.390625 62.80859375 C108.390625 66.72213853 107.75030423 68.24975031 105.390625 71.30859375 C102.67447271 74.02474604 100.56634141 74.073293 96.82421875 74.390625 C89.94685662 74.1588038 84.8233834 69.50760902 80.28515625 64.71875 C75.43199688 58.54473076 71.68444496 51.24173256 71.390625 43.30859375 C71.33455078 42.17357422 71.33455078 42.17357422 71.27734375 41.015625 C71.0956244 34.84673131 72.01721122 29.31727904 73.390625 23.30859375 C70.090625 22.64859375 66.790625 21.98859375 63.390625 21.30859375 C63.0503125 22.36046875 63.0503125 22.36046875 62.703125 23.43359375 C58.59846776 32.42474772 50.03879291 37.97937906 41.140625 41.68359375 C28.89799667 46.12510542 16.46083029 45.02750065 4.50390625 40.125 C-2.62523207 36.6151174 -8.00529688 31.79713175 -12.609375 25.30859375 C-13.104375 23.32859375 -13.104375 23.32859375 -13.609375 21.30859375 C-16.909375 21.96859375 -20.209375 22.62859375 -23.609375 23.30859375 C-23.114375 25.47421875 -23.114375 25.47421875 -22.609375 27.68359375 C-20.25381435 39.61282591 -21.60984228 50.02974058 -27.72265625 60.59765625 C-34.77446432 70.73006785 -45.33141802 76.78257421 -57.3671875 79.03125 C-65.06471263 79.9833829 -72.09830544 79.09846565 -79.609375 77.30859375 C-81.77135667 81.64627477 -81.77135667 81.64627477 -82.609375 86.30859375 C-81.88492188 86.56898438 -81.16046875 86.829375 -80.4140625 87.09765625 C-70.74526572 91.27220639 -64.87291806 98.92382696 -60.609375 108.30859375 C-57.02451584 118.25939114 -57.5994242 129.68319185 -61.94921875 139.2578125 C-66.71095033 148.18745972 -72.94674575 154.83554907 -82.609375 158.30859375 C-82.20105384 162.44822299 -82.20105384 162.44822299 -80.3203125 166.05859375 C-78.7037243 167.52358348 -78.7037243 167.52358348 -76.69921875 167.1640625 C-75.98894531 166.94363281 -75.27867187 166.72320312 -74.546875 166.49609375 C-63.74212431 163.70777099 -52.75174355 165.39957883 -42.859375 170.55859375 C-41.42087097 171.44059622 -40.00374587 172.35835583 -38.609375 173.30859375 C-37.85140625 173.82421875 -37.0934375 174.33984375 -36.3125 174.87109375 C-32.46624584 177.81716076 -30.17864666 180.03492129 -29.421875 184.93359375 C-29.34796185 188.88458748 -29.82354501 191.34864939 -32.609375 194.30859375 C-35.92245387 196.14919312 -38.35174403 197.33926768 -42.171875 197.24609375 C-46.06825118 195.74748753 -49.27578628 193.42085157 -52.46875 190.7578125 C-56.94140911 187.72978964 -62.8428918 187.03237039 -68.15234375 187.5625 C-71.32015074 188.23638859 -74.15463997 189.10396299 -77.109375 190.43359375 C-81.80484962 192.07700987 -86.61176158 192.00543564 -91.296875 190.37109375 C-100.0329793 182.57943316 -107.97008151 165.78325105 -108.76171875 154.05078125 C-108.37591592 150.69780389 -107.6826734 148.41727759 -105.796875 145.62109375 C-101.93640511 142.82036069 -98.00662194 141.26115034 -93.546875 139.6171875 C-88.42764197 137.33667811 -84.95573122 134.44359058 -82.609375 129.30859375 C-81.62663103 122.93218518 -81.30013128 116.22561475 -84.984375 110.68359375 C-88.74902485 106.50064947 -93.4170365 105.0996219 -98.609375 103.30859375 C-102.38248168 101.66137927 -105.10441445 99.9871345 -107.609375 96.62109375 C-110.95943117 85.52403268 -103.58267895 72.81176309 -98.484375 63.12109375 C-96.25191019 59.0156288 -93.9373046 55.45181462 -89.63671875 53.33984375 C-84.87256739 52.12876976 -81.98422909 52.28597745 -77.421875 54.18359375 C-70.33207978 57.10116397 -62.4262079 58.05813893 -55.08203125 55.390625 C-50.7339188 52.88863851 -47.5723099 49.97056414 -45.609375 45.30859375 C-44.73029216 37.77228981 -44.85884458 31.72158011 -48.7578125 25.171875 C-50.45802384 21.4516878 -49.91849924 18.07464671 -48.609375 14.30859375 C-44.32696899 9.1499355 -38.4548664 6.5386504 -32.359375 4.12109375 C-31.52035645 3.78086182 -30.68133789 3.44062988 -29.81689453 3.09008789 C-8.4054414 -5.44843731 -8.4054414 -5.44843731 0 0 Z " fill="#FFFFFF" transform="translate(291.609375,49.69140625)"/>
<path d="M0 0 C2.74376525 2.63223008 3.56724594 4.60398496 4.77734375 8.1796875 C7.21225079 14.5104458 10.33297115 18.2700012 16.40234375 21.3046875 C28.250465 22.43464474 28.250465 22.43464474 38.86328125 18.0625 C41.90157786 14.59236428 43.60210632 10.50754951 45.40234375 6.3046875 C47.30974881 2.71876599 48.76396939 0.21962138 52.40234375 -1.6953125 C59.44843797 -3.40402306 64.95630412 -2.10746608 71.65234375 0.3046875 C73.02398682 0.78301025 73.02398682 0.78301025 74.42333984 1.27099609 C94.52108592 8.49257111 94.52108592 8.49257111 98.40234375 16.3046875 C100.17833763 21.51426956 98.65822067 24.33154724 96.40234375 29.015625 C93.64057895 35.33747723 93.93019638 41.90402871 96.40234375 48.3046875 C100.16437577 53.11172842 104.60492061 55.93677995 110.69921875 56.73828125 C117.73701624 56.74624256 122.72842467 56.02865161 129.08984375 53.078125 C133.08201919 51.74290416 136.64501678 52.57589884 140.40234375 54.3046875 C145.15429774 57.37643346 147.12437583 60.90068661 149.46484375 65.8671875 C149.97917969 66.93573975 149.97917969 66.93573975 150.50390625 68.02587891 C159.12203325 86.19194034 159.12203325 86.19194034 157.40234375 95.3046875 C154.42026863 101.26883773 149.43819526 102.7230208 143.50854492 105.046875 C137.78620689 107.3592381 135.15326298 109.80284904 132.40234375 115.3046875 C131.92777692 121.37291914 131.51590115 127.19938634 133.90234375 132.8671875 C138.24869351 137.10487851 142.82210547 139.86685483 148.58984375 141.7421875 C152.90750487 143.29211713 155.0522304 145.26543019 157.40234375 149.3046875 C160.28657193 161.06177031 151.42634835 174.66783375 146.11328125 184.6953125 C143.69144237 188.38889326 141.56397269 189.91747785 137.40234375 191.3046875 C131.97180879 191.67285936 128.39319111 191.09151098 123.3984375 189.046875 C117.08682478 186.70009141 110.66640818 186.83435223 104.40234375 189.3046875 C102.34366083 190.7239528 102.34366083 190.7239528 100.40234375 192.3671875 C96.28368305 195.72952728 92.68531148 196.58752325 87.40234375 196.3046875 C83.95189847 195.40457134 81.4954413 194.23502406 79.40234375 191.3046875 C78.31608966 187.8131565 78.22428133 185.8626164 79.33984375 182.3671875 C85.85582599 172.69194114 95.34375965 168.37632601 106.390625 165.83984375 C114.6528214 164.37172325 122.26392156 165.57179152 130.40234375 167.3046875 C131.06234375 164.3346875 131.72234375 161.3646875 132.40234375 158.3046875 C131.74234375 158.0984375 131.08234375 157.8921875 130.40234375 157.6796875 C121.17805738 153.45188958 114.26339623 146.00349659 110.26953125 136.65234375 C109.49481788 134.21162056 108.89946266 131.81555929 108.40234375 129.3046875 C108.25023437 128.63953125 108.098125 127.974375 107.94140625 127.2890625 C106.19795292 117.7581843 109.29699901 108.30521508 114.40234375 100.3046875 C118.79273129 94.41009866 123.67166558 89.44883059 130.40234375 86.3046875 C131.06234375 86.3046875 131.72234375 86.3046875 132.40234375 86.3046875 C131.41234375 81.8496875 131.41234375 81.8496875 130.40234375 77.3046875 C129.25958984 77.52125 129.25958984 77.52125 128.09375 77.7421875 C112.70997134 80.50781063 99.71766398 79.31150658 86.40234375 70.3046875 C78.67785185 64.32054906 73.81630647 56.16253305 71.52734375 46.6796875 C71.48609375 45.5659375 71.44484375 44.4521875 71.40234375 43.3046875 C71.34626953 42.16966797 71.34626953 42.16966797 71.2890625 41.01171875 C71.10734315 34.84282506 72.02892997 29.31337279 73.40234375 23.3046875 C70.10234375 22.9746875 66.80234375 22.6446875 63.40234375 22.3046875 C62.53609375 23.635 62.53609375 23.635 61.65234375 24.9921875 C54.97092257 35.25294146 45.41449078 41.10171823 33.58984375 43.9921875 C20.15147217 45.30967491 7.58767282 43.32278479 -3.59765625 35.3046875 C-12.07293229 27.40358332 -12.07293229 27.40358332 -13.59765625 21.3046875 C-16.56765625 22.2946875 -19.53765625 23.2846875 -22.59765625 24.3046875 C-22.35015625 26.2228125 -22.35015625 26.2228125 -22.09765625 28.1796875 C-20.64472367 41.61404957 -21.92668262 52.51396524 -30.26953125 63.5078125 C-34.75166023 68.86256836 -38.97146564 73.09818366 -46.09765625 74.2421875 C-50.3534303 74.53643157 -53.08139429 73.87756211 -56.59765625 71.3046875 C-58.7978363 67.95658743 -59.12554895 64.46023744 -58.546875 60.4921875 C-56.80258941 56.47243469 -53.30226631 54.06837555 -49.9453125 51.3828125 C-45.71039568 47.63410077 -44.96303903 43.87677495 -44.59765625 38.3046875 C-45.15228297 33.88308 -46.12908128 30.15506429 -48.28515625 26.2421875 C-49.69599045 23.0846062 -49.75283566 20.85648158 -49.41015625 17.4296875 C-47.51345799 12.46909205 -44.30742539 9.42830889 -39.6640625 7.109375 C-38.17129943 6.44657027 -36.6694278 5.80398798 -35.16015625 5.1796875 C-34.36681885 4.84203369 -33.57348145 4.50437988 -32.75610352 4.15649414 C-8.86458989 -5.7853113 -8.86458989 -5.7853113 0 0 Z " fill="#FFFFFF" transform="translate(572.59765625,49.6953125)"/>
<path d="M0 0 C25.19748261 -0.96616114 47.03339598 8.95718978 65.671875 25.234375 C81.31564259 39.87324779 88.95985026 59.86596836 89.671875 81.02734375 C89.25383983 98.70094193 83.54980606 115.44381014 72.359375 129.21484375 C71.69292969 130.04371094 71.02648437 130.87257813 70.33984375 131.7265625 C56.96718078 147.46052452 37.56288877 157.9861767 17.109375 160.96484375 C-8.98839618 162.95741101 -33.72416563 158.53664853 -54.23828125 141.328125 C-55.03105469 140.63074219 -55.82382812 139.93335938 -56.640625 139.21484375 C-57.40246094 138.54839844 -58.16429687 137.88195312 -58.94921875 137.1953125 C-73.13564529 123.94317402 -82.08390089 104.95495269 -82.76953125 85.5703125 C-83.18684304 64.42310176 -77.51947469 45.00815043 -62.73828125 29.36328125 C-61.69994141 28.29980469 -61.69994141 28.29980469 -60.640625 27.21484375 C-59.774375 26.30734375 -58.908125 25.39984375 -58.015625 24.46484375 C-57.231875 23.72234375 -56.448125 22.97984375 -55.640625 22.21484375 C-55.19074219 21.77011719 -54.74085938 21.32539063 -54.27734375 20.8671875 C-39.64458275 7.25109475 -19.4374782 1.58145163 0 0 Z M-47.640625 44.21484375 C-56.38463601 55.55671311 -59.81505944 66.79992109 -59.890625 80.90234375 C-59.91125 81.84529297 -59.931875 82.78824219 -59.953125 83.75976562 C-60.03807428 99.20991652 -53.22316686 112.21414674 -42.640625 123.21484375 C-26.9894464 137.31420577 -9.43775821 140.93913604 11.109375 140.02734375 C27.15365231 138.67908515 40.09140377 131.44299883 51.359375 120.21484375 C51.92398438 119.6734375 52.48859375 119.13203125 53.0703125 118.57421875 C63.08859442 108.07887579 65.56452407 95.55786747 65.671875 81.65234375 C65.70087891 80.42708984 65.72988281 79.20183594 65.75976562 77.93945312 C65.86144594 63.2583803 60.31877918 50.93199795 50.38671875 40.15234375 C34.77717773 25.23455503 17.87894369 21.63344334 -2.875 21.9765625 C-20.68123206 22.55472391 -35.82867784 31.19323935 -47.640625 44.21484375 Z " fill="#FFFFFF" transform="translate(453.640625,229.78515625)"/>
<path d="M0 0 C2.45448986 0.00536554 4.90879683 0.00001365 7.36328125 -0.00634766 C14.8695751 -0.01147638 22.37335333 0.06889141 29.87109375 0.44677734 C31.62607178 0.53100952 31.62607178 0.53100952 33.41650391 0.61694336 C36.7885339 1.1863491 38.33539188 1.88003918 40.83203125 4.19287109 C48.42540944 16.00870045 44.59781622 38.65327018 44.58642578 52.12060547 C44.58778292 54.82603573 44.5895289 57.53146326 44.59173584 60.2368927 C44.59615501 66.78800941 44.59523433 73.33911459 44.5923232 79.89023173 C44.59005393 85.22009095 44.58976321 90.54994696 44.59084702 95.87980652 C44.59100025 96.64179418 44.59115348 97.40378184 44.59131136 98.18886003 C44.59163112 99.73739278 44.59195534 101.28592554 44.59228395 102.83445829 C44.59512745 117.31491854 44.59186948 131.79537243 44.58648358 146.27583164 C44.58201657 158.66891698 44.58279283 171.06199295 44.58740234 183.45507812 C44.59276811 197.8879043 44.59485287 212.32072492 44.59179008 226.75355196 C44.59147157 228.2960132 44.5911572 229.83847443 44.59084702 231.38093567 C44.5906156 232.51896669 44.5906156 232.51896669 44.59037951 233.67998824 C44.58952036 238.99614811 44.59096422 244.31230442 44.59332657 249.62846375 C44.59614706 256.1175111 44.59533924 262.60654638 44.59004582 269.09559238 C44.58743895 272.39887822 44.58690111 275.70214013 44.58969498 279.00542641 C44.60713612 301.73301814 44.60713612 301.73301814 44.19894409 311.50476074 C44.15370543 312.68820824 44.10846676 313.87165573 44.06185722 315.09096527 C43.33413947 318.74793385 42.03202874 320.47484262 39.45703125 323.13037109 C36.6955399 324.68813545 35.11781168 325.17992963 31.95703125 324.94287109 C28.15361595 323.70676112 25.28027114 321.95361098 22.45703125 319.13037109 C20.30665899 304.85976201 21.32296398 289.80624441 21.34350586 275.42724609 C21.34434771 272.646596 21.34367268 269.86594674 21.34306335 267.08529663 C21.34254221 261.12800645 21.34564594 255.17072734 21.35130119 249.21343994 C21.35947208 240.60049195 21.36203711 231.98754924 21.36328918 223.37459779 C21.36547097 209.39637597 21.37210727 195.41816004 21.3815918 181.43994141 C21.39078858 167.87158233 21.3978583 154.30322485 21.40209961 140.73486328 C21.40236233 139.8967341 21.40262506 139.05860493 21.40289574 138.1950779 C21.4042009 133.98989996 21.40546458 129.78472202 21.40670764 125.57954407 C21.41705305 90.76314889 21.43464746 55.94676054 21.45703125 21.13037109 C19.68827637 21.13822632 19.68827637 21.13822632 17.88378906 21.14624023 C13.45557431 21.16451485 9.0273628 21.17588415 4.59912109 21.18530273 C2.69253985 21.1902921 0.78596234 21.19708597 -1.12060547 21.20581055 C-29.78969785 21.33359622 -29.78969785 21.33359622 -34.73046875 17.94287109 C-36.78697041 14.75174782 -37.54296875 12.93010277 -37.54296875 9.13037109 C-36.01423004 5.15565046 -35.11516378 3.51183445 -31.54296875 1.13037109 C-21.171418 -0.33161329 -10.45328944 -0.02709186 0 0 Z " fill="#FFFFFF" transform="translate(697.54296875,314.86962890625)"/>
<path d="M0 0 C2.45448986 0.00536554 4.90879683 0.00001365 7.36328125 -0.00634766 C14.89005005 -0.01106533 22.40882272 0.07617814 29.92578125 0.48193359 C31.69598633 0.57595459 31.69598633 0.57595459 33.50195312 0.671875 C36.4943222 1.13615698 37.83246591 1.51664537 39.95703125 3.63037109 C41.91166982 8.19119443 42.02136205 11.42843967 40.45703125 16.13037109 C38.37196478 19.00632484 36.77093074 19.91248679 33.26782227 20.4934082 C22.92325573 21.36824683 12.57918415 21.24033475 2.20703125 21.19287109 C0.2864595 21.18784512 -1.63411352 21.18328416 -3.5546875 21.17919922 C-8.21747993 21.16828276 -12.88020994 21.15107889 -17.54296875 21.13037109 C-17.54258903 21.72311498 -17.54220931 22.31585887 -17.54181808 22.92656469 C-17.51940845 58.10801109 -17.50226627 93.28945626 -17.49190342 128.47090831 C-17.49065281 132.70130868 -17.48935848 136.93170903 -17.48803711 141.16210938 C-17.4877748 142.00425639 -17.48751249 142.8464034 -17.48724223 143.71407002 C-17.48289861 157.32500121 -17.47501828 170.93592815 -17.46581595 184.54685682 C-17.45644299 198.52744724 -17.45090544 212.50803544 -17.44888026 226.48862886 C-17.44751258 235.10566361 -17.44320309 243.72268634 -17.43505228 252.33971739 C-17.42973984 258.25994623 -17.42817463 264.18016892 -17.42946737 270.10039997 C-17.43010376 273.50889348 -17.42861506 276.91734934 -17.42376328 280.3258419 C-17.41433163 287.29691084 -17.42838799 294.26639665 -17.51057506 301.23703957 C-17.53131998 303.08992971 -17.54507561 304.94291938 -17.54988027 306.79591942 C-17.56134645 309.07171814 -17.61024305 311.34274805 -17.67506409 313.61755371 C-17.69724282 314.80534172 -17.71942156 315.99312973 -17.74227238 317.21691132 C-18.54296875 320.13037109 -18.54296875 320.13037109 -21.46220303 322.50641632 C-25.77510924 324.7798656 -27.72667558 324.66551478 -32.54296875 324.13037109 C-37.11241319 321.9914822 -37.11241319 321.9914822 -38.54296875 319.13037109 C-40.16924854 304.84185058 -39.6844119 290.30836855 -39.67236328 275.95654297 C-39.67317103 273.23140888 -39.67546635 270.50627646 -39.67767334 267.78114319 C-39.68209281 261.18189957 -39.68117169 254.5826674 -39.6782607 247.98342335 C-39.67599155 242.61447184 -39.67570066 237.24552351 -39.67678452 231.87657166 C-39.67693775 231.10903327 -39.67709098 230.34149489 -39.67724886 229.55069777 C-39.67756862 227.99089102 -39.67789283 226.43108426 -39.67822145 224.87127751 C-39.68106504 210.28494703 -39.67780684 195.69862287 -39.67242108 181.11229342 C-39.66795407 168.62824454 -39.66873032 156.14420496 -39.67333984 143.66015625 C-39.67870545 129.12185466 -39.68079046 114.58355858 -39.67772758 100.04525614 C-39.67740907 98.49156094 -39.6770947 96.93786573 -39.67678452 95.38417053 C-39.67663024 94.61995496 -39.67647596 93.8557394 -39.67631701 93.06836578 C-39.67545781 87.71313259 -39.67690182 82.35790293 -39.67926407 77.00267029 C-39.68208438 70.46604582 -39.6812771 63.92943334 -39.67598332 57.39281023 C-39.67337621 54.06521771 -39.6728389 50.73766141 -39.67563248 47.4100666 C-39.68154412 39.64917483 -39.64701742 31.89058453 -39.54296875 24.13037109 C-39.5351505 23.26989859 -39.52733226 22.40942608 -39.5192771 21.52287865 C-39.48977793 19.28236976 -39.42671645 17.04622798 -39.34738159 14.80700684 C-39.31374449 13.63681755 -39.28010738 12.46662827 -39.24545097 11.2609787 C-38.29239037 7.01367012 -36.56692755 5.23711428 -33.54296875 2.13037109 C-24.84180098 -2.22021279 -9.61746427 -0.02492565 0 0 Z " fill="#FFFFFF" transform="translate(211.54296875,314.86962890625)"/>
<path d="M0 0 C13.3080384 -0.43776442 26.21072817 2.47644004 36.90625 10.65234375 C40.36469935 14.1107931 41.40625 16.27626268 41.40625 21.15234375 C40.08543607 25.11478554 38.04663556 27.26030125 34.40625 29.15234375 C28.64036962 30.26505751 25.75385175 28.9002187 20.65625 26.15234375 C11.1572399 21.50247867 0.01115816 21.19288766 -10.109375 24.1953125 C-17.35302032 27.72807395 -21.07180511 33.10845398 -24.59375 40.15234375 C-26.38540949 50.68332011 -25.76980351 57.73441372 -19.97265625 66.73046875 C-17.88149357 70.40333238 -17.52212039 72.9261967 -17.59375 77.15234375 C-18.85248219 80.29917422 -20.19408255 81.799696 -22.71875 84.02734375 C-26.98614648 85.69719455 -30.28041901 85.77974409 -34.59375 84.15234375 C-43.12643393 77.52768395 -47.60583055 66.97990887 -49.3125 56.54296875 C-50.8290962 43.65190108 -47.50677564 30.93880326 -39.62109375 20.5546875 C-30.49234607 9.88033175 -19.75996281 3.47095369 -6.03125 0.33984375 C-4.0206331 0.23017374 -2.01014137 0.11806553 0 0 Z " fill="#FFFFFF" transform="translate(305.59375,118.84765625)"/>
<path d="M0 0 C8.83769417 7.28187505 14.53190616 17.08107772 17 28.1875 C18.05041644 43.41853836 16.52587594 55.97589001 7 68.375 C4.3910915 71.18284488 2.48755759 72.39965477 -1.3125 73 C-5.46715972 73.09216822 -8.34166984 72.30640011 -11.75 69.8125 C-14.03334498 66.3378446 -14.03653173 63.08719832 -13.44140625 59.01171875 C-12.61560844 56.38502854 -11.3057855 54.66025148 -9.6875 52.4375 C-5.13542161 45.34549381 -5.54368494 36.92106949 -6.75 28.8125 C-8.7932809 21.76831241 -13.51276549 17.4113496 -19.75 13.8125 C-28.59285041 9.43400125 -37.34898193 8.97965989 -46.75 11.8125 C-48.81385455 12.83123128 -50.85582179 13.89536052 -52.875 15 C-57.55430592 17.49157848 -60.6796101 18.53691376 -65.90625 17.41015625 C-70.06210637 16.06302484 -70.06210637 16.06302484 -71.75 13.8125 C-72.8776133 9.72785881 -73.19416196 6.17671173 -71.875 2.125 C-53.00452299 -18.4105191 -20.80536632 -14.83049189 0 0 Z " fill="#FFFFFF" transform="translate(639.75,131.1875)"/>
</svg>
