<?xml version="1.0" encoding="UTF-8"?>
<svg version="1.1" xmlns="http://www.w3.org/2000/svg" width="900" height="837">
<path d="M0 0 C3.43974197 0.00536735 6.87935373 0.00001905 10.3190918 -0.00634766 C46.36875311 -0.02177341 46.36875311 -0.02177341 55.37963867 6.13037109 C56.02288086 6.56349609 56.66612305 6.99662109 57.32885742 7.44287109 C65.20428778 13.45621488 68.51408859 21.26936738 69.95751953 30.81347656 C70.6587008 36.32316353 71.10574641 41.84165397 71.50463867 47.38037109 C71.59100586 48.51861328 71.67737305 49.65685547 71.76635742 50.82958984 C71.97559362 53.59615742 72.17831319 56.3632166 72.37963867 59.13037109 C76.33963867 60.78037109 80.29963867 62.43037109 84.37963867 64.13037109 C88.15036619 60.9397555 91.82748685 57.75120943 95.23120117 54.16943359 C104.4337789 44.49974281 113.59454458 38.34350667 127.37963867 37.88037109 C138.42818319 38.2523023 147.33537248 42.61073096 155.37963867 50.13037109 C156.42938161 51.32372662 157.46659499 52.52816427 158.49438477 53.74047852 C162.56792846 58.4289984 166.96310128 62.73391861 171.41870117 67.05615234 C173.15122547 68.75655686 174.8829729 70.45775322 176.61401367 72.15966797 C179.31023742 74.80655258 182.01052087 77.44856901 184.72436523 80.07739258 C187.36580763 82.63961085 189.98724427 85.22097985 192.60620117 87.80615234 C193.81416855 88.96296257 193.81416855 88.96296257 195.04653931 90.1431427 C201.62803796 96.6926745 206.7591278 104.61587099 207.37963867 114.13037109 C207.45504883 115.08943359 207.45504883 115.08943359 207.53198242 116.06787109 C208.06541964 128.01686478 204.20961912 137.25076307 196.37963867 146.13037109 C193.54590347 149.05859251 190.65706517 151.92839224 187.68481445 154.71606445 C183.81618698 158.29260117 183.81618698 158.29260117 182.37963867 163.13037109 C183.11838215 165.76164555 183.11838215 165.76164555 184.31713867 168.38037109 C184.69741211 169.27240234 185.07768555 170.16443359 185.46948242 171.08349609 C185.76983398 171.75896484 186.07018555 172.43443359 186.37963867 173.13037109 C187.31646484 173.1898291 188.25329102 173.24928711 189.21850586 173.31054688 C192.75421395 173.54739483 196.28671507 173.80746559 199.81958008 174.08251953 C201.33748225 174.1960975 202.85607447 174.30086218 204.37524414 174.39599609 C216.90806526 175.19015506 226.53914173 177.76900606 236.37963867 186.13037109 C241.29805671 192.26139449 245.16762993 198.94356759 245.95385742 206.84912109 C246.03595459 207.65285156 246.11805176 208.45658203 246.20263672 209.28466797 C246.26104736 209.89375 246.31945801 210.50283203 246.37963867 211.13037109 C246.96753174 211.11989746 247.5554248 211.10942383 248.16113281 211.09863281 C273.7397205 210.70454048 294.09833663 212.69439709 313.56713867 230.88037109 C325.16311318 243.07040167 331.173822 257.47528583 331.93405151 274.10972595 C331.97617889 275.02474316 332.01830627 275.93976036 332.06171024 276.88250536 C332.56500398 289.04517904 332.52193874 301.21291621 332.51036334 313.38383615 C332.50806474 316.97284205 332.51161062 320.56184344 332.51434326 324.15084839 C332.51875286 331.15113811 332.51784616 338.15141701 332.51493062 345.15170712 C332.51265767 350.84849856 332.51237219 356.54528701 332.51345444 362.24207878 C332.51368429 363.46557259 332.51368429 363.46557259 332.51391878 364.71378345 C332.51423855 366.37158561 332.51456277 368.02938777 332.51489137 369.68718993 C332.51773202 385.17403755 332.51448134 400.66087923 332.509091 416.14772587 C332.50462341 429.3928391 332.50540129 442.63794357 332.51000977 455.88305664 C332.51537917 471.32200274 332.51745834 486.76094365 332.5143975 502.19989055 C332.514079 503.85075343 332.51376463 505.5016163 332.51345444 507.15247917 C332.51330016 507.96441094 332.51314589 508.7763427 332.51298694 509.61287846 C332.51212893 515.29340405 332.51356911 520.9739263 332.51593399 526.65445137 C332.51875853 533.59048799 332.51793831 540.52651333 332.51265325 547.46254868 C332.51005183 550.99116794 332.50894962 554.51976847 332.5123024 558.04838753 C332.52978782 582.33313873 332.52978782 582.33313873 332.00436401 594.45152283 C331.96039983 595.61371396 331.96039983 595.61371396 331.91554749 596.7993837 C331.01963704 614.02293781 321.71830419 628.56512047 309.37963867 640.13037109 C305.8610638 642.77175251 302.22960394 645.0076561 298.37963867 647.13037109 C297.6912793 647.52869141 297.00291992 647.92701172 296.29370117 648.33740234 C288.01363665 652.8491926 279.58216273 654.29575914 270.26690674 654.70530701 C268.95217263 654.7664236 268.95217263 654.7664236 267.61087823 654.82877487 C258.05151637 655.23909212 248.49977848 655.26371455 238.93334961 655.24389648 C236.97968548 655.24361346 235.02602125 655.24377459 233.07235718 655.24433899 C227.83816167 655.24462246 222.60398971 655.23879942 217.36979961 655.23176503 C211.87391471 655.22545568 206.37802908 655.22492176 200.88214111 655.22373962 C190.50592362 655.22064844 180.12971684 655.21246529 169.75350404 655.20239013 C157.92739003 655.19115976 146.10127548 655.1857012 134.27515745 655.1806947 C109.97664529 655.1702805 85.67814258 655.15272451 61.37963867 655.13037109 C61.68471344 655.82321701 61.98978821 656.51606293 62.30410767 657.22990417 C63.71750284 660.44012922 65.13060311 663.650484 66.54370117 666.86083984 C67.2631189 668.49466614 67.2631189 668.49466614 67.99707031 670.16149902 C87.37963867 714.20019408 87.37963867 714.20019408 87.37963867 717.13037109 C88.34643555 717.17935547 89.31323242 717.22833984 90.30932617 717.27880859 C105.67616289 718.1612606 119.52985922 720.04660385 130.37963867 732.13037109 C139.15636982 744.59332933 139.45459016 755.85229595 139.50463867 770.69287109 C139.50931152 771.64983887 139.51398438 772.60680664 139.51879883 773.59277344 C139.5124639 776.44105357 139.45863147 779.28321697 139.37963867 782.13037109 C139.36126953 783.11634277 139.34290039 784.10231445 139.32397461 785.11816406 C139.25484863 786.5608667 139.25484863 786.5608667 139.18432617 788.03271484 C139.15064941 788.89243896 139.11697266 789.75216309 139.08227539 790.63793945 C138.05227884 794.29159991 136.31242684 795.75030221 133.37963867 798.13037109 C130.55109044 798.67657334 128.30054983 798.91454891 125.46789551 798.93478394 C124.28982968 798.97090469 124.28982968 798.97090469 123.08796453 799.00775516 C120.51822913 799.07687048 117.95017337 799.10716924 115.37963867 799.13037109 C114.52819841 799.14292262 113.67675816 799.15547414 112.79951668 799.16840601 C106.18862969 799.26369036 99.57897147 799.26673973 92.9675293 799.25976562 C90.77735871 799.26112415 88.58718836 799.2629066 86.39701843 799.26507568 C80.50242988 799.2695964 74.60785901 799.26788272 68.71327019 799.2646966 C62.5117679 799.26214508 56.31026701 799.26451826 50.10876465 799.26608276 C39.69921602 799.26789636 29.2896745 799.26551946 18.88012695 799.26074219 C6.88656329 799.25530114 -5.10697587 799.25706437 -17.10053968 799.26256859 C-27.44250111 799.26712286 -37.78445744 799.26773898 -48.12641954 799.26512992 C-54.28371999 799.26357985 -60.44101246 799.26333829 -66.59831238 799.26666641 C-72.3900093 799.26957888 -78.18168453 799.2675081 -83.97337914 799.26177216 C-86.0847336 799.26046252 -88.19608992 799.26080765 -90.30744362 799.26303482 C-96.74628785 799.26919484 -103.18224175 799.22527875 -109.62036133 799.13037109 C-110.48654524 799.12255285 -111.35272915 799.1147346 -112.24516106 799.10667944 C-114.73445155 799.07610973 -117.22035801 799.01107665 -119.70861816 798.93478394 C-120.43936759 798.92956384 -121.17011701 798.92434374 -121.92301035 798.91896546 C-125.81234381 798.75634367 -127.5113062 798.21887347 -130.57093048 795.73587227 C-132.80972605 792.88962621 -133.28546483 791.59611399 -133.42504883 788.03271484 C-133.47113281 787.07091309 -133.5172168 786.10911133 -133.56469727 785.11816406 C-133.59225098 783.63920654 -133.59225098 783.63920654 -133.62036133 782.13037109 C-133.64646484 781.1895166 -133.67256836 780.24866211 -133.69946289 779.27929688 C-133.75376086 776.41581926 -133.75982315 773.55679434 -133.74536133 770.69287109 C-133.74052734 769.68659668 -133.73569336 768.68032227 -133.73071289 767.64355469 C-133.61192305 752.96350562 -132.95140426 741.40478321 -122.62036133 730.13037109 C-111.1647077 719.35633986 -96.9680706 716.76853905 -81.62036133 717.13037109 C-81.44494812 716.57825455 -81.26953491 716.026138 -81.08880615 715.45729065 C-79.34358122 710.07908084 -77.34343071 704.89641802 -75.07348633 699.72021484 C-74.73919617 698.94964249 -74.40490601 698.17907013 -74.06048584 697.38514709 C-73.00066447 694.94449158 -71.93561237 692.50616088 -70.87036133 690.06787109 C-70.1720995 688.46190133 -69.47418056 686.85578244 -68.77661133 685.24951172 C-65.52381317 677.76554133 -62.25284326 670.28953244 -58.98187256 662.81349182 C-58.65800253 662.07324154 -58.3341325 661.33299127 -58.00044823 660.57030916 C-57.20709489 658.75699255 -56.41372934 656.94368128 -55.62036133 655.13037109 C-56.62236446 655.13129289 -57.6243676 655.13221468 -58.65673447 655.13316441 C-83.11518764 655.15543187 -107.57363949 655.17182895 -132.03210068 655.18218327 C-143.8603527 655.1873245 -155.688598 655.19432549 -167.5168457 655.20581055 C-177.83458595 655.21582409 -188.15232133 655.2222403 -198.47006631 655.22445959 C-203.92570617 655.22575543 -209.3813321 655.22876915 -214.83696747 655.23610115 C-219.98822405 655.24296698 -225.13946117 655.24496693 -230.29072189 655.24347878 C-232.1657891 655.24375041 -234.04085706 655.24569214 -235.91592026 655.24957657 C-245.44187337 655.26831687 -254.94726094 655.15347039 -264.46466064 654.72483826 C-265.28175688 654.69127954 -266.09885311 654.65772081 -266.94070983 654.62314516 C-284.02027004 653.75442453 -299.04603628 645.50228584 -310.62036133 633.13037109 C-315.62378322 627.03718875 -319.49904472 620.35989118 -322.62036133 613.13037109 C-322.92973633 612.42138672 -323.23911133 611.71240234 -323.55786133 610.98193359 C-325.50865855 605.6359989 -325.92998262 600.26610121 -326.19039917 594.62207031 C-326.23139862 593.75697279 -326.27239807 592.89187527 -326.31463993 592.00056267 C-326.82519699 579.91949324 -326.76244658 567.8287772 -326.751086 555.73934269 C-326.74879023 552.1128274 -326.75233194 548.48631659 -326.75506592 544.85980225 C-326.75947857 537.78384294 -326.75856738 530.70789434 -326.75565328 523.63193464 C-326.75338138 517.87362042 -326.7530944 512.11530917 -326.75417709 506.35699463 C-326.75433033 505.53287051 -326.75448356 504.7087464 -326.75464144 503.85964882 C-326.75496121 502.18469413 -326.75528542 500.50973944 -326.75561403 498.83478475 C-326.75845562 483.18245969 -326.75520259 467.53014053 -326.74981366 451.87781644 C-326.74534683 438.48999317 -326.74612313 425.10217858 -326.75073242 411.71435547 C-326.7561016 396.11244248 -326.75818105 380.51053462 -326.75512016 364.90862083 C-326.75480166 363.24032974 -326.75448729 361.57203865 -326.75417709 359.90374756 C-326.75402282 359.08322847 -326.75386854 358.26270939 -326.75370959 357.41732609 C-326.75285145 351.67569741 -326.75429207 345.93407202 -326.75665665 340.19244385 C-326.75948097 333.18135753 -326.75866145 326.17028239 -326.7533759 319.15919733 C-326.75077406 315.59210503 -326.74967302 312.02503125 -326.75302505 308.45793915 C-326.77382721 283.97674494 -326.77382721 283.97674494 -326.24118042 271.78710938 C-326.21134729 271.01288572 -326.18151415 270.23866207 -326.15077698 269.4409771 C-325.48322761 256.6992959 -320.27111529 246.19955425 -312.62036133 236.13037109 C-311.92040039 235.19451172 -311.22043945 234.25865234 -310.49926758 233.29443359 C-309.87922852 232.58029297 -309.25918945 231.86615234 -308.62036133 231.13037109 C-307.96036133 231.13037109 -307.30036133 231.13037109 -306.62036133 231.13037109 C-306.29036133 230.14037109 -305.96036133 229.15037109 -305.62036133 228.13037109 C-303.71163633 226.55012435 -301.84885435 225.14368884 -299.80786133 223.75537109 C-299.22689697 223.35761475 -298.64593262 222.9598584 -298.04736328 222.55004883 C-279.85908063 210.46806132 -260.64222395 210.94955581 -239.62036133 211.13037109 C-239.59506348 210.38851562 -239.56976563 209.64666016 -239.54370117 208.88232422 C-239.16236106 199.84439555 -236.10934444 191.6193542 -229.62036133 185.13037109 C-221.96075906 179.09793822 -215.61209697 176.06293943 -205.81567383 175.27880859 C-205.09169403 175.21505035 -204.36771423 175.15129211 -203.62179565 175.08560181 C-201.33018069 174.88535519 -199.03785967 174.69520807 -196.74536133 174.50537109 C-195.18280352 174.37062316 -193.62030265 174.23521314 -192.05786133 174.09912109 C-188.24597716 173.76854406 -184.43342704 173.44701609 -180.62036133 173.13037109 C-178.97036133 169.17037109 -177.32036133 165.21037109 -175.62036133 161.13037109 C-178.81097692 157.35964357 -181.99952299 153.68252292 -185.58129883 150.27880859 C-195.29492746 141.03441552 -200.64874649 132.4294884 -201.93286133 118.81787109 C-200.57824879 102.83344314 -192.63751184 93.6698068 -181.66723633 82.70849609 C-180.6008898 81.63502945 -179.53483495 80.56127299 -178.46905518 79.48724365 C-176.2451607 77.2499837 -174.01551346 75.01865329 -171.78198242 72.79101562 C-168.93975624 69.95468977 -166.11623101 67.10051665 -163.29722214 64.24113846 C-161.10441949 62.02232548 -158.90007894 59.81525268 -156.69242096 57.61122894 C-155.64720794 56.56433837 -154.60590515 55.51352682 -153.56887054 54.45853424 C-144.33972858 45.08721537 -134.92369857 38.51576374 -121.43286133 37.75537109 C-111.13195289 38.05729427 -101.20181724 42.18212934 -93.62036133 49.13037109 C-93.62036133 49.79037109 -93.62036133 50.45037109 -93.62036133 51.13037109 C-92.30036133 51.79037109 -90.98036133 52.45037109 -89.62036133 53.13037109 C-89.62036133 53.79037109 -89.62036133 54.45037109 -89.62036133 55.13037109 C-88.69223633 55.50162109 -88.69223633 55.50162109 -87.74536133 55.88037109 C-85.26967446 57.33665749 -84.6691113 58.50849616 -83.62036133 61.13037109 C-82.96036133 61.13037109 -82.30036133 61.13037109 -81.62036133 61.13037109 C-81.62036133 61.79037109 -81.62036133 62.45037109 -81.62036133 63.13037109 C-80.96036133 63.13037109 -80.30036133 63.13037109 -79.62036133 63.13037109 C-79.62036133 63.79037109 -79.62036133 64.45037109 -79.62036133 65.13037109 C-78.77731445 64.76943359 -77.93426758 64.40849609 -77.06567383 64.03662109 C-75.9699707 63.57255859 -74.87426758 63.10849609 -73.74536133 62.63037109 C-72.65481445 62.16630859 -71.56426758 61.70224609 -70.44067383 61.22412109 C-67.62036133 60.13037109 -67.62036133 60.13037109 -65.62036133 60.13037109 C-65.60054199 59.47141846 -65.58072266 58.81246582 -65.56030273 58.13354492 C-64.40061905 21.44333172 -64.40061905 21.44333172 -53.37036133 9.31787109 C-39.36616431 -3.50415344 -17.7200444 -0.03285936 0 0 Z M-38.62036133 30.13037109 C-39.5550718 32.29604176 -39.5550718 32.29604176 -39.54516602 34.58178711 C-39.62489655 35.85319298 -39.62489655 35.85319298 -39.70623779 37.15028381 C-39.73461731 38.05250168 -39.76299683 38.95471954 -39.79223633 39.88427734 C-39.84559143 40.82214584 -39.89894653 41.76001434 -39.95391846 42.7263031 C-40.11949195 45.71447563 -40.24666321 48.70269778 -40.37036133 51.69287109 C-40.51511523 54.68581429 -40.66791467 57.67807769 -40.82965088 60.67015076 C-40.92793335 62.52933411 -41.01522926 64.38913855 -41.090271 66.24940491 C-41.15108856 67.51608253 -41.15108856 67.51608253 -41.21313477 68.80834961 C-41.24389099 69.54827652 -41.27464722 70.28820343 -41.30633545 71.05055237 C-41.66742306 73.44206474 -42.34865045 75.07744021 -43.62036133 77.13037109 C-45.98364258 78.43896484 -45.98364258 78.43896484 -48.93286133 79.56787109 C-50.00665039 79.98810547 -51.08043945 80.40833984 -52.18676758 80.84130859 C-53.88639648 81.47939453 -53.88639648 81.47939453 -55.62036133 82.13037109 C-57.87092447 82.98305288 -60.12093439 83.83719643 -62.37036133 84.69287109 C-63.45446289 85.10021484 -64.53856445 85.50755859 -65.65551758 85.92724609 C-68.18372984 86.9531873 -70.44574784 88.09309196 -72.80786133 89.44287109 C-77.30368221 91.75717552 -81.67336713 92.05995334 -86.62036133 91.13037109 C-91.87187086 88.73869524 -95.03114042 84.52716671 -98.62036133 80.13037109 C-99.76750406 79.10803325 -100.93532707 78.10853515 -102.12036133 77.13037109 C-104.42156552 75.22764382 -106.38150608 73.33812075 -108.24536133 71.00537109 C-111.31947317 67.28407781 -113.8187998 64.67867243 -118.49536133 63.25537109 C-123.38703957 63.05970396 -127.26100688 64.10978982 -131.19502258 67.06338501 C-132.38843513 68.2463063 -132.38843513 68.2463063 -133.60595703 69.453125 C-134.51992752 70.34810699 -135.43389801 71.24308899 -136.37556458 72.16519165 C-137.34980414 73.14506335 -138.32331273 74.12566229 -139.29614258 75.10693359 C-140.3120244 76.11689933 -141.32857128 77.1261965 -142.3457489 78.13485718 C-144.46950127 80.24675935 -146.58375158 82.3676371 -148.69189453 84.49511719 C-151.38454153 87.21064095 -154.10122718 89.90055377 -156.82581806 92.58397865 C-158.92901559 94.66151005 -161.0178481 96.75303468 -163.10280418 98.84885788 C-164.09854377 99.8460769 -165.09883692 100.83877187 -166.1038456 101.82664871 C-173.82296087 109.2285155 -173.82296087 109.2285155 -176.62036133 119.13037109 C-175.77737131 124.99117757 -173.26541635 128.0902077 -168.99145508 131.93115234 C-167.86268056 133.00156853 -166.73444165 134.07254975 -165.60668945 135.14404297 C-163.83481364 136.79816987 -162.05645897 138.44415262 -160.26708984 140.0793457 C-148.99559819 150.44277402 -148.99559819 150.44277402 -148.24536133 156.63037109 C-148.25441829 161.96492308 -150.42140035 166.3714257 -152.62036133 171.13037109 C-153.63227359 173.62642135 -154.63167619 176.12524405 -155.62036133 178.63037109 C-156.13687991 179.91569158 -156.65380069 181.20085052 -157.17114258 182.48583984 C-158.06372275 184.7305226 -158.93983247 186.98193799 -159.78833008 189.24365234 C-160.12477539 190.13439453 -160.4612207 191.02513672 -160.80786133 191.94287109 C-161.09016602 192.71244141 -161.3724707 193.48201172 -161.66333008 194.27490234 C-162.62036133 196.13037109 -162.62036133 196.13037109 -165.62036133 198.13037109 C-167.6178894 198.44439697 -167.6178894 198.44439697 -169.9206543 198.53759766 C-170.78520233 198.5781427 -171.64975037 198.61868774 -172.54049683 198.66046143 C-173.93741257 198.71517609 -173.93741257 198.71517609 -175.36254883 198.77099609 C-177.33526439 198.87271679 -179.30791937 198.97561823 -181.28051758 199.07958984 C-184.38974812 199.23433903 -187.49856866 199.38050035 -190.60913086 199.50585938 C-193.61214387 199.63116358 -196.611568 199.79212908 -199.61254883 199.95849609 C-200.53977753 199.98687561 -201.46700623 200.01525513 -202.42233276 200.04449463 C-203.29318512 200.09764832 -204.16403748 200.150802 -205.0612793 200.20556641 C-205.8227829 200.239505 -206.5842865 200.2734436 -207.36886597 200.30841064 C-210.85513744 201.58115467 -212.82751969 203.99176745 -214.62036133 207.13037109 C-215.36177455 210.55237875 -215.36177455 210.55237875 -215.25146484 214.24975586 C-215.25862015 214.93510406 -215.26577545 215.62045227 -215.27314758 216.3265686 C-215.28995737 218.57566464 -215.27068315 220.82274549 -215.24926758 223.07177734 C-215.25009691 224.64306299 -215.25255872 226.21434854 -215.25657654 227.78562927 C-215.25942909 231.0716273 -215.24478592 234.35694165 -215.21728516 237.64282227 C-215.18317423 241.84854708 -215.18923457 246.05305227 -215.20794773 250.25883579 C-215.21852968 253.50089128 -215.20956971 256.74266429 -215.19456291 259.98469353 C-215.18939124 261.53518776 -215.18985058 263.08571162 -215.19610786 264.63620186 C-215.20157608 266.80490427 -215.18113893 268.97187589 -215.15380859 271.14038086 C-215.14761002 272.37248795 -215.14141144 273.60459503 -215.13502502 274.8740387 C-214.52662055 278.72347904 -213.32713111 280.37964659 -210.62036133 283.13037109 C-208.38636027 284.24737162 -206.99162658 284.32625866 -204.50952148 284.45581055 C-203.66169098 284.50288651 -202.81386047 284.54996246 -201.94033813 284.59846497 C-201.02263641 284.6463768 -200.10493469 284.69428864 -199.15942383 284.74365234 C-197.22447677 284.85802331 -195.28958222 284.97328553 -193.35473633 285.08935547 C-190.29812081 285.26896849 -187.2416131 285.44306568 -184.18383789 285.60180664 C-181.23694281 285.75714426 -178.29223284 285.93595892 -175.34692383 286.11865234 C-174.43327057 286.16049149 -173.51961731 286.20233063 -172.57827759 286.24543762 C-166.26938452 286.66300299 -166.26938452 286.66300299 -163.13525391 288.91992188 C-161.64359215 291.09647393 -160.587558 293.04395729 -159.65551758 295.50927734 C-159.17127319 296.7600708 -159.17127319 296.7600708 -158.67724609 298.03613281 C-158.18502563 299.35121826 -158.18502563 299.35121826 -157.68286133 300.69287109 C-156.98709486 302.49969014 -156.28919154 304.30568784 -155.58911133 306.11083984 C-155.25395508 306.97757324 -154.91879883 307.84430664 -154.57348633 308.73730469 C-153.38747859 311.71508335 -152.05976259 314.61147688 -150.68286133 317.50537109 C-146.81785068 325.9584386 -146.81785068 325.9584386 -148.89770508 331.58740234 C-152.52352944 338.60468828 -159.15270927 343.81080965 -164.86254883 349.13964844 C-173.39544302 356.66756629 -173.39544302 356.66756629 -176.62036133 367.13037109 C-175.71261813 372.22135045 -173.05784827 375.37171031 -169.55786133 379.00537109 C-169.07051514 379.52494385 -168.58316895 380.0445166 -168.08105469 380.57983398 C-164.41720098 384.43454447 -160.53704128 387.98188503 -156.49536133 391.43896484 C-154.25233295 393.46236336 -152.47619604 395.75490267 -150.62036133 398.13037109 C-149.96036133 398.13037109 -149.30036133 398.13037109 -148.62036133 398.13037109 C-148.62036133 398.79037109 -148.62036133 399.45037109 -148.62036133 400.13037109 C-144.96897562 404.13511671 -140.82607209 407.58098507 -136.74536133 411.13818359 C-134.93511631 412.8352883 -133.55596482 414.43900789 -132.12036133 416.44287109 C-128.75430062 420.06138636 -125.51228873 421.50515067 -120.62036133 422.13037109 C-113.92300554 420.60290398 -110.18817352 416.02061709 -105.62036133 411.13037109 C-103.95503174 409.46236842 -102.28829687 407.79576792 -100.62036133 406.13037109 C-99.40026367 404.85806641 -99.40026367 404.85806641 -98.15551758 403.56005859 C-97.33954102 402.71701172 -96.52356445 401.87396484 -95.68286133 401.00537109 C-94.46276367 399.73306641 -94.46276367 399.73306641 -93.21801758 398.43505859 C-89.20687578 394.87630121 -86.06551538 393.176249 -80.68286133 393.00537109 C-75.60767306 393.77768235 -71.20377254 396.00929728 -66.64892578 398.26196289 C-61.17858582 400.9551059 -55.59765807 403.08251068 -49.81152344 405.00024414 C-45.80607589 406.40039869 -43.6330725 407.37179931 -41.62036133 411.13037109 C-41.07765149 414.32482694 -40.9701527 417.51716618 -40.84692383 420.75146484 C-40.74325806 422.67532002 -40.63907544 424.59914741 -40.53442383 426.52294922 C-40.38599518 429.5487803 -40.24506835 432.57466257 -40.11450195 435.60131836 C-39.98302881 438.52778674 -39.82283325 441.45163086 -39.65942383 444.37646484 C-39.62902008 445.27868271 -39.59861633 446.18090057 -39.56729126 447.11045837 C-39.32454492 451.2253877 -38.9242008 453.64086494 -36.71899414 457.19360352 C-32.19240655 460.02289909 -28.24885219 459.87674992 -23.00317383 459.87255859 C-21.95499481 459.89005157 -20.9068158 459.90754456 -19.82687378 459.92556763 C-16.46621232 459.97506827 -13.10633253 459.98992057 -9.74536133 460.00537109 C-7.55392366 460.03712636 -5.36251508 460.07096121 -3.17114258 460.10693359 C3.34696851 460.19743423 9.86128178 460.19376066 16.37963867 460.13037109 C17.47699341 460.11993774 18.57434814 460.10950439 19.70495605 460.09875488 C22.89202481 460.05473753 26.0763822 459.97823963 29.26245117 459.88818359 C30.22496796 459.87367157 31.18748474 459.85915955 32.1791687 459.84420776 C37.44065011 459.69779156 37.44065011 459.69779156 41.94946289 457.20800781 C43.96269279 454.28336008 44.52052848 452.52212958 44.68920898 449.01953125 C44.75498138 447.74778549 44.75498138 447.74778549 44.82208252 446.4503479 C44.8668573 445.53264618 44.91163208 444.61494446 44.95776367 443.66943359 C45.0672645 441.73447084 45.17797954 439.79957648 45.28979492 437.86474609 C45.46326457 434.80814203 45.62980402 431.75190366 45.77563477 428.69384766 C45.91885932 425.74656224 46.09198258 422.80227925 46.27026367 419.85693359 C46.30694153 418.94328033 46.34361938 418.02962708 46.38140869 417.08828735 C46.79961937 410.76119093 46.79961937 410.76119093 49.66259766 407.64746094 C52.07960407 406.29789873 54.37591603 405.11176916 56.96166992 404.13037109 C57.81180664 403.80037109 58.66194336 403.47037109 59.5378418 403.13037109 C60.41375977 402.80037109 61.28967773 402.47037109 62.19213867 402.13037109 C69.57953048 399.31034216 69.57953048 399.31034216 76.72338867 395.93505859 C79.51979437 394.49688697 81.8969584 393.54836373 85.06713867 393.25537109 C85.77225586 393.17544922 86.47737305 393.09552734 87.20385742 393.01318359 C92.92229643 393.32117851 96.25467014 396.60429658 100.04760742 400.54052734 C100.56849442 401.06803085 101.08938141 401.59553436 101.62605286 402.13902283 C103.28037351 403.81665229 104.92415248 405.5041461 106.56713867 407.19287109 C108.22255708 408.88336294 109.88010881 410.57168484 111.5403595 412.25743103 C112.57082632 413.30486613 113.5981902 414.35536482 114.62211609 415.40919495 C118.49868565 419.36725787 120.48253132 420.35077072 126.00463867 420.63037109 C127.0075293 420.70255859 128.01041992 420.77474609 129.04370117 420.84912109 C137.26455999 419.07788219 144.11015272 409.54672196 149.87573242 403.76708984 C150.74988297 402.89389603 151.62403351 402.02070221 152.52467346 401.12104797 C154.35703294 399.28936493 156.18814652 397.45643474 158.01806641 395.62231445 C159.89487269 393.7419068 161.77294415 391.86290626 163.65380859 389.98657227 C166.37629218 387.27023904 169.0953219 384.55049799 171.81323242 381.82958984 C172.65792587 380.98692062 173.50261932 380.1442514 174.37290955 379.27604675 C175.14784256 378.49796158 175.92277557 377.7198764 176.72119141 376.91821289 C177.40543686 376.23317184 178.08968231 375.5481308 178.79466248 374.84233093 C181.73295335 371.66863282 181.86715078 368.84930419 181.75341797 364.65600586 C180.35164991 355.1842289 168.21061664 347.04953758 161.6394043 340.99560547 C153.86005976 333.51147147 153.86005976 333.51147147 153.14135742 328.27490234 C153.14753379 324.98871162 153.60522261 322.25717196 155.00463867 319.25537109 C155.37975586 318.41748047 155.75487305 317.57958984 156.14135742 316.71630859 C156.54999023 315.86294922 156.95862305 315.00958984 157.37963867 314.13037109 C158.19570634 312.38203194 159.00811144 310.63197926 159.81713867 308.88037109 C160.44555664 307.52878906 160.44555664 307.52878906 161.08666992 306.14990234 C163.06432121 301.53139948 164.61089832 296.7741964 166.16870117 292.00146484 C167.37963867 289.13037109 167.37963867 289.13037109 170.37963867 287.13037109 C172.33247375 286.80961609 172.33247375 286.80961609 174.57226562 286.70727539 C175.41356522 286.66350266 176.25486481 286.61972992 177.12165833 286.57463074 C178.48105782 286.51521049 178.48105782 286.51521049 179.86791992 286.45458984 C181.79049121 286.34798087 183.71301611 286.24053256 185.63549805 286.13232422 C188.66340784 285.97159151 191.69120121 285.81791395 194.72021484 285.67944336 C197.64595207 285.5417588 200.56894109 285.37517161 203.49291992 285.20458984 C204.39311356 285.17104904 205.29330719 285.13750824 206.22077942 285.10295105 C210.37762397 284.84286994 213.5401598 284.46002737 216.94506836 281.94116211 C219.76495017 278.68551638 220.15157676 277.33198597 220.21948242 273.08349609 C220.26661377 271.25588745 220.26661377 271.25588745 220.31469727 269.39135742 C220.31713481 268.05436395 220.31790028 266.71736657 220.31713867 265.38037109 C220.33481162 263.98801905 220.35388782 262.5956842 220.37426758 261.20336914 C220.41756194 257.35784427 220.41096533 253.51381647 220.39068604 249.66815186 C220.37911393 247.00982946 220.38040988 244.35170348 220.38305664 241.69335938 C220.38277696 237.02680541 220.34766298 232.36158933 220.28738403 227.69543457 C220.26561852 225.86583335 220.25082639 224.0361354 220.24313354 222.2064209 C220.22762813 219.62398962 220.17924683 217.04419984 220.12182617 214.46240234 C220.12254623 213.69287735 220.1232663 212.92335236 220.12400818 212.13050842 C220.00704634 208.44495737 219.47106305 206.2699481 217.44067383 203.17016602 C213.18491876 200.33424054 209.68126817 200.29635864 204.66088867 200.16162109 C203.72539185 200.11396606 202.78989502 200.06631104 201.8260498 200.01721191 C198.84445126 199.86587499 195.86288055 199.74446313 192.87963867 199.63037109 C188.95073658 199.48011294 185.02503675 199.29914799 181.09838867 199.09912109 C180.19930786 199.07499146 179.30022705 199.05086182 178.37390137 199.02600098 C173.96183063 198.79846181 171.94546105 198.57141885 168.36938477 195.78393555 C166.01821138 192.64836456 164.7154698 189.49989642 163.50463867 185.81787109 C161.7147354 180.65083708 159.76086873 175.68752421 157.41137695 170.74829102 C152.25896819 159.82181006 152.25896819 159.82181006 153.59838867 153.95068359 C154.97247589 150.74906036 156.93470687 148.5753029 159.37963867 146.13037109 C160.09249023 145.41107422 160.8053418 144.69177734 161.53979492 143.95068359 C163.75905308 141.72728965 166.02410271 139.55600692 168.29760742 137.38818359 C169.72103734 136.01084067 171.14420889 134.6332307 172.56713867 133.25537109 C173.29094727 132.57345703 174.01475586 131.89154297 174.76049805 131.18896484 C179.02262933 127.02595289 181.5192286 124.1022003 182.37963867 118.13037109 C180.40565525 110.08259253 173.59279302 103.5622274 167.25463867 98.50537109 C164.83361579 96.50539567 163.01780815 94.63127382 161.00463867 92.25537109 C158.62339458 89.45452452 156.18662281 87.00384417 153.37963867 84.63037109 C150.63907161 82.31062047 148.25793285 79.93652563 145.94213867 77.19287109 C138.8678933 68.56365706 138.8678933 68.56365706 129.27807617 63.78662109 C128.4453418 63.73505859 127.61260742 63.68349609 126.75463867 63.63037109 C125.93737305 63.55818359 125.12010742 63.48599609 124.27807617 63.41162109 C115.46695886 65.59658819 107.96884032 76.54574966 101.91479492 82.89794922 C97.26683073 87.65280867 93.95879524 90.67643731 87.13354492 91.35302734 C80.15815418 90.84323943 74.51763348 88.09947063 68.35620117 85.04443359 C63.72712843 82.76327443 58.95137823 80.90776305 54.12695312 79.0847168 C51.36731519 78.02170352 49.49748767 77.2482201 47.37963867 75.13037109 C46.98486328 72.26391602 46.98486328 72.26391602 46.78198242 68.61083984 C46.7427919 67.9564241 46.70360138 67.30200836 46.66322327 66.62776184 C46.53909412 64.52486353 46.42775553 62.4215194 46.31713867 60.31787109 C46.23924471 58.94347186 46.1604776 57.56912182 46.08081055 56.19482422 C46.04194733 55.51952667 46.00308411 54.84422913 45.96304321 54.14846802 C45.88402213 52.79038341 45.80376144 51.43237036 45.72225952 50.07443237 C45.52955826 46.84791899 45.36066816 43.62464495 45.23950195 40.39453125 C45.15611572 38.68015869 45.15611572 38.68015869 45.07104492 36.93115234 C45.03309814 35.92866455 44.99515137 34.92617676 44.95605469 33.89331055 C44.23202999 30.42283721 42.79463432 28.68244402 40.37963867 26.13037109 C37.48958905 24.68534628 34.95941907 24.97102423 31.73022461 24.9375 C30.7054879 24.92523376 30.7054879 24.92523376 29.66004944 24.91271973 C27.39471309 24.8878683 25.12943949 24.87134882 22.86401367 24.85693359 C22.0900248 24.85160992 21.31603592 24.84628624 20.51859283 24.84080124 C16.42036428 24.81406832 12.32216618 24.79469557 8.22387695 24.78027344 C3.99574358 24.76364202 -0.23160783 24.71887837 -4.45944595 24.66790199 C-7.7143236 24.63420076 -10.96901648 24.62269285 -14.22405243 24.61704636 C-15.78216261 24.61033972 -17.34026087 24.59513271 -18.89820099 24.57115555 C-21.08389914 24.53944153 -23.26750018 24.53947517 -25.45336914 24.546875 C-26.69532043 24.53878815 -27.93727173 24.53070129 -29.21685791 24.52236938 C-33.81611611 25.34398068 -35.40868925 26.75640667 -38.62036133 30.13037109 Z M246.37963867 236.13037109 C246.35458252 237.09225342 246.32952637 238.05413574 246.30371094 239.04516602 C246.20820791 242.6777461 246.10836069 246.31019692 246.00732422 249.94262695 C245.96450679 251.50281715 245.9228052 253.06303845 245.88232422 254.62329102 C244.98641148 289.03297664 244.98641148 289.03297664 234.37963867 300.13037109 C227.48557503 305.62369742 221.43118686 308.32230744 212.59448242 308.70068359 C211.07939685 308.7926122 209.56442428 308.88641906 208.04956055 308.98193359 C205.67757613 309.12463155 203.30733403 309.25578075 200.93310547 309.35498047 C192.11857075 309.36200283 192.11857075 309.36200283 184.4309082 312.78564453 C183.2435045 314.95149396 182.74773988 316.69526133 182.37963867 319.13037109 C182.13987305 320.28923828 181.90010742 321.44810547 181.65307617 322.64208984 C182.7577016 327.94547965 186.07775197 330.4065319 190.00463867 333.94287109 C200.32293469 343.75618605 206.16897854 352.06839262 206.62963867 366.63037109 C206.1011917 382.48378039 197.94461922 392.20259024 186.98510742 403.05615234 C185.98715573 404.05680892 184.98979755 405.05805772 183.99299622 406.05986023 C181.91760212 408.14109988 179.83528211 410.2150662 177.74755859 412.28393555 C175.09485333 414.91382447 172.46056172 417.56131495 169.83123302 420.21455097 C167.78023195 422.28011943 165.71965859 424.3359282 163.65621376 426.38905907 C162.6818361 427.3608011 161.71032937 428.33543205 160.74199486 429.31319618 C150.89507192 439.23494837 141.78359299 445.87602682 127.56713867 446.44287109 C111.57948732 446.02018047 103.16376404 438.30340229 92.67260742 427.25732422 C92.04483398 426.61085938 91.41706055 425.96439453 90.77026367 425.29833984 C90.21371094 424.71334717 89.6571582 424.12835449 89.08374023 423.52563477 C87.14657654 421.9395473 85.8497155 421.45239456 83.37963867 421.13037109 C80.55739871 421.83617981 80.55739871 421.83617981 77.69213867 423.00537109 C76.71889648 423.37404297 75.7456543 423.74271484 74.74291992 424.12255859 C72.46561066 424.92004633 72.46561066 424.92004633 71.37963867 426.13037109 C71.13826651 428.52867385 70.95374561 430.90960079 70.80151367 433.31396484 C70.69183971 434.81468953 70.58112723 436.31533861 70.46948242 437.81591797 C70.29744805 440.17834466 70.13135126 442.54046117 69.98364258 444.90454102 C69.38901778 454.24963274 68.69641985 462.10307403 63.37963867 470.13037109 C62.93620117 470.80044189 62.49276367 471.4705127 62.03588867 472.16088867 C57.9473112 477.92928834 51.93679247 480.90894496 45.37963867 483.13037109 C42.69990709 483.4680523 40.17416335 483.69129056 37.48901367 483.78662109 C36.33459778 483.83869217 36.33459778 483.83869217 35.15686035 483.89181519 C25.46821427 484.28083733 15.77032509 484.28007545 6.07543945 484.26074219 C2.88382215 484.25537812 -0.30765449 484.26072522 -3.49926758 484.26708984 C-12.93407586 484.27151246 -22.36249473 484.20710118 -31.78833008 483.76708984 C-32.5039209 483.73934479 -33.21951172 483.71159973 -33.95678711 483.68301392 C-40.05577569 483.34343376 -44.62933088 481.5533776 -49.62036133 478.13037109 C-50.52786133 477.57349609 -51.43536133 477.01662109 -52.37036133 476.44287109 C-59.21563914 469.40744668 -62.72842278 460.85690162 -63.47192383 451.20458984 C-63.53568207 450.45699905 -63.59944031 449.70940826 -63.66513062 448.93916321 C-63.86585047 446.56594337 -64.05575807 444.19200231 -64.24536133 441.81787109 C-64.38006361 440.20257699 -64.51547269 438.58734165 -64.65161133 436.97216797 C-64.98271443 433.02553583 -65.30412772 429.07822137 -65.62036133 425.13037109 C-69.91036133 423.48037109 -74.20036133 421.83037109 -78.62036133 420.13037109 C-80.68733155 422.00063112 -82.7489043 423.87632293 -84.80786133 425.75537109 C-85.38600586 426.27744141 -85.96415039 426.79951172 -86.55981445 427.33740234 C-89.32752244 429.87055881 -91.89150815 432.37748983 -94.21801758 435.32568359 C-99.76615735 441.80302401 -108.25563914 445.1640494 -116.62036133 446.13037109 C-117.31387695 446.21287109 -118.00739258 446.29537109 -118.72192383 446.38037109 C-129.3193134 446.99694649 -138.73129338 442.89970603 -146.62036133 436.13037109 C-150.10396304 432.86066554 -153.46240583 429.47819001 -156.80786133 426.06787109 C-157.6837793 425.18292969 -158.55969727 424.29798828 -159.4621582 423.38623047 C-161.13719979 421.69340982 -162.81032201 419.99868706 -164.48120117 418.30175781 C-166.84853863 415.89875629 -169.23089004 413.51135403 -171.62036133 411.13037109 C-181.62036133 401.13037109 -181.62036133 401.13037109 -184.21411133 398.51708984 C-185.6042389 397.13824577 -187.01213002 395.77595323 -188.46411133 394.46240234 C-196.59884969 386.99916361 -199.91526413 377.60440141 -200.93286133 366.81787109 C-199.7070804 352.35365611 -193.59385592 343.54531681 -183.30786133 333.75537109 C-181.86981466 332.37718996 -180.43600229 330.99457287 -179.00708008 329.60693359 C-178.38019287 329.00961426 -177.75330566 328.41229492 -177.10742188 327.796875 C-175.3871735 326.09027274 -175.3871735 326.09027274 -174.62036133 323.13037109 C-175.60154698 320.11902462 -175.60154698 320.11902462 -177.05786133 316.94287109 C-177.53094727 315.85619141 -178.0040332 314.76951172 -178.49145508 313.64990234 C-178.86399414 312.81845703 -179.2365332 311.98701172 -179.62036133 311.13037109 C-180.58748047 311.07091309 -181.55459961 311.01145508 -182.55102539 310.95019531 C-186.19859981 310.7189675 -189.84304625 310.45336456 -193.48754883 310.17822266 C-195.05397005 310.06459292 -196.62106476 309.95983559 -198.1887207 309.86474609 C-210.90803551 309.08402089 -220.6208613 306.61207075 -230.62036133 298.13037109 C-240.06777367 286.50613564 -239.89431698 272.55265397 -239.65942383 258.37646484 C-239.55726816 251.26092941 -240.08427332 244.22196895 -240.62036133 237.13037109 C-244.70956212 237.03035301 -248.79827444 236.95837094 -252.88842773 236.91064453 C-254.27527289 236.89071767 -255.66203614 236.8635655 -257.04858398 236.82861328 C-269.62319601 236.51992244 -279.11507512 238.55387584 -288.62036133 247.13037109 C-306.11420601 264.37379264 -300.95248996 280.41551655 -301.62036133 307.13037109 C-301.62036133 380.72037109 -301.62036133 454.31037109 -301.62036133 530.13037109 C-100.65036133 530.13037109 100.31963867 530.13037109 307.37963867 530.13037109 C307.37963867 419.74537109 307.37963867 419.74537109 294.70385742 247.25537109 C281.04322349 234.76564864 263.78814796 236.05547789 246.37963867 236.13037109 Z M-301.62036133 555.13037109 C-303.77245793 589.59202273 -303.77245793 589.59202273 -289.08520508 618.93505859 C-281.05066713 626.09101791 -272.58744678 629.36621734 -261.82476044 629.53988457 C-261.07501444 629.55894209 -260.32526844 629.57799961 -259.55280286 629.59763463 C-257.06692903 629.65745305 -254.58104364 629.70294659 -252.09484863 629.74728394 C-250.30808426 629.7850663 -248.52132449 629.82306706 -246.73456907 629.86127079 C-226.57537541 630.26670007 -206.41403449 630.2734707 -186.25160813 630.26109576 C-180.65503722 630.25878608 -175.05846911 630.26234829 -169.4618988 630.26507568 C-158.55855301 630.26947411 -147.65521417 630.26858367 -136.75186813 630.26566304 C-127.87397129 630.26338539 -118.99607637 630.2631066 -110.11817932 630.26418686 C-108.20781763 630.26441671 -108.20781763 630.26441671 -106.25886276 630.2646512 C-103.66994838 630.26497099 -101.08103399 630.26529521 -98.49211961 630.26562379 C-75.01953953 630.26838067 -51.54696407 630.26554357 -28.07438482 630.2602812 C-6.75295701 630.25553738 14.56846482 630.25596208 35.88989258 630.26074219 C59.97412552 630.26612395 84.05835439 630.26818669 108.14258814 630.26512992 C110.72087765 630.26481144 113.29916716 630.26449707 115.87745667 630.26418686 C117.14533995 630.26403258 118.41322323 630.26387831 119.71952721 630.26371936 C128.56533322 630.26286344 137.41113708 630.26429693 146.25694275 630.26666641 C157.06765264 630.26949916 167.8783553 630.26865408 178.68906438 630.26338567 C184.18277469 630.26079481 189.67647302 630.25966299 195.17018318 630.26303482 C208.57384857 630.27034313 221.97635985 630.23424798 235.37963867 630.13037109 C236.7848273 630.12077851 236.7848273 630.12077851 238.21840358 630.11099213 C243.80849787 630.07111352 249.39753386 630.00834621 254.98696893 629.91312896 C256.70007107 629.88639319 258.41328397 629.86585941 260.12654072 629.85225655 C274.31706199 629.72895925 285.51112671 627.68365159 296.02807617 617.54052734 C304.04200586 608.89606004 306.45562405 599.59007435 306.94213867 588.19287109 C306.98532227 587.33757813 307.02850586 586.48228516 307.07299805 585.60107422 C307.52852275 575.42768926 307.37963867 565.34455387 307.37963867 555.13037109 C106.40963867 555.13037109 -94.56036133 555.13037109 -301.62036133 555.13037109 Z M-18.74536133 655.63037109 C-19.7018457 655.67806641 -20.65833008 655.72576172 -21.64379883 655.77490234 C-23.96944044 655.89118442 -26.29494385 656.00970356 -28.62036133 656.13037109 C-29.01690918 657.03956299 -29.41345703 657.94875488 -29.82202148 658.88549805 C-32.87384262 665.87518813 -35.93871166 672.85880852 -39.02972412 679.83126831 C-40.61720175 683.41291331 -42.20065516 686.99633195 -43.78393555 690.57983398 C-44.60059868 692.42563749 -45.41899589 694.27067462 -46.23901367 696.11499023 C-47.44113837 698.81988946 -48.63682093 701.52755677 -49.83129883 704.23583984 C-50.38120987 705.46707832 -50.38120987 705.46707832 -50.94223022 706.72319031 C-51.27993439 707.49202042 -51.61763855 708.26085052 -51.96557617 709.05297852 C-52.26201019 709.72197678 -52.55844421 710.39097504 -52.86386108 711.08024597 C-53.84313513 713.57052384 -53.84313513 713.57052384 -54.62036133 718.13037109 C-16.67036133 718.13037109 21.27963867 718.13037109 60.37963867 718.13037109 C58.12746842 711.20838298 58.12746842 711.20838298 55.46606445 704.53540039 C55.12205597 703.75396164 54.77804749 702.97252289 54.4236145 702.16740417 C53.87977615 700.94831108 53.87977615 700.94831108 53.32495117 699.70458984 C52.94152557 698.83574661 52.55809998 697.96690338 52.16305542 697.07173157 C50.94739234 694.31874122 49.72630842 691.56820047 48.50463867 688.81787109 C46.90124575 685.19758539 45.30011814 681.57630246 43.69995117 677.95458984 C43.31905334 677.09332489 42.93815552 676.23205994 42.54571533 675.34469604 C39.73520298 668.9752841 37.00593024 662.57830678 34.37963867 656.13037109 C30.0055179 655.98587369 25.63133298 655.84355199 21.25708008 655.703125 C19.77333735 655.65520008 18.2896127 655.60671156 16.8059082 655.55761719 C4.91800583 655.16482743 -6.86180716 655.01282685 -18.74536133 655.63037109 Z M-66.12213135 743.13830566 C-70.92151185 743.14367527 -75.71972347 743.17749908 -80.51872444 743.23758316 C-82.20665607 743.25436904 -83.89472084 743.26129561 -85.58273125 743.2573204 C-95.46255983 742.93801795 -95.46255983 742.93801795 -104.09082031 747.05957031 C-107.12173372 750.73902488 -107.76489065 752.44365583 -108.18286133 757.06787109 C-108.26665039 757.94314453 -108.35043945 758.81841797 -108.43676758 759.72021484 C-108.69501608 764.51704342 -108.62036133 769.32659584 -108.62036133 774.13037109 C-35.03036133 774.13037109 38.55963867 774.13037109 114.37963867 774.13037109 C115.32370146 760.86243418 115.32370146 760.86243418 111.06713867 748.56787109 C106.60146388 744.51760791 103.68064876 743.87257277 97.65283203 743.72070312 C96.9646319 743.70162777 96.27643177 743.68255241 95.56737709 743.66289902 C93.22236904 743.60211382 90.87736581 743.55699762 88.53198242 743.51318359 C87.69840651 743.49474522 86.86483059 743.47630684 86.0059948 743.45730972 C60.39566724 742.89168688 34.77466582 742.97951174 9.15950429 743.00180078 C4.32654393 743.00557382 -0.50639586 743.00420015 -5.33935547 743 C-22.28509177 742.9859896 -39.22988827 743.0210682 -56.17543793 743.11473083 C-59.49103294 743.12978393 -62.80650574 743.13565944 -66.12213135 743.13830566 Z " fill="#FFFFFF" transform="translate(444.620361328125,16.86962890625)"/>
<path d="M0 0 C36.78107933 -0.91857804 72.63039064 8.45141054 100.88525391 33.06201172 C101.72701172 33.79419922 102.56876953 34.52638672 103.43603516 35.28076172 C105.9506048 37.50915121 108.4235078 39.77552237 110.88525391 42.06201172 C111.54009766 42.65111328 112.19494141 43.24021484 112.86962891 43.84716797 C139.20041852 68.6002863 152.76490546 105.73853386 154.07275391 141.31201172 C154.907184 178.9305414 141.65943215 215.38531103 115.88134766 242.90576172 C114.20655687 244.71492907 112.70655653 246.55503661 111.19775391 248.49951172 C92.14758708 270.80342604 58.23286077 285.61733694 29.83837891 289.47607422 C7.69172048 291.20428167 -14.82667769 290.90785423 -36.11474609 284.06201172 C-37.36255859 283.66369141 -38.61037109 283.26537109 -39.89599609 282.85498047 C-56.44689772 277.25467539 -71.85421228 268.40557181 -85.11474609 257.06201172 C-85.87126465 256.42078369 -85.87126465 256.42078369 -86.64306641 255.76660156 C-115.74082573 230.89806059 -132.71346078 196.24427321 -136.80224609 158.43701172 C-136.92764754 156.64670599 -137.0308311 154.85474104 -137.11474609 153.06201172 C-137.16759766 152.01916016 -137.22044922 150.97630859 -137.27490234 149.90185547 C-138.28140423 110.3857163 -123.81570707 73.46483576 -96.98583984 44.65185547 C-71.90702617 18.47885935 -36.51678186 1.07079919 0 0 Z M-69.11474609 53.06201172 C-69.93201172 53.74779297 -70.74927734 54.43357422 -71.59130859 55.14013672 C-88.0576177 69.312378 -99.49833154 87.77644916 -106.42724609 108.24951172 C-106.79088257 109.31697632 -106.79088257 109.31697632 -107.16186523 110.40600586 C-110.81477359 121.69763463 -111.52464173 132.78263291 -111.48974609 144.56201172 C-111.4885376 145.31523712 -111.4873291 146.06846252 -111.48608398 146.84451294 C-111.34655719 178.90121917 -99.73290812 205.57840501 -78.11474609 229.06201172 C-77.49986328 229.74779297 -76.88498047 230.43357422 -76.25146484 231.14013672 C-55.75800004 252.90490827 -26.130688 263.80744404 3.16650391 264.92138672 C38.02457717 265.93415506 66.53823673 254.63280765 92.61181641 231.65966797 C111.66309341 213.48535451 125.4083867 187.42295554 127.88525391 161.06201172 C128.01673828 159.90572266 128.14822266 158.74943359 128.28369141 157.55810547 C131.00529426 127.59023401 123.49584275 95.89927657 104.38525391 72.24951172 C102.8965736 70.51059013 101.39696369 68.78095061 99.88525391 67.06201172 C98.86238281 65.85738281 98.86238281 65.85738281 97.81884766 64.62841797 C79.13356581 42.94471516 51.23818189 28.05100285 22.62744141 25.69482422 C-10.92155938 23.27712857 -43.30523459 30.33554766 -69.11474609 53.06201172 Z " fill="#FFFFFF" transform="translate(439.11474609375,113.93798828125)"/>
<path d="M0 0 C5.57799866 -0.08974535 11.15472253 -0.09409604 16.73330307 -0.08696508 C18.55747131 -0.08832493 20.38163927 -0.09010811 22.20580673 -0.09227514 C27.09837028 -0.09678016 31.99091241 -0.09508886 36.88347626 -0.09189606 C42.04215928 -0.0893362 47.20084066 -0.09171997 52.35952377 -0.09328222 C61.01699777 -0.09509344 69.67446319 -0.09272523 78.33193588 -0.08794165 C88.29249414 -0.08250106 98.25303191 -0.08426446 108.21358967 -0.08976805 C116.81802195 -0.09432916 125.42244812 -0.09493514 134.02688122 -0.09232938 C139.14294329 -0.09078302 144.25899579 -0.09052722 149.37505722 -0.09386587 C154.18840731 -0.09678848 159.00173141 -0.09468968 163.81507874 -0.08897161 C165.5648011 -0.08766726 167.31452571 -0.08799766 169.06424713 -0.09023428 C173.79040088 -0.09571121 178.51446975 -0.07263823 183.24004364 0.00439453 C184.89578535 0.03085528 186.55163581 0.05095949 188.20751953 0.0661211 C190.80701057 0.09732766 193.40353515 0.16329336 196.0021019 0.23801661 C196.79284198 0.2432367 197.58358206 0.2484568 198.39828396 0.25383508 C202.61751101 0.41537406 204.20176036 0.70562844 207.61005783 3.45012712 C210.55186162 7.24424723 210.76538729 10.34797979 210.62002182 15.04242945 C209.60787563 19.59708729 207.49281921 21.53799742 203.62002182 24.04242945 C200.75112613 24.67231067 197.92657757 24.73397098 194.99636459 24.78434229 C193.74001654 24.82723062 193.74001654 24.82723062 192.45828772 24.87098539 C189.84546787 24.95188895 187.23376119 25.00216184 184.62002182 25.04242945 C183.83692705 25.05643116 183.05383228 25.07043288 182.24700737 25.08485889 C176.69728336 25.17450022 171.14884515 25.17895903 165.59853745 25.17182398 C163.7842213 25.17318386 161.96990542 25.17496705 160.15559006 25.17713404 C155.28988512 25.18163865 150.42420172 25.17994793 145.55849648 25.17675495 C140.42784066 25.17419488 135.2971865 25.17657893 130.16653061 25.17814112 C121.55613504 25.17995228 112.9457481 25.17758429 104.33535385 25.17280054 C94.42932713 25.16735997 84.52332101 25.16912337 74.61729479 25.17462695 C66.05957124 25.17918824 57.50185384 25.17979395 48.94412947 25.17718828 C43.85601305 25.17564201 38.76790626 25.17538584 33.6797905 25.17872477 C28.89270518 25.18164763 24.105646 25.17954811 19.31856346 25.17383051 C17.57851644 25.17252629 15.83846716 25.1728563 14.0984211 25.17509317 C9.39573359 25.18057376 4.69514197 25.15741579 -0.00696373 25.08046436 C-1.65912039 25.05398343 -3.31138659 25.03388877 -4.96368599 25.01873779 C-7.56252595 24.98751769 -10.15840426 24.92153394 -12.75632095 24.84684229 C-13.5474058 24.84162219 -14.33849065 24.83640209 -15.15354776 24.83102381 C-19.32748544 24.67132284 -20.97170207 24.3607637 -24.37745285 21.70528841 C-26.94445907 18.29181072 -27.05030347 16.21784384 -27.00497818 11.97992945 C-27.0178688 10.77207788 -27.03075943 9.56422632 -27.04404068 8.3197732 C-26.37997818 5.04242945 -26.37997818 5.04242945 -24.37709427 2.88396502 C-20.41203023 0.44768753 -17.3335117 0.37913563 -12.76205826 0.30051661 C-11.50592712 0.25762827 -11.50592712 0.25762827 -10.22441959 0.21387351 C-6.81668021 0.10837925 -3.40874261 0.06076991 0 0 Z " fill="#FFFFFF" transform="translate(408.37997817993164,596.9575705528259)"/>
<path d="M0 0 C5.8806981 5.35641736 11.56999088 10.89809683 17.21359253 16.50306702 C17.72229008 17.00768904 18.23098763 17.51231106 18.75510025 18.03222466 C21.43819179 20.69463503 24.11812457 23.36017974 26.79562378 26.0282135 C29.55105303 28.77250537 32.3179827 31.5049004 35.08752251 34.23494053 C37.22861172 36.34987686 39.36075913 38.47365909 41.4906044 40.59991264 C42.50709085 41.61154418 43.52693913 42.6198099 44.55025864 43.62452888 C45.97852683 45.02839625 47.39299601 46.44626047 48.80685425 47.86463928 C49.61323334 48.66515213 50.41961243 49.46566498 51.25042725 50.29043579 C54.40750739 54.22878145 55.20334285 57.62930585 55.28390503 62.62416077 C53.76344154 71.75564383 42.65352747 79.49648797 36.43234253 85.74134827 C35.92647236 86.25004581 35.42060219 86.75874336 34.89940262 87.28285599 C32.23141646 89.96570753 29.5606676 92.64577021 26.88742065 95.32337952 C24.13582369 98.08049747 21.3936574 100.84680347 18.65349388 103.61527824 C16.53267066 105.75472892 14.40516536 107.88743841 12.27577591 110.01836014 C11.26142407 111.03572982 10.24956326 112.05558969 9.24030685 113.07801437 C7.83145993 114.5039512 6.41213752 115.91951493 4.99240112 117.33460999 C4.18966766 118.14098907 3.3869342 118.94736816 2.55987549 119.77818298 C-0.44444553 122.31037233 -3.12769977 123.63891263 -7.05984497 123.90150452 C-11.04594267 123.51552675 -13.38697061 123.01024367 -16.77859497 120.74916077 C-19.86151073 116.12478712 -20.33721146 111.6120703 -19.27859497 106.18666077 C-16.91428248 102.34465298 -14.05035872 98.85887961 -10.77859497 95.74916077 C-10.11859497 95.74916077 -9.45859497 95.74916077 -8.77859497 95.74916077 C-8.11859497 94.42916077 -7.45859497 93.10916077 -6.77859497 91.74916077 C-6.11859497 91.74916077 -5.45859497 91.74916077 -4.77859497 91.74916077 C-4.57234497 91.19228577 -4.36609497 90.63541077 -4.15359497 90.06166077 C-2.64295485 87.52103875 -0.84001322 85.9840858 1.49093628 84.19056702 C3.89008308 82.19218063 6.02888568 79.97122005 8.22140503 77.74916077 C9.03480347 76.94736389 9.8482019 76.14556702 10.68624878 75.31947327 C11.50222534 74.51252014 12.3182019 73.70556702 13.15890503 72.87416077 C13.97230347 72.07236389 14.7857019 71.27056702 15.62374878 70.44447327 C17.62632889 68.36660819 19.51510691 66.2745969 21.38375854 64.08070374 C21.91719376 63.45533722 22.45062897 62.8299707 23.00022888 62.18565369 C23.40321701 61.71161102 23.80620514 61.23756836 24.22140503 60.74916077 C23.71441574 60.25105392 23.20742645 59.75294708 22.68507385 59.23974609 C17.89315688 54.52820261 13.1110796 49.80691524 8.33963299 45.07463741 C5.88662982 42.6424488 3.43007276 40.21409652 0.96481323 37.79432678 C-1.87361119 35.00794915 -4.69555214 32.20519973 -7.51687622 29.40150452 C-8.39821732 28.54080856 -9.27955841 27.68011261 -10.18760681 26.79333496 C-15.19883437 21.78395235 -19.28937464 17.5954997 -20.02859497 10.27259827 C-19.54916451 6.15249273 -19.06750102 4.1239578 -16.46609497 0.74916077 C-11.53462718 -2.92076875 -5.28497455 -3.7167841 0 0 Z " fill="#FFFFFF" transform="translate(497.7785949707031,198.25083923339844)"/>
<path d="M0 0 C3.10012553 2.06675035 4.59715921 3.52736348 5.58984375 7.15625 C6.24668635 11.58440235 6.37419949 15.07740953 4 19 C2.13526076 21.46727337 0.2529843 23.87558274 -2 26 C-2.66 26 -3.32 26 -4 26 C-4.495 27.485 -4.495 27.485 -5 29 C-6.6396721 30.36639342 -8.31110128 31.6949419 -10 33 C-14.03807392 36.81979966 -17.62659188 40.98298436 -21.23046875 45.20703125 C-21.81441406 45.79871094 -22.39835937 46.39039063 -23 47 C-23.66 47 -24.32 47 -25 47 C-25 47.66 -25 48.32 -25 49 C-25.66 49 -26.32 49 -27 49 C-27.33 49.99 -27.66 50.98 -28 52 C-28.66 52 -29.32 52 -30 52 C-30.226875 52.5775 -30.45375 53.155 -30.6875 53.75 C-32.33038023 56.5663661 -34.39533227 58.08077114 -37 60 C-36.49969799 64.32906443 -35.26655709 66.20338573 -32.13867188 69.18847656 C-30.91235046 70.37561249 -30.91235046 70.37561249 -29.66125488 71.58673096 C-28.77272827 72.42951599 -27.88420166 73.27230103 -26.96875 74.140625 C-25.10752472 75.95125957 -23.2468651 77.76247576 -21.38671875 79.57421875 C-18.44680077 82.4193044 -15.49737012 85.25419217 -12.53759766 88.07861328 C-9.68100679 90.80692923 -6.85668761 93.56755553 -4.03125 96.328125 C-3.14272339 97.16281311 -2.25419678 97.99750122 -1.33874512 98.85748291 C3.2595083 103.37972184 5.98787012 106.49618615 6.16589355 113.09661865 C5.73432566 118.04821716 3.7395719 120.85271311 0 124 C-4.53659195 125.33792774 -8.43052904 125.15174166 -13 124 C-18.12677474 120.92739818 -22.02720028 116.19965924 -26 111.8125 C-27.09972899 110.64742291 -28.20257816 109.48528275 -29.30859375 108.32617188 C-31.34023249 106.18911612 -33.35194999 104.03675685 -35.34375 101.86254883 C-39.19408635 97.71317441 -43.19102246 93.78977347 -47.37812805 89.98097229 C-49.63084849 87.91813566 -51.84461667 85.81522171 -54.05834961 83.71069336 C-55.22456934 82.61491752 -56.40303724 81.53202837 -57.59350586 80.46264648 C-59.33288847 78.8951558 -61.02100252 77.28468155 -62.70703125 75.66015625 C-63.23819046 75.20125504 -63.76934967 74.74235382 -64.31660461 74.26954651 C-67.83362949 70.76019953 -68.60653782 67.30688469 -69.05810547 62.40307617 C-68.65271444 52.89656072 -62.84884777 48.01634134 -56.36328125 41.890625 C-55.1617278 40.70760807 -53.96305558 39.52165834 -52.76713562 38.33294678 C-50.26620325 35.86087094 -47.74471263 33.41292676 -45.20336914 30.98242188 C-41.95034386 27.87124095 -38.7353523 24.72413952 -35.53283405 21.56106949 C-32.46665223 18.5344638 -29.38540066 15.52342344 -26.30078125 12.515625 C-25.71616938 11.94423042 -25.1315575 11.37283585 -24.52923012 10.78412628 C-22.8690211 9.16818133 -21.19886084 7.56334196 -19.5246582 5.96191406 C-18.57645706 5.04927795 -17.62825592 4.13664185 -16.65132141 3.1963501 C-11.30973218 -1.22861324 -6.56340319 -1.7954237 0 0 Z " fill="#FFFFFF" transform="translate(411,197)"/>
<path d="M0 0 C3.46121174 2.16325734 4.70741598 3.12224793 6 7 C6.56289228 14.44218965 5.60150593 21.1711306 3.75390625 28.35546875 C3.51138626 29.34380203 3.26886627 30.33213531 3.01899719 31.35041809 C2.21150398 34.63236437 1.38689663 37.9097628 0.5625 41.1875 C-0.6265751 45.992143 -1.80700628 50.79890295 -2.98828125 55.60546875 C-3.30404114 56.88485321 -3.61980103 58.16423767 -3.94512939 59.48239136 C-6.5584734 70.0907009 -9.0624607 80.7232225 -11.54296875 91.36328125 C-11.92767312 93.0104498 -12.31245386 94.65760051 -12.6973114 96.30473328 C-14.21902379 102.82003177 -15.74068238 109.3353217 -17.24850464 115.85385132 C-18.13925297 119.70396899 -19.03711079 123.55236456 -19.93995094 127.39966393 C-20.27284017 128.82435643 -20.60303664 130.24968122 -20.93033409 131.67566872 C-21.38165196 133.64085991 -21.84319574 135.60369417 -22.30517578 137.56640625 C-22.6893718 139.22071655 -22.6893718 139.22071655 -23.08132935 140.90844727 C-24.61691967 146.07608644 -26.63447576 150.68876158 -31 154 C-36.39543975 155.00932573 -41.42956661 154.92378435 -46.1875 152.125 C-50.26958895 147.33910261 -49.43484217 142.02724462 -49 136 C-48.03189464 130.42390452 -46.68371095 124.96403266 -45.30859375 119.4765625 C-44.92055794 117.8843656 -44.53379113 116.29185896 -44.14820862 114.69906616 C-43.13210878 110.51554278 -42.09995453 106.33615258 -41.06390381 102.15753174 C-40.03824981 98.01084352 -39.02610947 93.86086879 -38.01367188 89.7109375 C-36.82114572 84.82495718 -35.62786017 79.93918015 -34.42800903 75.05499268 C-31.63353153 63.66998807 -28.92620263 52.26736679 -26.29429626 40.84365845 C-17.8105718 4.07446967 -17.8105718 4.07446967 -12.375 0.0625 C-7.95489967 -1.32901307 -4.4577332 -1.22320856 0 0 Z " fill="#FFFFFF" transform="translate(469,182)"/>
<path d="M0 0 C8.75654251 7.07975778 14.13741128 13.57421897 15.75 25 C16.41992704 35.10179453 13.66076151 43.58926764 7.18359375 51.5234375 C1.21156525 57.23364429 -6.30663028 61.07512768 -14.59375 61.59765625 C-24.40447146 61.16043932 -33.25152217 58.91690484 -40.53125 52.06640625 C-47.49498428 44.37432221 -49.52560526 35.99612837 -49.2421875 25.77734375 C-48.6077189 17.29477449 -45.41249459 9.34239469 -39.01953125 3.51171875 C-27.70892134 -4.55584902 -12.5083194 -6.63706744 0 0 Z M-23.890625 23.7109375 C-25.37211067 25.4460465 -25.37211067 25.4460465 -24.875 28.375 C-24.19275087 31.52401583 -24.19275087 31.52401583 -22.0625 34.375 C-19.69965136 34.85290518 -19.69965136 34.85290518 -17.0625 34.75 C-16.175625 34.75773438 -15.28875 34.76546875 -14.375 34.7734375 C-13.2303125 34.57621094 -13.2303125 34.57621094 -12.0625 34.375 C-9.74917514 30.90501271 -9.72292437 29.44990752 -10.0625 25.375 C-10.7225 24.385 -11.3825 23.395 -12.0625 22.375 C-14.3912787 21.89675649 -14.3912787 21.89675649 -17 22 C-17.87527344 21.99226562 -18.75054687 21.98453125 -19.65234375 21.9765625 C-22.10609449 22.19632825 -22.10609449 22.19632825 -23.890625 23.7109375 Z " fill="#FFFFFF" transform="translate(325.0625,580.625)"/>
</svg>
