<?xml version="1.0" encoding="UTF-8"?>
<!DOCTYPE svg PUBLIC "-//W3C//DTD SVG 1.1//EN" "http://www.w3.org/Graphics/SVG/1.1/DTD/svg11.dtd">
<svg xmlns="http://www.w3.org/2000/svg" version="1.1" width="900px" height="837px" style="shape-rendering:geometricPrecision; text-rendering:geometricPrecision; image-rendering:optimizeQuality; fill-rule:evenodd; clip-rule:evenodd" xmlns:xlink="http://www.w3.org/1999/xlink">
<g><path style="opacity:0.985" fill="#fefffe" d="M 203.5,21.5 C 268.259,16.8402 320.926,39.5068 361.5,89.5C 369.908,67.1756 377.908,44.6756 385.5,22C 426.5,21.3333 467.5,21.3333 508.5,22C 517.393,46.6786 525.893,71.5119 534,96.5C 534.388,97.428 535.055,98.0946 536,98.5C 561.174,106.173 585.34,116.173 608.5,128.5C 631.951,117.274 655.285,105.774 678.5,94C 679.833,93.3333 681.167,93.3333 682.5,94C 711,122.5 739.5,151 768,179.5C 756.626,204.085 744.793,228.585 732.5,253C 745.055,275.323 754.888,298.823 762,323.5C 762.465,324.931 763.299,326.097 764.5,327C 789.601,335.2 814.601,343.7 839.5,352.5C 840.667,393.496 840.833,434.496 840,475.5C 817.006,483.742 793.839,491.576 770.5,499C 827.476,544.853 849.31,604.02 836,676.5C 833.787,685.032 831.12,693.366 828,701.5C 804.5,678 781,654.5 757.5,631C 756.234,630.691 755.067,630.191 754,629.5C 729.982,636.38 705.815,642.713 681.5,648.5C 675.712,672.82 669.378,696.987 662.5,721C 663.191,722.067 663.691,723.234 664,724.5C 687.5,748 711,771.5 734.5,795C 676.943,816.16 622.609,809.827 571.5,776C 556.677,764.844 543.511,752.011 532,737.5C 524.359,760.757 516.525,783.924 508.5,807C 467.496,807.833 426.496,807.667 385.5,806.5C 376.7,781.601 368.2,756.601 360,731.5C 359.097,730.299 357.931,729.465 356.5,729C 331.728,722.025 308.228,712.192 286,699.5C 261.585,711.793 237.085,723.626 212.5,735C 184,706.5 155.5,678 127,649.5C 126.333,648.167 126.333,646.833 127,645.5C 138.333,622.833 149.667,600.167 161,577.5C 161.667,576.167 161.667,574.833 161,573.5C 148.365,550.561 138.198,526.561 130.5,501.5C 105.563,492.965 80.5628,484.632 55.5,476.5C 54.3334,435.171 54.1667,393.837 55,352.5C 77.0759,344.808 99.2426,337.308 121.5,330C 121.957,329.586 122.291,329.086 122.5,328.5C 58.3589,274.2 39.5256,206.867 66,126.5C 89.8333,150.333 113.667,174.167 137.5,198C 139.167,198.667 140.833,198.667 142.5,198C 165.852,191.829 189.186,185.662 212.5,179.5C 218.35,156.099 224.517,132.766 231,109.5C 231.667,107.833 231.667,106.167 231,104.5C 207.167,80.6667 183.333,56.8333 159.5,33C 173.955,27.8876 188.622,24.0542 203.5,21.5 Z M 210.5,46.5 C 267.218,44.2793 312.051,65.946 345,111.5C 367.907,148.606 374.24,188.273 364,230.5C 452.833,319.333 541.667,408.167 630.5,497C 688.436,484.351 737.936,499.184 779,541.5C 805.082,573.082 816.748,609.415 814,650.5C 797.555,635.056 781.389,619.223 765.5,603C 763.966,602.077 762.299,601.577 760.5,601.5C 727.154,610.007 693.987,619.007 661,628.5C 651.866,661.405 643.032,694.405 634.5,727.5C 634.577,729.299 635.077,730.966 636,732.5C 652.779,747.946 668.946,764.113 684.5,781C 635.612,784.127 594.445,767.961 561,732.5C 528.798,692.681 518.465,647.681 530,597.5C 441.167,508.667 352.333,419.833 263.5,331C 214.038,342.468 169.372,332.468 129.5,301C 93.9293,267.666 77.2627,226.499 79.5,177.5C 96.8727,193.369 113.873,209.869 130.5,227C 131.167,227.167 131.833,227.333 132.5,227.5C 165.944,218.646 199.277,209.48 232.5,200C 242.292,166.835 251.626,133.501 260.5,100C 260.138,98.7753 259.638,97.6086 259,96.5C 243.266,80.5983 227.432,64.9316 211.5,49.5C 210.614,48.675 210.281,47.675 210.5,46.5 Z M 403.5,46.5 C 432.5,46.5 461.5,46.5 490.5,46.5C 498.348,71.2115 506.681,95.7115 515.5,120C 529.688,123.729 543.688,128.063 557.5,133C 574.713,140.524 591.547,148.691 608,157.5C 631.249,146.709 654.249,135.376 677,123.5C 696.359,143.859 716.026,163.859 736,183.5C 736.667,184.833 736.667,186.167 736,187.5C 724.892,209.382 714.059,231.382 703.5,253.5C 720.685,282.21 733.185,312.877 741,345.5C 765.151,354.717 789.651,363.051 814.5,370.5C 814.162,395.083 814.162,417.25 814.5,437C 813.833,444 813.167,451 812.5,458C 788.727,466.036 764.893,473.869 741,481.5C 725.013,475.172 708.513,470.672 691.5,468C 677.788,467.185 664.121,467.352 650.5,468.5C 665.334,405.164 654.5,346.498 618,292.5C 559.822,218.937 484.655,191.603 392.5,210.5C 396.57,179.322 392.236,149.322 379.5,120.5C 387.704,95.8877 395.704,71.2211 403.5,46.5 Z M 423.5,231.5 C 494.664,225.185 552.164,249.851 596,305.5C 627.677,351.554 637.677,401.887 626,456.5C 551.861,383.361 478.027,309.861 404.5,236C 410.89,234.16 417.224,232.66 423.5,231.5 Z M 151.5,346.5 C 159.042,348.292 166.375,350.792 173.5,354C 196.47,361.017 219.803,362.85 243.5,359.5C 230.728,414.272 237.561,466.605 264,516.5C 314.392,597.447 387.226,632.28 482.5,621C 488.585,619.812 494.585,618.312 500.5,616.5C 500.833,616.833 501.167,617.167 501.5,617.5C 499.338,638.348 500.505,659.015 505,679.5C 507.772,689.15 510.939,698.65 514.5,708C 506.869,731.893 499.036,755.727 491,779.5C 484,780.167 477,780.833 470,781.5C 450.25,781.162 428.083,781.162 403.5,781.5C 396.008,757.19 388.008,733.023 379.5,709C 346.615,700.552 315.615,687.719 286.5,670.5C 264.382,681.059 242.382,691.892 220.5,703C 219.167,703.667 217.833,703.667 216.5,703C 196.5,683 176.5,663 156.5,643C 168.05,621.401 179.216,599.568 190,577.5C 190.667,575.833 190.667,574.167 190,572.5C 173.179,544.377 160.846,514.377 153,482.5C 129.13,473.987 105.13,465.654 81,457.5C 80.814,450.586 80.314,443.753 79.5,437C 79.8377,417.25 79.8377,395.083 79.5,370.5C 103.816,363.097 127.816,355.097 151.5,346.5 Z M 267.5,372.5 C 268.922,372.709 270.255,373.209 271.5,374C 344.527,446.694 417.194,519.694 489.5,593C 415.474,607.553 353.641,586.72 304,530.5C 268.484,483.451 256.317,430.784 267.5,372.5 Z"/></g>
</svg>
