<?xml version="1.0" encoding="UTF-8"?>
<svg version="1.1" xmlns="http://www.w3.org/2000/svg" width="102" height="80">
<path d="M0 0 C3.65025213 1.72492307 6.13540303 4.74151188 8.85546875 7.66015625 C10.58447188 9.50611206 12.27603261 11.11443883 14.2421875 12.69140625 C17.02913452 14.97163563 19.48642913 17.3619491 21.9921875 19.94140625 C27.66386849 16.9803751 31.85086964 12.46590598 36.37695312 8.03515625 C40.00279159 4.56024101 43.22797014 1.78650777 47.9921875 -0.05859375 C52.3824314 0.33165015 52.3824314 0.33165015 53.9921875 1.94140625 C54.59762705 5.04868637 54.61409093 7.83625991 53.9921875 10.94140625 C51.99653329 13.88782025 49.47675556 16.00205769 46.7421875 18.25390625 C45.38269182 19.43736138 44.02331354 20.6209514 42.6640625 21.8046875 C40.60590431 23.57201899 38.53633353 25.31825485 36.4453125 27.046875 C34.72591904 28.85705158 34.72591904 28.85705158 35.14916992 31.30078125 C36.18179576 34.53532545 37.51928699 35.81856785 40.02734375 38.0859375 C40.83623047 38.84583984 41.64511719 39.60574219 42.47851562 40.38867188 C44.19226518 41.96209925 45.91362731 43.52727621 47.64257812 45.08398438 C53.67565742 50.78964995 53.67565742 50.78964995 54.62060547 54.22802734 C54.67578125 56.390625 54.67578125 56.390625 53.9921875 59.94140625 C51.9921875 61.94140625 51.9921875 61.94140625 48.8671875 62.56640625 C43.86005915 61.7588049 42.18283238 59.66984624 38.88671875 55.984375 C37.05278837 53.87664292 37.05278837 53.87664292 34.75390625 52.3046875 C33.88185547 51.62986328 33.88185547 51.62986328 32.9921875 50.94140625 C32.9921875 50.28140625 32.9921875 49.62140625 32.9921875 48.94140625 C32.4353125 48.71453125 31.8784375 48.48765625 31.3046875 48.25390625 C28.9921875 46.94140625 28.9921875 46.94140625 26.5546875 44.25390625 C24.27519276 41.66166711 24.27519276 41.66166711 21.6328125 42.0078125 C18.232474 43.21000318 16.63665338 44.93876261 14.1796875 47.56640625 C2.56355055 59.64995854 2.56355055 59.64995854 -3.0078125 61.94140625 C-6.35758313 61.62238048 -7.59960889 61.34960986 -10.0078125 58.94140625 C-11.01636007 52.38932482 -11.01636007 52.38932482 -8.70654297 49.07324219 C-6.86751196 47.20158405 -4.95553143 45.50264079 -2.9453125 43.81640625 C-1.96014648 42.94435547 -1.96014648 42.94435547 -0.95507812 42.0546875 C1.00772756 40.32587146 2.99552147 38.63093069 4.9921875 36.94140625 C6.32477577 35.79882641 7.65684138 34.6556366 8.98828125 33.51171875 C9.97957031 32.66351563 10.97085938 31.8153125 11.9921875 30.94140625 C8.92580904 27.25327364 5.84675922 23.72166988 2.37890625 20.40625 C1.4672168 19.53323242 1.4672168 19.53323242 0.53710938 18.64257812 C-0.71341703 17.45516977 -1.97141739 16.27558888 -3.23632812 15.10351562 C-6.13664173 12.30267687 -7.81171894 10.57738537 -9.01953125 6.66015625 C-9.0078125 3.94140625 -9.0078125 3.94140625 -7.5078125 1.50390625 C-4.81065621 -0.18181643 -3.14583618 -0.64131854 0 0 Z " fill="#0B6B64" transform="translate(32.0078125,11.05859375)"/>
</svg>
